<svg width="20" height="20" viewBox="0 0 20 20" fill="none" xmlns="http://www.w3.org/2000/svg">
<path fill-rule="evenodd" clip-rule="evenodd" d="M4.2417 11H6.2417V13H4.2417V11ZM4.2417 14H6.2417V16H4.2417V14ZM9.2417 11H7.2417V13H9.2417V11ZM7.2417 14H9.2417V16H7.2417V14ZM15.2417 11H13.2417V13H15.2417V11ZM13.2417 14H15.2417V16H13.2417V14ZM12.2417 11H10.2417V13H12.2417V11ZM10.2417 14H12.2417V16H10.2417V14ZM16.304 18C16.8197 18 17.2417 17.55 17.2417 17V9H2.2385V17C2.2385 17.552 2.65859 18 3.1762 18H16.304ZM2.25912 20C1.212 20 0.302402 18.865 0.302402 17.761L0.241699 4C0.241699 2.9 1.09533 2 2.13866 2H4.03563V0H5.93259V2H13.5205V0H15.4174V2C18.9448 2 19.2113 2.626 19.2113 4.708C19.2113 5.07586 19.221 9.05988 19.2294 12.5323C19.2359 15.2145 19.2417 17.5915 19.2417 17.761C19.2417 18.979 18.4829 20 17.4348 20H2.25912ZM2.2385 7H17.2417V5C17.2417 4.448 16.8216 4 16.304 4H15.3663V6H13.4909V4H5.9893V6H4.1139V4H3.14901C2.6464 4 2.2385 4.435 2.2385 4.971V7Z" fill="#CE8D3B"/>
</svg>
