<svg width="81" height="83" viewBox="0 0 81 83" fill="none" xmlns="http://www.w3.org/2000/svg">
<path fill-rule="evenodd" clip-rule="evenodd" d="M21.7266 43.7915C21.0455 41.0665 20.463 38.1313 20.2247 35.2896C20.1733 34.6678 20.0938 34.0706 20.079 33.4355L19.942 31.5714C19.9065 31.2568 19.9627 30.9152 19.915 30.5985C19.8662 30.2786 19.8863 29.0352 19.8869 28.6256V26.1961C19.8986 25.9833 19.9346 25.9679 19.9367 25.7218C19.9527 23.8481 20.4015 21.758 21.4316 20.2138C22.1855 19.0834 23.003 18.5677 24.1307 17.9105C26.9566 16.2649 33.9574 15.5663 37.2899 15.0103C38.0845 14.8771 39.0638 14.7408 39.8283 14.5467L40.6261 14.3047C40.677 14.3016 41.2499 14.492 41.381 14.527C42.8053 14.9032 45.9319 15.2888 47.4072 15.5063C49.7779 15.8553 52.0341 16.1705 54.1375 16.7822C54.6923 16.9429 55.1321 17.0792 55.6616 17.259L57.7017 18.2207C58.5389 18.7264 59.2359 19.3316 59.8051 20.1194C59.9632 20.3379 60.0471 20.505 60.1866 20.7384C60.8613 21.8679 61.3547 24.1755 61.3494 25.6258C61.3483 25.951 61.3987 26.1939 61.3982 26.5769C61.3977 26.883 61.3764 27.2809 61.4003 27.5748C61.4735 28.4532 61.3833 30.9174 61.3059 31.8668C61.2709 32.2871 61.3085 32.6505 61.2204 33.3066L61.0662 35.1521C60.822 38.7701 59.7399 43.4595 58.7351 46.8742C58.3628 48.1411 57.7728 50.2752 57.3411 51.4825L56.7756 52.9652C56.7756 52.9652 48.6872 50.7772 40.6548 50.7772C32.6225 50.7772 24.5578 52.9652 24.5578 52.9652C24.5578 52.9652 22.1929 45.6552 21.7266 43.7915V43.7915Z" fill="url(#paint0_linear_0_24771)"/>
<path fill-rule="evenodd" clip-rule="evenodd" d="M61.5064 31.6271C61.4716 32.044 61.509 32.4047 61.4216 33.0559L61.2685 34.8875C61.0262 38.4781 58.1964 69.0588 41.2251 69.0588C24.2539 69.0588 20.9723 37.8442 20.736 35.0238C20.6849 34.4069 20.6059 33.814 20.5913 33.1839L20.4553 31.3339C20.4201 31.0217 20.4759 30.6826 20.4285 30.3684C20.3801 30.0509 20.4 28.8168 20.4007 28.4104V25.9991C20.4122 25.7881 20.448 25.7728 20.4501 25.5285C20.4659 23.669 20.9113 21.5947 21.9336 20.0621C22.6818 18.9402 23.4932 18.4285 24.6123 17.7762C27.4169 16.1431 34.3647 15.4497 37.672 14.8979C38.4606 14.7659 39.4325 14.6305 40.1912 14.4378L40.983 14.1978C41.0335 14.1946 41.6021 14.3837 41.7321 14.4184C43.1457 14.7916 46.2487 15.1744 47.7128 15.3902C50.0656 15.7366 52.3047 16.0494 54.3922 16.6564C54.9428 16.8159 55.3793 16.9512 55.9048 17.1297L57.9295 18.0842C58.7603 18.5859 59.4521 19.1867 60.017 19.9685C60.1739 20.1853 60.2571 20.3512 60.3955 20.5828C61.0652 21.7036 61.5548 23.9938 61.5496 25.4332C61.5484 25.756 61.5985 25.997 61.598 26.3772C61.5975 26.6809 61.5763 27.0758 61.6001 27.3675C61.6727 28.2393 61.5832 30.6847 61.5064 31.6271M59.978 18.4954C58.6134 17.1307 57.5163 16.7417 55.7151 16.1373C52.3484 15.0091 48.2388 14.6284 44.5908 14.0672C44.2587 14.0162 43.9623 13.9604 43.6685 13.9014C42.9188 13.7503 42.1165 13.6402 41.4057 13.3739C41.2068 13.2991 41.1651 13.3296 41.1651 13.0469C40.8572 13.129 41.1419 13.129 40.8339 13.0469C40.8339 13.3828 40.6402 13.378 40.2138 13.515C39.6626 13.6919 38.9845 13.7977 38.4148 13.8914C34.5275 14.5284 30.0055 14.8953 26.3897 16.102C25.3163 16.4594 24.2676 16.7854 23.3425 17.4051C22.8587 17.7299 22.5455 17.971 22.1391 18.3769C21.7289 18.7871 21.4346 19.0818 21.1103 19.5704C19.9073 21.3815 19.4077 23.6548 19.4077 26.6609C19.4077 30.7679 19.483 34.8159 20.2706 38.7508C20.7012 40.8987 20.6854 42.6138 21.2176 44.7434C21.8115 47.1183 23.6679 70.3651 41.2473 70.3651C58.8266 70.3651 61.0728 43.617 61.5277 41.6274C61.8451 40.2359 61.9452 38.5355 62.1347 37.0945L62.4483 32.569C62.454 32.3421 62.4856 32.3536 62.4967 32.1446C62.5293 31.5397 62.5451 31.0153 62.543 30.3941C62.5414 30.0593 62.5936 29.905 62.5914 29.545C62.5704 25.448 62.8246 21.3399 59.978 18.4954" fill="#1D1D1B"/>
<path fill-rule="evenodd" clip-rule="evenodd" d="M50.9507 29.8718C50.5848 31.1142 50.1015 32.4436 49.3855 33.5075C48.2715 35.1659 47.9846 35.347 47.0769 33.6587C46.9585 33.4381 46.8137 33.2191 46.6989 32.998L45.6518 30.8288C45.5227 30.5177 45.1384 29.607 45.1384 29.2152C45.1384 28.9735 45.6491 29.1195 46.0703 29.1821C47.634 29.4111 47.6055 29.7033 49.2181 28.0923C49.3902 27.9201 49.6188 27.7727 49.6793 27.5136C49.1322 27.1473 47.9503 27.3242 47.267 27.3242L44.5751 27.4711C43.6601 27.5637 43.8717 28.8299 43.9986 29.4558C44.4404 31.6328 45.3248 33.695 46.3052 35.6597L47.3423 37.4593C47.4491 37.6194 47.5166 37.7278 47.6255 37.8851L48.5441 39.095C48.5441 39.2903 48.1535 39.8031 48.0372 39.9589C47.9304 40.1006 47.8693 40.1996 47.7597 40.3443C47.3159 40.9313 47.2717 41.1635 46.9553 41.6205C46.6057 42.1274 46.3841 42.1206 45.8007 42.1206C45.0853 42.1206 43.6338 41.502 42.9552 41.2287C42.5977 41.0851 41.9054 40.9039 41.7501 40.5428C41.4921 39.9426 41.4963 39.0455 41.4963 38.3384C41.4963 37.8131 42.5877 37.6766 43.0526 37.5303C44.5198 37.0665 44.2293 34.9296 43.6043 34.7669C42.9194 34.5884 39.1714 34.6157 38.4333 34.7579C37.7299 34.8937 37.5325 37.0464 38.8745 37.5077C40.5319 38.0762 40.5029 37.6825 40.5029 38.9055C40.5029 39.4319 40.4213 40.1332 40.2523 40.4991C40.0602 40.9145 39.6963 40.9666 39.0772 41.2157C38.3818 41.4946 36.9013 42.1206 36.1985 42.1206C35.0723 42.1206 35.1629 41.7405 34.5343 40.7587C32.9786 38.3263 33.1407 40.0116 34.966 36.9654C35.6446 35.834 36.548 34.0156 36.985 32.7905C37.1003 32.4668 37.2061 32.2245 37.3161 31.8919C37.6274 30.951 38.3691 28.7872 38.0032 27.8844C37.8695 27.5547 37.6494 27.4621 37.1935 27.4652C36.3886 27.4706 35.671 27.3242 34.8271 27.3242H32.9354C32.6243 27.3242 32.5048 27.3905 32.3199 27.5136C32.3952 27.8338 33.4456 28.7709 33.8051 29.0078C34.4037 29.4022 34.5711 29.4469 35.3593 29.2737L36.3886 29.1199C36.9087 29.0573 37.1709 28.8635 36.3612 30.7957C36.0253 31.5965 35.3614 32.939 34.9428 33.6323C34.0125 35.1712 33.8514 35.355 32.6326 33.536C31.6619 32.0882 30.6653 29.3221 30.6653 27.5606C30.6653 26.5986 31.2908 25.9806 32.0678 25.5594C32.2099 25.4816 32.2805 25.4231 32.43 25.3541C33.6572 24.786 35.2229 24.299 36.577 24.299C37.5741 24.299 38.247 24.5007 39.0072 24.7539C40.1417 25.1314 40.337 25.4694 40.8414 25.6647L41.0494 25.6953C41.3378 25.651 42.0486 25.0656 42.8499 24.8008C44.5151 24.2512 45.5676 24.1195 47.3333 24.5633C47.9125 24.7092 48.5705 24.915 49.0775 25.1361C51.404 26.1491 51.772 27.0752 50.9507 29.8718M36.8134 44.3418C36.8134 44.0633 37.3629 43.6858 37.5557 43.5242C37.8759 43.2546 38.0869 43.0746 38.4686 42.8761C40.3002 41.9248 41.6748 41.9395 43.499 42.8603C43.6806 42.9519 43.8407 43.0583 44.0013 43.162C44.144 43.2546 44.3014 43.4031 44.443 43.5242C45.1743 44.1454 45.6675 44.2228 44.4173 45.4648C43.9808 45.898 43.8165 46.3277 43.2463 46.3277C43.1152 46.3277 41.7838 45.6932 40.9783 45.7148C40.6392 45.7237 40.0691 45.8744 39.7553 45.9585C38.9957 46.164 38.6603 46.6525 38.0542 45.9859L37.6057 45.4885C37.373 45.2563 36.8134 44.6803 36.8134 44.3418M60.9831 26.0012C60.7504 25.8453 60.522 25.6852 60.2587 25.5431C59.4405 25.1046 58.6108 24.7629 57.7269 24.4338C57.4241 24.3207 54.4412 23.3514 54.1722 23.1645L58.1444 22.8323C59.0162 22.8355 59.7811 22.9581 60.5577 23.0224C60.5008 22.3426 59.628 20.3106 59.1058 19.8409C58.7361 19.5092 57.0261 19.6398 56.5707 19.6998C54.9771 19.9088 53.4208 20.1836 51.9194 20.6764C51.6409 20.7681 50.6975 21.1139 50.4832 21.1318C50.6965 20.8128 51.0576 20.5938 51.3619 20.3553C52.3105 19.6135 53.375 18.9728 54.4559 18.4368C54.9414 18.1962 55.4741 17.9019 56.0169 17.7755L54.5881 17.2654C54.3174 17.1912 54.111 17.1506 53.8226 17.0854C53.104 16.9222 52.2252 16.6173 51.4755 16.6378C51.0475 16.65 50.3895 16.9911 50.102 17.1591C49.9173 17.267 49.7192 17.3671 49.5208 17.4755C49.2986 17.5971 49.1286 17.7023 48.9243 17.8251C48.5347 18.0594 48.1778 18.3284 47.7966 18.5885C47.5239 18.7737 46.253 19.7378 45.9824 20.0846C45.8792 20.2173 45.8992 20.2305 45.7534 20.3279C45.8224 19.4966 46.8116 17.7835 47.2944 17.0469C47.4449 16.8173 47.8598 16.2936 47.8819 16.0267C47.7018 15.9403 47.0079 15.8624 46.7195 15.8177C46.3777 15.765 43.8644 15.346 43.688 15.3854C43.4595 15.437 43.1084 15.8614 42.9694 16.0335C42.8625 16.1666 42.7599 16.2714 42.6425 16.4157C42.4187 16.6895 42.2355 16.9349 42.0233 17.2148C41.7112 17.6265 41.1415 18.5442 41.023 19.0517C40.9793 19.0017 41.0236 19.0675 40.9625 18.9707L40.8009 18.6126C40.466 17.8272 39.9306 17.1222 39.4 16.4668L38.9208 15.9066C38.2781 15.1348 38.2001 15.3949 36.5638 15.6344C36.0842 15.705 34.3901 15.8956 34.1173 16.0267C34.1447 16.3515 34.5401 16.7573 34.7128 17.039C35.1261 17.7139 35.5404 18.3837 35.8479 19.1186C35.962 19.3918 36.2216 20.0352 36.2459 20.3279C36.052 20.1984 36.0211 20.0441 35.8005 19.8751L34.7733 19.0112C33.9567 18.4005 31.5624 16.7221 30.6163 16.6411C29.8208 16.5736 27.6291 17.2354 26.711 17.4639C26.4251 17.535 26.2355 17.6224 25.9823 17.6813V17.7755C26.2866 17.8466 26.5062 17.9482 26.7698 18.0757L28.6109 19.0249C28.7432 19.1027 28.8484 19.1544 28.9716 19.2312C29.6344 19.6462 31.1033 20.5158 31.5166 21.1318C31.2617 21.1108 30.3793 20.777 30.1157 20.6885C28.6036 20.1816 25.3353 19.4471 23.7458 19.653C23.4531 19.6903 23.132 19.6635 22.9446 19.7972C22.4033 20.1826 21.4941 22.3896 21.4415 23.0224C21.6779 23.0029 21.9348 22.9497 22.1975 22.9271L23.8074 22.8323C24.5703 22.8303 26.214 22.9803 27.0142 23.0788C27.2627 23.1088 27.5343 23.1645 27.827 23.1645C27.776 23.1998 27.8329 23.1709 27.7349 23.2146L27.4285 23.3335C27.2632 23.3972 27.1147 23.4409 26.9694 23.4893C24.9372 24.1658 22.7998 24.8071 21.0156 26.0012C21.0156 26.2996 21.0213 26.6029 21.0177 26.9014C21.0145 27.1941 20.9682 27.3952 20.9688 27.75C20.9693 28.0491 20.9698 28.3492 20.9688 28.6483C20.9672 29.0073 21.0156 29.1832 21.0156 29.499C21.1757 29.4858 23.3273 28.563 23.659 28.4529C24.5177 28.1681 25.7012 27.7027 26.5972 27.7027L23.7654 29.7886C23.2673 30.1861 21.3335 31.7623 21.1888 32.1293C21.112 32.3235 21.1904 33.4239 21.2051 33.706L21.3467 35.2185L24.773 32.9706C25.1932 32.7189 26.5609 31.8645 26.9758 31.7681C26.8173 32.0045 26.2577 32.5115 26.0175 32.7484L24.8403 33.983C24.464 34.453 23.7512 35.1675 23.2457 35.7929C22.5381 36.6685 22.4555 36.7479 21.7989 37.7035C21.5832 38.0179 21.7289 38.2916 21.8479 38.8786L22.3402 41.3168C22.5034 41.2731 22.8967 40.8508 23.0098 40.7091C23.6121 39.9542 24.8878 38.8434 25.6159 38.1142L26.8137 37.0423C27.1236 36.7996 27.3296 36.5759 27.7323 36.3062C27.6933 36.4737 27.4691 36.8012 27.3685 36.9822L24.5798 41.7584C24.504 41.9085 24.4655 41.9479 24.3897 42.0885L23.4758 43.8701C23.4094 44.0191 23.172 44.5229 23.1551 44.6382C23.1073 44.9546 23.9716 47.519 24.0902 48.0292C24.2413 47.9281 24.4945 47.43 24.6198 47.2347L27.5027 43.3089C27.7081 43.0514 28.5462 41.9205 28.7257 41.7894L24.8936 50.0456L26.107 53.6425L30.8377 46.06L26.6961 55.0836L28.4734 59.0984L33.6146 49.0703L29.2806 60.0456L30.6653 62.7777L36.1551 51.02C36.1551 51.02 31.9519 64.0239 31.863 64.2123C31.7603 64.4298 35.6531 67.0295 35.8678 67.0795C35.8678 67.0795 39.2245 56.6622 39.4687 56.3811L38.4775 67.8276L43.061 67.935L43.1507 56.3811L46.1314 67.0795C46.652 66.9584 50.4039 64.5342 50.4039 64.5342L46.0961 50.7272L51.2395 63.2753L53.4598 60.0513L48.8575 49.0151L54.2339 58.3788L55.8599 54.8562L50.8457 46.088C51.0132 46.1328 56.1524 52.9156 56.1524 52.9156L57.289 49.8067L52.8415 41.2004C53.1979 41.4389 57.909 47.9824 57.909 47.9824C57.9643 47.7428 58.0707 47.4359 58.1513 47.1842C58.2791 46.784 58.8667 44.824 58.8425 44.6351C58.8088 44.367 57.5053 41.9163 57.4205 41.7573C57.0457 41.0598 54.3059 36.4737 54.2669 36.3062C54.6275 36.548 54.8581 36.7785 55.1587 37.0218L58.9768 40.6749C59.1025 40.8376 59.4764 41.2682 59.659 41.3168L60.3056 38.081C60.3545 37.7146 59.8054 37.1482 59.6122 36.8728C58.7798 35.6887 57.2873 34.1145 56.2169 33.0332C56.1011 32.9163 56.0832 32.8653 55.9811 32.7495C55.7152 32.4472 55.223 32.0655 55.0234 31.7681C55.809 31.9508 59.2605 34.273 59.9523 34.7358C60.1881 34.8937 60.3829 35.0701 60.6051 35.2185C60.7336 34.9511 60.8905 32.4846 60.8315 32.203C60.7673 31.8929 59.9249 31.2563 59.6238 30.9521C59.5227 30.8494 59.5111 30.8452 59.3953 30.7551L55.402 27.7027C55.8406 27.7027 56.536 27.9038 56.9446 28.0049C57.6395 28.1766 58.3398 28.4408 59.004 28.6882C59.3526 28.8178 60.783 29.4822 60.9831 29.499L61.032 27.7954C61.0289 27.5016 60.9826 27.301 60.9831 26.9462C60.9837 26.6314 60.9831 26.316 60.9831 26.0012" fill="#1D1D1B"/>
<mask id="mask0_0_24771" style="mask-type:luminance" maskUnits="userSpaceOnUse" x="25" y="0" width="32" height="14">
<path fill-rule="evenodd" clip-rule="evenodd" d="M25.7686 0H56.1604V13.5671H25.7686V0Z" fill="white"/>
</mask>
<g mask="url(#mask0_0_24771)">
<path fill-rule="evenodd" clip-rule="evenodd" d="M28.5029 8.92056L29.0072 9.6461C29.7495 10.8895 30.5013 12.4053 31.2794 13.5672C31.8006 13.5672 35.9997 12.9907 36.3672 12.9318C37.615 12.7306 38.7511 12.5601 39.9177 12.1789C40.5453 11.9741 41.0197 11.8751 40.567 11.0923C40.4196 10.838 40.1357 10.5911 39.8867 10.4484C39.7545 10.3726 39.5504 10.3315 39.4618 10.2109C39.942 10.171 40.4848 9.58335 40.7196 9.19805C40.8086 9.05215 40.9107 8.82744 41.0228 8.74528C41.036 8.90002 41.1714 9.10431 41.2492 9.22855C41.5182 9.65967 41.97 10.0899 42.4891 10.2109C42.3975 10.3363 41.2123 10.7721 41.2123 11.5819C41.2123 12.0352 41.7041 12.0714 42.0331 12.1789C42.7839 12.4237 43.5489 12.5875 44.3338 12.7159C44.7434 12.7833 45.1761 12.8801 45.5774 12.9386C46.4144 13.0613 47.2709 13.1676 48.0839 13.2698C48.5303 13.3256 48.9536 13.3671 49.3563 13.4166C49.7743 13.4682 50.2297 13.5672 50.6714 13.5672C51.8649 11.7856 52.5336 10.0177 53.9203 8.30507L54.9874 6.95994C55.1218 6.79674 56.3226 5.26213 56.142 5.17997C55.9494 5.09207 53.4465 6.26404 53.1696 6.46721C52.5826 6.89683 53.3807 7.38122 52.8 7.51642C52.671 7.2464 52.651 7.11008 52.4098 6.91363C51.2775 5.99501 49.7897 7.73914 50.9268 8.63261C51.1537 8.81101 51.3353 8.98168 51.7123 8.98168C51.5986 9.46969 51.5007 9.80507 51.1532 10.0772C49.9581 11.0144 47.7111 10.5194 47.4211 8.92218C47.3247 8.39409 47.4447 8.28565 47.4558 7.79976C48.1101 7.79976 48.7804 7.15527 48.7804 6.5236V6.14552C48.7804 5.55805 48.0902 4.86936 47.5026 4.86936H47.172C46.5545 4.86936 45.8474 5.61481 45.8474 6.23976C45.8474 6.8179 46.0616 7.46588 46.6045 7.61128C46.6045 7.99086 46.5292 8.09817 46.3691 8.32138C45.5363 9.48177 43.4067 9.57551 42.4053 8.59252C40.9876 7.20059 41.8883 5.67283 42.6786 5.67283C43.5078 5.67283 43.4525 5.90911 43.8137 5.90911C44.3054 5.90911 43.5704 4.58664 43.2677 4.3277C42.9986 4.09863 42.9197 4.06178 42.4433 4.0644C41.9752 4.06701 41.7915 4.12179 41.4962 3.92385C41.6757 3.58473 41.931 3.5363 42.0447 3.10096C42.2395 2.35388 41.8294 1.60059 41.5125 0.976138C41.3509 0.659182 41.0703 0.379574 41.0703 0H40.9286C40.8859 0.515519 39.8877 1.53685 39.8877 2.64719C39.8877 2.95244 39.9099 3.25309 40.0958 3.47954L40.2379 3.62108L40.2616 3.64486L40.4553 3.92385C39.8877 4.30342 39.2549 3.76537 38.6696 4.36031C38.2695 4.76728 37.9956 5.27059 37.9956 5.90911C38.5969 5.90911 39.017 5.42322 39.6903 5.82284C40.438 6.26553 40.4232 7.28014 40.0452 7.95712C39.635 8.69311 38.9254 9.2654 37.9483 9.2654H37.5702C36.6036 9.2654 35.3722 8.52518 35.3001 7.65809C36.8174 6.85525 35.9524 4.86936 34.7795 4.86936H34.4483C33.8607 4.86936 33.1715 5.55805 33.1715 6.14552V6.5236C33.1715 7.15689 33.8555 7.79976 34.4956 7.79976C34.5119 7.99347 34.5899 8.26511 34.5899 8.46206C34.5899 9.60974 33.6054 10.5416 32.4619 10.5416C31.777 10.5416 31.3368 10.4648 30.8325 10.0904C30.456 9.8108 30.3412 9.42077 30.2391 8.98168C31.1683 8.98168 31.8559 7.77387 31.1273 7.05319C30.5998 6.53095 29.7022 6.51041 29.3062 7.19897C29.223 7.34375 29.2194 7.43177 29.104 7.51642C29.0404 7.48069 29.0514 7.49015 28.962 7.46911C28.8534 7.00526 29.2405 6.98372 28.904 6.58199C28.6328 6.25931 27.3346 5.77441 26.8644 5.54746C26.5849 5.41214 26.2885 5.26848 25.9774 5.19366C25.7262 5.13316 25.7331 5.1969 25.8341 5.38737C26.2727 6.21922 27.7821 7.96397 28.5029 8.92056" fill="#1D1D1B"/>
</g>
<mask id="mask1_0_24771" style="mask-type:luminance" maskUnits="userSpaceOnUse" x="16" y="9" width="50" height="65">
<path fill-rule="evenodd" clip-rule="evenodd" d="M16 9.21094H66V73.9841H16V9.21094Z" fill="white"/>
</mask>
<g mask="url(#mask1_0_24771)">
<path fill-rule="evenodd" clip-rule="evenodd" d="M65.3551 21.3955C64.9493 19.9694 64.2806 18.5716 63.334 17.4591C63.2524 17.3639 63.2135 17.3412 63.1318 17.2359C63.0345 17.1112 63.0208 17.0921 62.9112 16.9842C60.9038 15.001 58.5431 13.8569 55.9292 12.8056C55.5112 12.6377 54.2665 12.3165 54.2665 11.867C54.2665 11.5273 55.0232 11.3768 55.0232 10.7798C55.0232 10.5091 54.7915 10.0801 54.693 9.88107C54.5372 9.56735 54.1613 8.93032 53.7844 9.35247C53.4316 9.74898 52.7957 10.8145 52.5077 11.2909C52.2971 11.6395 51.263 13.3821 51.2394 13.6632C51.5963 13.6632 53.697 14.1229 54.0492 14.2119C55.618 14.6073 57.0385 15.0485 58.461 15.7586C58.679 15.8676 58.8011 15.955 59.0123 16.0592C59.4065 16.254 59.7171 16.4619 60.0993 16.6742C61.2481 17.3096 62.2558 18.6679 62.8434 19.8398C62.9471 20.0467 63.0218 20.2236 63.1103 20.4247C64.1838 22.8523 64.1831 25.8232 64.2001 28.744L63.5988 36.4626C63.2203 39.3286 62.8812 41.5025 62.2316 44.3617C61.8309 46.1223 61.2191 48.5367 60.7158 50.2677C60.5384 50.8783 57.4606 71.3845 40.8264 71.3845C24.1924 71.3845 20.8836 48.7764 20.8836 48.7764C19.6006 43.7354 18.7505 40.3771 18.2208 34.8455C18.1707 34.3216 18.0792 33.7115 18.0386 33.1834C18.0145 32.8586 18.0039 32.6616 17.9886 32.3358C17.9781 32.1268 17.946 32.1389 17.9402 31.9114C17.9354 31.7504 17.9503 31.6114 17.9281 31.4508L17.798 27.04L17.8944 25.0084C17.9486 23.8886 18.1608 22.6803 18.4335 21.719C18.771 20.5313 19.1611 19.7857 19.766 18.796C20.8352 17.0439 22.3952 16.3505 24.0909 15.5072C24.9717 15.0691 25.6687 14.8717 26.568 14.5795C27.4978 14.2769 29.0165 13.9651 30.0227 13.7776C30.2943 13.7277 30.4644 13.6635 30.7592 13.6635C30.7435 13.4755 30.5803 13.1928 30.4908 13.0338C29.8859 11.954 29.1582 10.6742 28.4612 9.67279C28.1085 9.16636 27.7999 8.89049 27.3213 9.8492C27.2134 10.0666 26.9755 10.5056 26.9755 10.78C26.9755 11.3448 27.732 11.5824 27.732 11.8203C27.732 12.3378 26.5954 12.5936 26.1373 12.7785L24.3584 13.5534C22.8632 14.2495 22.4236 14.4474 21.0248 15.375C19.8271 16.1689 19.6334 16.4428 18.7336 17.3862C18.3946 17.7415 17.9276 18.4606 17.6775 18.8834C16.0891 21.56 15.9965 25.1648 16.0001 28.4609L16.2386 32.7138C16.2849 34.2006 16.9725 39.401 17.2047 40.7772C17.4864 42.445 17.7533 43.6886 18.0871 45.2838C18.1903 45.7787 18.3077 46.2473 18.4241 46.7442L19.0805 49.6804C19.18 50.1589 22.4642 73.9841 41.1652 73.9841C59.8662 73.9841 63.5662 46.782 63.5662 46.782C64.0468 44.6697 64.4191 43.0092 64.7871 40.8176C64.8771 40.2811 64.9287 39.783 65.0171 39.2513L65.4335 36.0741C65.4841 35.5539 65.5562 34.9685 65.6104 34.4547L65.8069 31.9565C65.8121 31.7406 65.8379 31.7548 65.8521 31.5769C65.8641 31.4253 65.8447 31.2611 65.8573 31.1095C66.0969 28.167 66.0991 24.0095 65.3551 21.3955" fill="#1D1D1B"/>
</g>
<path fill-rule="evenodd" clip-rule="evenodd" d="M10.7266 56.4811C10.7266 56.4811 24.6851 50.7461 40.9255 50.7461C57.1658 50.7461 70.5586 56.4811 70.5586 56.4811L65.567 62.9981L64.8749 72.3207C64.8749 72.3207 51.7551 67.2794 40.9255 67.2794C30.0959 67.2794 16.7467 72.3207 16.7467 72.3207L15.4855 62.9981L10.7266 56.4811Z" fill="white"/>
<path fill-rule="evenodd" clip-rule="evenodd" d="M74.4683 67.5631C74.0709 67.2639 73.6884 67.038 73.2674 66.7625L69.5368 64.5553C69.0289 64.2722 67.5718 63.4205 67.0891 63.0008C67.4255 63.0083 67.9438 63.237 68.2327 63.3915C69.4321 64.028 69.9625 64.2656 71.2554 65.0388C72.0679 65.526 74.405 66.9741 75.0861 67.4785C75.7545 67.9753 76.1772 68.2108 76.9079 68.7922C77.5867 69.3328 77.2012 69.2697 76.697 69.2697C75.8793 69.2697 75.5288 68.3629 74.4683 67.5631ZM70.359 70.6021C69.9 70.7981 69.825 70.9713 69.825 71.8037C69.825 74.0771 70.4193 75.662 70.492 76.5383C70.2491 76.375 69.8413 75.6218 68.2989 75.0619C67.4543 74.7558 60.4836 72.7053 60.4836 71.8699C60.4836 71.4012 60.6345 71.4695 61.2175 71.4695C61.6371 71.4695 62.2944 71.6938 62.633 71.789C64.4569 72.2977 65.1373 72.8852 65.6274 70.4098L65.9535 66.3333C65.9512 65.9492 66.0025 65.8452 66.0196 65.5326C66.1318 63.4895 66.2015 63.8251 69.7805 65.7785C71.0014 66.4446 73.3601 67.8884 74.2201 68.9436C74.3947 69.1584 74.4867 69.1561 74.4957 69.5363C74.1718 69.5363 71.86 70.0518 71.6171 70.1276C71.1493 70.2723 70.7765 70.4246 70.359 70.6021ZM61.1423 74.2783C60.5839 74.0757 60.0588 73.8728 59.501 73.6515L57.8813 72.9371C58.1049 71.9799 58.8639 72.3525 59.3614 72.6579C59.9132 72.9965 60.3872 73.2007 60.9947 73.4926C62.7213 74.3213 65.2992 74.9706 67.6045 75.9569C67.8072 76.0445 67.8718 76.0505 68.0627 76.1648C68.9033 76.6669 70.2997 77.4963 70.5587 78.6051C70.1012 78.2992 70.1095 78.1803 69.2375 77.6575C67.1581 76.4143 63.481 75.125 61.1423 74.2783ZM42.2013 66.7939C41.5989 66.7939 41.186 66.8622 40.5333 66.8622C39.916 66.8622 39.4682 66.7932 38.9334 66.7939C37.5492 66.7962 35.4481 66.9767 34.1307 67.0651C30.5702 67.3027 23.6922 68.9322 20.3636 70.2437C19.9381 70.4116 19.5779 70.5326 19.1634 70.7109C18.7706 70.8802 18.3607 71.1297 17.8474 71.1297C17.4791 71.1297 17.2206 71.0747 17.1805 70.5965C18.0198 70.1524 21.3692 68.9456 22.2427 68.6537C25.3848 67.6079 30.3028 66.4316 33.7972 66.1975C34.3059 66.1642 34.9 66.0646 35.3946 66.0609L40.4671 65.8619L47.1392 66.1947C48.442 66.2511 51.9815 66.8236 53.224 67.1155C55.409 67.6302 56.5795 67.9117 58.7243 68.6201C59.6243 68.9187 60.4392 69.2388 61.3259 69.5544C61.7663 69.7112 62.1502 69.8626 62.5706 70.0439C62.9909 70.2258 63.4433 70.3974 63.8198 70.5965C63.7336 71.6341 62.3002 70.9107 61.8762 70.7383C57.1773 68.8274 52.0128 67.6992 46.987 67.0807C45.9421 66.9521 43.3228 66.7939 42.2013 66.7939ZM21.5846 73.6033C21.0402 73.8194 20.4721 74.0504 19.8914 74.2464L14.9102 76.1365C13.8577 76.5977 12.8002 77.0255 11.7969 77.6256L10.4415 78.6052C10.6487 77.7162 11.8868 76.7596 12.6881 76.3163C14.4118 75.3612 17.2028 74.6445 19.2683 73.8224L21.572 72.7246C21.8616 72.5494 22.1015 72.3362 22.452 72.3362C22.7269 72.3362 23.0521 72.5606 23.0521 72.8033C23.0521 73.0752 21.8319 73.506 21.5846 73.6033ZM6.78003 68.9445C7.22346 68.3592 8.51652 67.4836 9.12029 67.0819C10.1578 66.3912 13.8303 64.1542 14.7119 64.1342C14.7623 64.3511 14.8009 64.3399 14.8619 64.585C15.2214 66.0295 14.9472 70.3742 15.7805 71.7354C16.5961 73.0662 17.8823 71.4695 20.25 71.4695C20.4675 71.4695 20.5165 71.6277 20.5165 71.8037C20.5165 72.3214 18.7416 72.9779 18.2195 73.1755C17.3052 73.523 16.4142 73.8252 15.5036 74.129C14.2551 74.5449 12.5195 74.9646 11.4953 75.6567C10.6859 76.2025 10.7386 76.369 10.5084 76.5383C10.6926 75.7489 11.4693 72.0793 11.0928 70.9527C11.0171 70.7284 10.8433 70.7001 10.5983 70.5798C9.14857 69.8661 6.99024 69.7028 6.50449 69.4696C6.52609 69.2095 6.65095 69.1161 6.78003 68.9445ZM4.23641 69.2697L3.70324 69.2028C3.9988 68.7603 5.45747 67.7888 5.99731 67.4286C7.76787 66.2493 12.6814 63.0974 13.8444 63.0008C13.5815 63.3922 10.8842 64.8679 10.1779 65.2718L8.91904 66.0138C5.07937 68.3295 5.85172 68.4134 4.98207 69.0149C4.77485 69.1584 4.56463 69.2697 4.23641 69.2697ZM63.8421 69.6979C62.3262 68.9902 60.2297 68.2728 58.607 67.7277C55.3124 66.6202 51.7722 65.9608 48.2451 65.4796L44.1388 65.1164C35.9339 64.8713 29.3694 65.3807 21.6767 67.9446C20.7914 68.2385 19.9774 68.535 19.1344 68.8722L16.6465 69.8531C15.996 69.236 16.4468 65.9864 16.4468 64.3348C16.4468 63.4465 16.3859 62.6065 15.9528 61.8942C15.6128 61.3358 15.2407 60.9615 14.795 60.5165C14.5344 60.2559 13.4178 58.5428 13.5105 58.1655C13.5938 57.832 14.9748 57.194 15.2911 57.0174C15.5586 56.8674 15.8095 56.7499 16.0896 56.6156C16.3806 56.4759 16.6814 56.343 16.9703 56.2287C17.8006 55.8959 18.8828 55.4437 19.7442 55.2001C22.4757 54.4254 23.6655 54.0192 26.7708 53.4206C28.1759 53.1494 29.6286 52.9548 31.1636 52.7418C31.9657 52.6312 35.0247 52.3028 35.7303 52.3051C36.1745 52.3066 36.4231 52.2345 36.9305 52.2374C38.0067 52.2441 39.2216 52.0541 40.537 52.1669C41.2461 52.2287 42.2629 52.1721 43.004 52.1691L49.9614 52.7506C53.0004 53.151 55.7432 53.6678 58.4294 54.3571C59.7566 54.698 60.9723 55.0945 62.2601 55.529C62.7347 55.6895 67.4266 57.5813 67.4896 58.2823C67.5313 58.7488 66.4236 60.2989 66.1384 60.5834C65.2725 61.4471 64.5535 62.3584 64.5535 64.068C64.5535 65.3165 64.6872 67.8703 64.6872 69.1194C64.6872 69.7945 64.3796 69.949 63.8421 69.6979ZM13.1396 57.2281C12.925 57.3572 12.6755 57.5451 12.4429 57.5994C12.307 57.508 12.1096 57.2718 12.1096 57.0662C12.1096 56.7378 12.4289 56.6828 12.6644 56.5537L14.8002 55.4879C18.6912 53.6743 23.982 52.3769 28.3622 51.7032C38.8087 50.0955 49.7438 50.4734 59.6965 53.1842C60.8773 53.5064 61.8977 53.8385 63.0109 54.2068C64.0314 54.5447 65.1455 54.9925 66.1109 55.4426C66.6493 55.6952 68.8907 56.5975 68.8907 57.0662C68.8907 57.2882 68.6538 57.5221 68.5572 57.6663C67.7092 57.0989 66.8313 56.6711 65.888 56.1993C64.1317 55.3209 61.764 54.5047 59.8538 53.9602C57.5122 53.2948 55.472 52.8633 53.0204 52.4556C51.8352 52.2589 50.54 52.1057 49.3213 51.9514C48.2184 51.8109 46.5318 51.7552 45.5188 51.6163L41.4675 51.4649C34.3259 51.4649 27.9574 52.039 21.1842 53.932C18.7246 54.619 17.4947 55.1894 15.1404 56.16L13.1396 57.2281ZM76.2032 66.3622C74.1267 65.0023 71.6935 63.5645 69.4471 62.4453C69.1276 62.2864 68.8566 62.152 68.5572 61.9998C68.3456 61.8935 67.8568 61.655 67.6229 61.6001C67.6229 60.7506 68.2557 60.3622 68.7191 59.7614C69.037 59.3476 69.6573 58.9495 70.2148 58.2567C70.515 57.8846 70.9085 57.6046 70.9591 56.9993C70.7266 56.9369 70.7765 56.9116 70.6079 56.7497C70.4904 56.6391 70.4036 56.5811 70.2728 56.4838C68.8923 55.4605 67.0957 54.7082 65.4974 54.0561C65.2612 53.9602 64.8833 53.7174 64.6872 53.6654C64.699 53.5219 52.1527 49.7452 39.7558 49.75C27.9698 49.7546 16.3022 53.5337 16.313 53.6654C15.9307 53.7672 12.6651 55.3409 12.221 55.5763L10.7267 56.4838C10.4971 56.6531 10.3085 56.9273 10.0412 56.9993C10.0886 57.5741 10.4564 57.8666 10.7556 58.2202C11.0758 58.5983 11.3483 58.9295 11.7285 59.2466C12.3539 59.7687 13.3772 60.7313 13.3772 61.6001C12.7364 61.7502 12.1354 62.155 11.554 62.4453C11.2168 62.6132 11.0089 62.7521 10.6873 62.9124C10.3501 63.081 10.1415 63.2013 9.82065 63.3803C7.27246 64.8056 4.7601 66.2493 2.4251 67.993C2.16818 68.1846 0.616609 69.3521 0.5 70.0154V70.1594C0.53126 70.3103 0.675265 70.4193 0.982066 70.4595C1.213 70.4892 1.43428 70.403 1.76777 70.403C3.14548 70.403 4.4756 70.5539 5.77305 70.868C6.6643 71.084 7.48864 71.2988 8.33529 71.6411C8.63313 71.7614 8.86249 71.8639 9.17456 71.9367C9.17456 72.2598 9.24059 72.5086 9.22268 72.718L9.02809 75.1919C8.79347 77.0998 8.53127 79.2818 8.80172 81.2454C8.96733 82.4529 9.12995 82.4975 10.1243 81.6219C10.4244 81.3576 10.6123 81.0841 10.9369 80.8339C11.8801 80.1046 12.5982 79.5061 13.6313 78.8591C15.3187 77.8008 17.1663 77.0945 19.0394 76.3943C20.9147 75.694 22.9511 75.1316 24.836 74.386C25.0618 74.2962 25.1806 74.2316 25.3797 74.129C26.4506 73.5743 24.8413 72.0875 24.3682 71.688C23.9337 71.3225 22.585 71.4462 22.585 70.7962C22.585 70.3974 23.1547 70.396 23.4525 70.396C24.016 70.396 27.4111 67.993 40.537 67.993C53.6628 67.993 58.2719 70.5756 58.4814 70.7295C58.2935 71.5368 57.2656 71.214 56.6952 71.6841C56.1383 72.1455 55.279 72.9319 55.279 73.7369C55.279 74.288 59.0838 75.4168 59.6443 75.5765C60.9931 75.9583 62.9612 76.7225 64.2179 77.2736C66.0211 78.063 67.6192 78.9283 69.1863 80.1098C69.9386 80.6765 70.5766 81.3337 71.2763 81.9561C72.0033 82.6031 72.0962 81.9917 72.1993 81.2454C72.3932 79.835 72.2818 78.2546 72.1659 76.8651C72.1176 76.2881 72.0463 75.754 71.9796 75.2505C71.8421 74.2077 71.8763 73.5179 71.785 72.7729C71.7538 72.5144 71.8265 72.2932 71.8265 71.9367C72.3272 71.82 73.8139 71.2103 75.228 70.868C75.7754 70.7358 76.5181 70.6081 77.1032 70.5412C77.8006 70.4632 78.4639 70.403 79.2326 70.403C79.5659 70.403 79.7873 70.4892 80.0183 70.4595C80.3242 70.4193 80.4691 70.3103 80.5003 70.1594V70.0154C80.3837 69.3521 78.8322 68.1846 78.5752 67.993L76.2032 66.3622Z" fill="#3A230B"/>
<path fill-rule="evenodd" clip-rule="evenodd" d="M46.5753 54L45.1734 56.9979L41.7821 56.9821L44.2744 59.2135L43.1494 62.4425L46.113 60.7495L48.7878 62.835L48.1483 59.4831L50.905 57.6172L47.5678 57.1647L46.5753 54ZM34.426 54L33.435 57.1662L30.0959 57.6172L32.8554 59.4818L32.2136 62.835L34.8877 60.7462L37.8519 62.4425L36.7237 59.2124L39.2192 56.9821L35.8261 56.9999L34.426 54ZM21.6538 59.3297L18.5 60.3093L21.4373 61.795L21.4112 65.1329L23.7253 62.7619L26.9184 63.8672L25.3559 60.8942L27.411 58.261L24.076 58.7728L22.2083 56.0621L21.6538 59.3297ZM57.0333 58.8919L53.6262 58.1879L55.8089 60.8423L54.0205 63.8017L57.2938 62.6045L59.5047 65.1631L59.4358 61.7427L62.5 60.3907L59.2749 59.4483L58.8668 56.0798L57.0333 58.8919Z" fill="#CE8D3B"/>
<defs>
<linearGradient id="paint0_linear_0_24771" x1="81.0896" y1="34.5414" x2="44.3188" y2="-4.70095" gradientUnits="userSpaceOnUse">
<stop stop-color="#BC915B"/>
<stop offset="0.453818" stop-color="#F2CB99"/>
<stop offset="1" stop-color="#B98E58"/>
</linearGradient>
</defs>
</svg>
