<svg width="218" height="56" viewBox="0 0 218 56" fill="none" xmlns="http://www.w3.org/2000/svg">
<path fill-rule="evenodd" clip-rule="evenodd" d="M198.224 33.7825C197.679 33.2308 197.449 32.5709 197.449 31.7791C197.449 31.744 197.449 31.6256 197.449 31.4969L197.449 31.2941C196.362 32.2461 194.755 32.239 193.698 31.2188C193.214 30.7352 192.914 30.0118 192.914 29.249C192.914 29.191 192.914 29.0782 192.913 28.924C192.913 28.6939 192.912 28.3717 192.911 28.0015L187.908 33.0044C187.908 33.0044 187.708 33.2148 187.456 33.366C187.204 33.5173 186.938 33.6162 186.938 33.6162L183.275 34.8038C183.064 34.8812 182.829 34.8289 182.67 34.6699C182.511 34.511 182.458 34.2748 182.535 34.0641C182.535 34.0642 183.721 30.4074 183.721 30.4074C183.721 30.4074 183.798 30.1538 183.953 29.8943C184.108 29.6347 184.332 29.4332 184.332 29.4332L189.652 24.1132C189.652 24.1132 188.73 24.143 188.047 23.46C187.876 23.2888 187.725 23.093 187.6 22.8772C187.218 22.2176 187.167 21.4317 187.341 20.748C187.341 20.7468 188.55 16.0245 188.613 15.7856C188.795 15.0782 189.053 14.5025 189.489 13.8794C189.597 13.7248 190.982 11.8032 192.283 10H3C2.48716 10 2.06449 10.386 2.00673 10.8834L2 11V53C2 53.5128 2.38604 53.9355 2.88338 53.9933L3 54H210C210.513 54 210.936 53.614 210.993 53.1166L211 53V27.6969C210.172 27.3592 209.543 27.2426 208.508 27.2148C207.925 27.1988 207.059 27.3527 207.059 27.3527L203.938 27.8624C205.314 29.2373 206.506 30.4278 206.627 30.549C207.135 31.0572 207.242 31.7114 207.246 32.3243C207.245 33.0252 206.98 33.6644 206.519 34.1253C205.991 34.6529 205.202 34.9256 204.582 34.9548C203.962 34.9839 203.422 34.7503 202.779 34.1066C202.73 34.0576 202.568 33.8956 202.249 33.7358C201.011 34.9566 199.346 34.876 198.224 33.7825ZM3 8H193.727C194.175 7.38018 194.499 6.9323 194.582 6.81955C194.634 6.74863 194.902 6.42185 194.957 6.36697C195.621 5.67332 196.287 5.46958 196.863 5.41775C197.426 5.35023 205.789 4.39677 209.828 3.93674L213.586 0.17878C213.671 0.0934896 213.781 0.0374247 213.9 0.0181002C213.996 -0.00551868 215.178 -0.147053 216.309 0.988262C217.44 2.11875 217.34 3.32098 217.325 3.41062C217.309 3.54083 217.252 3.66047 217.16 3.75262L215.112 5.80066L214.209 6.70402L212.077 8.83556C212.646 9.3815 213 10.1494 213 11V53C213 54.6569 211.657 56 210 56H3C1.34315 56 0 54.6569 0 53V11C0 9.34315 1.34315 8 3 8ZM199.533 21.38L210.662 10.2507C210.869 10.4339 211 10.7017 211 11V26.4161C210.232 26.1648 209.37 26.0061 208.278 26.0731C207.526 26.1193 206.888 26.2453 206.888 26.2453C206.888 26.2453 204.776 26.585 203.132 26.848L202.952 26.8769L202.596 26.9336L202.493 26.9499C202.283 26.9835 202.091 27.0142 201.923 27.0407C201.737 27.0704 201.579 27.0953 201.462 27.1137L201.411 27.1215L201.409 27.1219L201.331 27.134L201.278 27.1419L201.243 27.147C200.941 27.1898 200.572 27.2318 199.928 27.2752C199.659 27.2931 199.333 27.2889 199.079 27.2803C198.837 27.2705 198.753 27.2642 198.661 27.2573L198.648 27.2563L198.02 27.2055L197.559 27.168L197.387 27.1542L197.338 27.1502L197.337 27.1501L197.332 27.1497L197.296 27.1468C196.775 27.1045 196.194 27.0575 195.632 27.0122C195.036 26.9643 194.473 26.9192 194.054 26.8862L194.05 26.8859L194.048 26.8857C193.792 26.8658 193.587 26.8499 193.473 26.8418C193.425 26.8378 193.381 26.8311 193.337 26.8243C193.318 26.8214 193.3 26.8185 193.281 26.8159C193.117 26.7929 192.966 26.7623 192.828 26.7114C192.571 26.6164 192.343 26.4628 192.085 26.2049C191.361 25.4793 191.277 24.4688 191.79 23.6583C191.824 23.6036 191.863 23.5503 191.902 23.4972C191.964 23.4124 192.031 23.3293 192.109 23.251C192.203 23.1579 192.28 23.0972 192.359 23.0401L192.373 23.0298L192.373 23.0295C192.412 23.0012 192.451 22.9731 192.491 22.948C192.835 22.7318 193.224 22.6194 193.619 22.6133L197.483 22.6134H198.902C198.919 22.6133 199.226 22.6115 199.586 22.5694C199.862 22.5363 200.164 22.472 200.256 22.4524L200.256 22.4524L200.277 22.448L200.284 22.4466L208.085 20.6217C208.085 20.6217 208.201 20.5965 208.272 20.483C208.344 20.3696 208.307 20.273 208.307 20.273L208.159 19.6703C208.159 19.6703 208.133 19.5695 208.028 19.4982C207.923 19.4268 207.812 19.4668 207.812 19.4668L200.322 21.2188C200.322 21.2188 200.012 21.2914 200.012 21.2915C200.017 21.291 199.756 21.3477 199.533 21.38ZM194.387 30.2199C194.225 30.005 194.12 29.7553 194.078 29.4845C194.066 29.3993 194.054 29.3143 194.053 29.2261L194.054 28.088L194.77 28.1439C195.465 28.1982 196.299 28.2632 196.993 28.3195L197.421 28.3541C197.421 28.4978 197.421 28.6318 197.421 28.7473L197.421 29.2265C197.421 29.7372 197.233 30.0593 196.968 30.3252C196.962 30.3304 196.956 30.3359 196.949 30.3418C196.624 30.6665 196.049 30.8726 195.629 30.874C195.205 30.8756 194.87 30.7317 194.541 30.4039C194.487 30.351 194.442 30.2914 194.396 30.2317L194.387 30.2199ZM202.972 32.582L203.727 33.3369C204.047 33.6417 204.272 33.7197 204.701 33.7299C205.09 33.7294 205.437 33.5742 205.693 33.3191C205.948 33.0629 206.106 32.6899 206.108 32.2999C206.11 31.9342 205.975 31.5896 205.801 31.4233C205.681 31.3026 204.484 30.1072 203.105 28.7294C203.129 30.2282 203.133 31.5457 203.133 31.7588C203.129 32.0334 203.07 32.3127 202.972 32.582ZM198.72 28.4616C198.761 28.4639 198.808 28.4664 198.86 28.4689C199.148 28.4832 199.582 28.4817 199.984 28.4691C200.339 28.4579 200.764 28.4115 201.128 28.3629C201.588 28.302 201.95 28.238 201.95 28.238L201.95 29.3098L201.951 31.5309C201.951 31.6451 201.951 31.7372 201.951 31.7782C201.96 32.1087 201.741 32.5982 201.492 32.8733L201.482 32.8844L201.472 32.8955L201.472 32.8959L201.472 32.896C201.462 32.9073 201.452 32.9186 201.442 32.9284C200.787 33.5806 199.731 33.58 199.079 32.9295C199.072 32.9224 199.064 32.9156 199.057 32.9091C198.755 32.6012 198.585 32.1329 198.589 31.7793C198.589 31.6283 198.59 30.9094 198.589 29.9704C198.589 29.5048 198.589 28.9883 198.589 28.4533L198.634 28.4563C198.659 28.4579 198.688 28.4597 198.72 28.4616ZM191.736 27.5437C191.576 27.4375 191.414 27.3087 191.247 27.1394L191.24 27.1329L191.227 27.1203C191.219 27.1124 191.212 27.1045 191.205 27.0967C190.198 26.0901 190.401 24.9971 190.401 24.9971L185.219 30.1796C185.219 30.1796 185.03 30.3724 184.911 30.5715C184.826 30.7116 184.681 31.1438 184.681 31.1438L183.814 33.5241L186.207 32.6538C186.207 32.6538 186.59 32.526 186.767 32.4168C186.953 32.3016 187.159 32.1206 187.159 32.1206L191.736 27.5437ZM193.061 17.4537C192.821 18.184 191.598 22.0159 191.598 22.0179C191.582 22.0618 191.562 22.1057 191.542 22.1491C191.517 22.2017 191.486 22.2526 191.455 22.3031L191.443 22.322C191.377 22.429 191.303 22.5329 191.211 22.6247C191.118 22.716 191.014 22.7967 190.898 22.8666C190.197 23.276 189.426 23.1446 188.906 22.6246C188.805 22.524 188.716 22.4088 188.64 22.2781C188.412 21.884 188.366 21.4298 188.469 21.0191C188.469 21.0161 189.68 16.2917 189.739 16.0635C189.907 15.4345 190.06 15.0704 190.428 14.5527L190.71 14.1597L190.712 14.1564C191.789 12.6556 195.489 7.49621 195.636 7.32753C195.654 7.30726 195.672 7.28474 195.69 7.26208C195.72 7.22523 195.75 7.18802 195.779 7.15958C195.85 7.09218 195.915 7.03391 195.974 6.98291C196.34 6.67131 196.518 6.6463 196.851 6.59943C196.901 6.59244 196.954 6.58496 197.012 6.57597L208.518 5.24675L203.597 10.1673C201.843 10.3115 200.1 10.4558 199.86 10.4787C199.185 10.535 198.473 10.8581 197.936 11.4085C197.91 11.4344 197.888 11.4574 197.869 11.4771L197.867 11.4793C197.69 11.6657 197.082 12.2974 196.407 12.9987L196.398 13.0085C195.43 14.0149 194.327 15.1607 194.162 15.3386C193.626 15.9129 193.382 16.4723 193.061 17.4537ZM202.327 11.4376C201.383 11.5154 200.546 11.6088 200.143 11.6538C200.027 11.6666 199.948 11.6755 199.911 11.679C199.407 11.7368 199.124 11.846 198.742 12.2152C198.73 12.2275 198.714 12.2438 198.695 12.2652C198.512 12.4575 197.874 13.1202 197.178 13.844L197.17 13.8523L197.167 13.8555C196.209 14.8502 195.146 15.9559 195 16.1131C194.624 16.5255 194.394 16.8602 194.022 17.9662C193.973 18.1118 193.87 18.4033 193.74 18.7709L193.739 18.7738C193.545 19.3236 193.291 20.0425 193.068 20.6972L202.327 11.4376ZM215.493 1.80478C215.895 2.20922 216.056 2.59231 216.128 2.87288C216.151 2.96383 216.163 3.04376 216.17 3.10877L197.802 21.4773C197.802 21.4773 193.851 21.5479 193.851 21.5477L214.239 1.1598C214.48 1.17679 214.96 1.27682 215.493 1.80478Z" fill="url(#paint0_linear_0_24415)"/>
<defs>
<linearGradient id="paint0_linear_0_24415" x1="317.101" y1="29.0504" x2="291.409" y2="-69.97" gradientUnits="userSpaceOnUse">
<stop stop-color="#CF9852"/>
<stop offset="0.453818" stop-color="#F2CB99"/>
<stop offset="1" stop-color="#D19C59"/>
</linearGradient>
</defs>
</svg>
