<svg width="25" height="20" viewBox="0 0 25 20" fill="none" xmlns="http://www.w3.org/2000/svg">
<g clip-path="url(#clip0_10_298)">
<path d="M13.9528 16.5676L12.0289 14.1196C11.3463 13.2482 10.0637 13.103 9.21556 13.8084L8.24328 14.6175C8.03642 14.7835 7.70543 14.7627 7.51925 14.576C5.69882 12.5429 4.41625 10.157 3.7129 7.52226C3.65084 7.25256 3.79565 6.96211 4.06457 6.87913L5.24371 6.48495C6.29873 6.13226 6.85728 4.99121 6.5056 3.93315L5.47127 1.02868C5.16097 0.136587 4.12663 -0.257592 3.29916 0.178079C0.175474 1.87927 -1.7277 5.57211 2.24414 12.8748C6.21599 20.1775 10.3533 20.5509 13.477 18.8497C14.3045 18.4141 14.532 17.3145 13.9528 16.5676Z" fill="#BFBFBF"/>
<path fill-rule="evenodd" clip-rule="evenodd" d="M18 9H25L25 5L18 5V1L11 7L18 13V9Z" fill="#E7AF68"/>
</g>
<defs>
<clipPath id="clip0_10_298">
<rect width="25" height="19.6897" fill="white"/>
</clipPath>
</defs>
</svg>
