<svg width="24" height="20" viewBox="0 0 24 20" fill="none" xmlns="http://www.w3.org/2000/svg">
<path fill-rule="evenodd" clip-rule="evenodd" d="M4.05173 4.86495L4.05432 4.86502L4.05486 4.86495H17.0269C17.7729 4.86495 18.3783 5.47033 18.3783 6.21636V13.1156C17.5993 12.1535 16.6671 11.002 16.0193 10.2013C15.6713 9.77221 15.1533 9.51593 14.601 9.50073C14.0486 9.48553 13.5167 9.71267 13.1459 10.1224L9.54051 14.1073C9.44531 14.2132 9.28315 14.2262 9.17185 14.1365L8.03236 13.2261C7.26914 12.6153 6.1675 12.6866 5.48865 13.3894L1.66214 17.3566C1.63567 17.2511 1.62162 17.1407 1.62162 17.027V6.21636C1.62162 5.47033 2.22699 4.86495 2.97302 4.86495H4.05173ZM14.7588 11.2219L18.3783 15.6928V17.027C18.3783 17.773 17.7729 18.3784 17.0269 18.3784H2.97302C2.959 18.3784 2.94503 18.3782 2.93111 18.3777L6.65613 14.5158C6.7535 14.4152 6.91023 14.4045 7.01936 14.4921L8.15885 15.4035C8.93945 16.0284 10.0724 15.9365 10.7437 15.1948L14.348 11.2099C14.401 11.1515 14.4777 11.1191 14.5566 11.1213C14.6355 11.1234 14.709 11.1602 14.7588 11.2219ZM2.97302 20C2.23125 20 1.55302 19.7285 1.03226 19.2793C1.01424 19.2648 0.996693 19.2493 0.979685 19.2329C0.377998 18.6889 0 17.9021 0 17.027V6.21636C0 4.57413 1.33098 3.24334 2.97302 3.24334H3.24352V2.97302C3.24352 2.18501 3.55714 1.42813 4.11386 0.870344C4.67165 0.313463 5.42835 0 6.21654 0H20.2704C21.9126 0 23.2434 1.33098 23.2434 2.97302V13.7836C23.2434 14.5717 22.9298 15.3285 22.3731 15.8863C21.8153 16.4432 21.0586 16.7567 20.2704 16.7567H19.9999V17.027C19.9999 18.6692 18.6689 20 17.0269 20H2.97302ZM4.86514 3.24334V2.97302C4.86514 2.61413 5.00775 2.27133 5.26077 2.01743C5.51487 1.76441 5.85748 1.6218 6.21636 1.6218H20.2702C21.0162 1.6218 21.6216 2.22717 21.6216 2.9732V13.7838C21.6216 14.1427 21.479 14.4855 21.226 14.7394C20.9719 14.9924 20.6293 15.135 20.2704 15.135H19.9999V6.21636C19.9999 4.57431 18.6691 3.24334 17.0269 3.24334H4.86514ZM6.21616 5.94625C5.17189 5.94625 4.32434 6.7938 4.32434 7.83807C4.32434 8.88234 5.17189 9.72989 6.21616 9.72989C7.26044 9.72989 8.10798 8.88234 8.10798 7.83807C8.10798 6.7938 7.26044 5.94625 6.21616 5.94625ZM6.21616 7.56786C6.36529 7.56786 6.48637 7.68894 6.48637 7.83807C6.48637 7.9872 6.36529 8.10828 6.21616 8.10828C6.06703 8.10828 5.94595 7.9872 5.94595 7.83807C5.94595 7.68894 6.06703 7.56786 6.21616 7.56786Z" fill="#CE8D3B"/>
</svg>
