<?xml version="1.0" encoding="UTF-8"?>
<svg width="43px" height="56px" viewBox="0 0 43 56" version="1.1" xmlns="http://www.w3.org/2000/svg" xmlns:xlink="http://www.w3.org/1999/xlink">
    <title>r</title>
    <g id="Page-1" stroke="none" stroke-width="1" fill="none" fill-rule="evenodd">
        <path d="M41.808779,0.988261713 C42.9403359,2.11874507 42.8400752,3.32097958 42.8252239,3.4106238 C42.8094184,3.54082561 42.7522799,3.66047052 42.6601307,3.75261976 L37.5772517,8.83550256 C38.1459841,9.38145057 38.5,10.1493829 38.5,11 L38.5,53 C38.5,54.6568542 37.1568542,56 35.5,56 L0,56 L0,54 L35.5,54 C36.0128358,54 36.4355072,53.6139598 36.4932723,53.1166211 L36.5,53 L36.4988095,27.6963714 C35.67174,27.3591194 35.0427014,27.2425522 34.0083604,27.2148314 C33.4248081,27.1988469 32.5590824,27.3526676 32.5590824,27.3526676 L29.4379964,27.8624408 L29.6090257,28.0332788 L30.1067116,28.5304231 L30.3445134,28.767974 L30.3445134,28.767974 L30.8617935,29.284726 C31.0009489,29.4237428 31.1320272,29.5546934 31.2532993,29.6758499 L31.4822561,29.9045921 C31.5180656,29.9403687 31.5526575,29.974929 31.5859676,30.0082091 L31.7699359,30.1920151 L31.8107614,30.2328058 L31.8107614,30.2328058 L32.0332943,30.4551635 C32.0801672,30.502004 32.1120467,30.5338667 32.1272036,30.5490236 C32.6354261,31.0572461 32.7424862,31.7113566 32.7458859,32.3243131 C32.7453491,33.0251842 32.4795179,33.6643838 32.0185928,34.125309 C31.4909862,34.6529156 30.7021409,34.9256058 30.0819079,34.9547715 C29.4616152,34.9838775 28.9223781,34.7502538 28.2787649,34.1066406 C28.2297596,34.0576353 28.0677475,33.8956231 27.7489893,33.7357976 C26.511092,34.9565533 24.8457102,34.8759515 23.7235504,33.7825377 C23.1787068,33.2307754 22.9487214,32.5708795 22.9486617,31.7791117 L22.9486617,31.2940906 C21.8621953,32.2461205 20.2549812,32.2390229 19.1978594,31.2187608 C18.7142697,30.7351711 18.4139646,30.0117548 18.4140839,29.2490334 L18.4140539,29.1735338 C18.4140262,29.1580912 18.4139883,29.1412598 18.4139417,29.1231006 L18.4133328,28.9254725 C18.4132071,28.8871105 18.4130729,28.8461742 18.4129357,28.80287 L18.4121208,28.5162826 L18.4119367,28.4369179 L18.4119367,28.4369179 L18.4113403,28.0015295 L13.3731446,33.0396599 C13.3048854,33.1059117 13.1447425,33.25259 12.9557471,33.3659873 C12.7037532,33.5173029 12.4383396,33.6161919 12.4383396,33.6161919 L8.77491503,34.8038137 C8.56413482,34.881231 8.3285429,34.828864 8.16959291,34.669914 C8.03335006,34.5336712 7.97501869,34.3407256 8.00988563,34.1556425 L8.0351564,34.0640551 C8.03521163,34.0641103 8.28940636,33.2803727 8.56241439,32.4385646 L8.68889706,32.048557 C8.92008905,31.3356731 9.1388297,30.6611505 9.20255225,30.4646507 L9.22110823,30.4074299 C9.22110823,30.4074299 9.29810802,30.153766 9.45288297,29.894257 C9.60765791,29.6347481 9.83179828,29.433153 9.83179828,29.433153 L15.151762,24.1131892 L15.1192075,24.1132749 C14.9498297,24.1110155 14.1538994,24.0671179 13.5467548,23.4599733 C13.3755779,23.2887964 13.2254551,23.0929867 13.0999652,22.8771964 C12.718187,22.2175987 12.6672514,21.4317356 12.8408737,20.7480419 C12.840816,20.7474647 13.1239843,19.6415211 13.4234446,18.472994 L13.5434649,18.0047171 C13.8225869,16.915818 14.0848972,15.8935189 14.1133683,15.7856411 C14.2952214,15.0782092 14.5527621,14.50253 14.9889949,13.8793744 C15.0856229,13.7413715 16.1999601,12.1948448 17.3637313,10.5815943 L17.6434898,10.1938202 C17.6901092,10.1292066 17.7366837,10.0646581 17.7831514,10.0002604 L0,10 L0,8 L19.2272596,8.00000661 C19.6750725,7.38018538 19.9991288,6.9322986 20.0816572,6.81954941 C20.133726,6.74863326 20.4017043,6.42184639 20.4565764,6.36697435 C21.1206473,5.67332017 21.7867462,5.46957789 22.362843,5.41774767 C22.7240352,5.37443521 26.2954167,4.966526 29.8758254,4.5581796 L30.5071043,4.48618805 C32.2923013,4.28261917 34.0326792,4.08429627 35.3280926,3.93673932 L39.0860521,0.178779805 C39.1713424,0.0934895657 39.2812058,0.0374246532 39.4000157,0.0181001514 C39.4960417,-0.00551868412 40.6781167,-0.147052767 41.808779,0.988261713 Z M28.604836,28.7293594 C28.6239533,29.9126555 28.6304315,30.9829428 28.6322825,31.4860047 L28.6329281,31.7588329 C28.6291706,32.033372 28.5704217,32.3126827 28.4722485,32.5820328 L29.2271566,33.3369409 C29.5470844,33.6417193 29.771523,33.7196734 30.2013142,33.7299321 C30.5903689,33.7293953 30.93654,33.5742028 31.1927089,33.3191075 C31.4478639,33.0628789 31.6061578,32.6898683 31.607787,32.2998593 C31.6096171,31.9341848 31.474942,31.5895646 31.301439,31.4233381 L31.1555645,31.2775502 C31.1176885,31.2397027 31.0733752,31.1954246 31.0231414,31.1452324 L30.4553431,30.5779441 C30.4053394,30.5279878 30.3536034,30.4763011 30.3002611,30.4230103 L29.8901849,30.0133387 C29.793664,29.916915 29.6938062,29.8171591 29.5911284,29.7145874 L29.2751511,29.3989416 L29.1938762,29.3177534 L29.1938762,29.3177534 L28.776241,28.900573 C28.7194665,28.8438615 28.66231,28.7867688 28.604836,28.7293594 Z M15.9014811,24.9971062 L10.7189957,30.1795917 C10.7189957,30.1795917 10.5301047,30.3724192 10.410579,30.5715093 C10.3264817,30.7115523 10.1813093,31.1438485 10.1813093,31.1438485 L9.31385391,33.5241023 L11.706931,32.6538436 C11.706931,32.6538436 12.0904985,32.5260275 12.2668644,32.4168202 C12.4530119,32.3016486 12.6594381,32.1206305 12.6594381,32.1206305 L17.2363628,27.5437058 C17.0756832,27.4375403 16.9136317,27.3086506 16.7465106,27.1393823 C16.7315401,27.1248889 16.7174045,27.1107534 16.7048794,27.0966775 C15.7858609,26.177659 15.8752984,25.186544 15.8978019,25.0211252 L15.9014811,24.9971062 Z M27.4498392,28.2379564 C27.4498392,28.2379564 27.0875644,28.3020135 26.62819,28.3628499 C26.2641856,28.4114594 25.838629,28.4579217 25.4839886,28.4691347 C25.0818124,28.4817195 24.6475479,28.4832106 24.3597082,28.4688961 C24.2378565,28.4631107 24.1436197,28.457027 24.0894038,28.4532695 L24.0890491,31.7383757 C24.0890285,31.7548273 24.0890076,31.7685079 24.0889863,31.7792906 C24.0850498,32.1328574 24.2551531,32.6011784 24.5573072,32.9090582 C24.5644644,32.915619 24.5717409,32.9224184 24.5788385,32.929516 C25.231458,33.5799883 26.2872676,33.5805847 26.9419149,32.9284424 C26.958973,32.9118615 26.9752557,32.8914038 26.9923137,32.8732721 C27.2411465,32.5981962 27.4598593,32.1087018 27.4506146,31.778217 L27.4500114,29.0661096 L27.4499836,28.9306858 L27.4499836,28.9306858 L27.4498392,28.2379564 Z M19.5535734,28.0879529 L19.5534307,29.2260706 C19.5535138,29.3142834 19.5655617,29.3993351 19.5782062,29.484506 C19.6195988,29.7552876 19.7249889,30.0050151 19.8872789,30.2199107 C19.9356498,30.283431 19.9833646,30.3474882 20.0413381,30.403911 C20.3701529,30.7316521 20.7052302,30.8756316 21.1288782,30.8740477 C21.5023261,30.8727518 21.9978769,30.7097883 22.3321477,30.4455016 L22.4675174,30.3251815 C22.7329311,30.0592907 22.9206293,29.737156 22.9207485,29.2264881 L22.9208678,28.354142 C22.7849402,28.3431079 22.6421536,28.3315371 22.4930448,28.3194891 C21.5351102,28.2418929 20.3119408,28.1475368 19.5535734,28.0879529 Z M36.1622916,10.2507383 L25.032845,21.3800247 L25.2023659,21.3524815 C25.3695402,21.322916 25.5154357,21.2911111 25.5119018,21.2915137 C25.5117825,21.2913944 25.8224656,21.2188083 25.8224656,21.2188083 L33.311724,19.4667797 C33.311724,19.4667797 33.4230188,19.4268186 33.5280511,19.4982119 C33.6328447,19.5694859 33.6586107,19.6702834 33.6586107,19.6702834 L33.806646,20.2730409 C33.806646,20.2730409 33.8439232,20.3696038 33.7724702,20.4830457 C33.7011366,20.5964877 33.5845931,20.6216573 33.5845931,20.6216573 L25.7838166,22.4466298 C25.7743333,22.4476438 25.41182,22.5303097 25.0855699,22.5694359 C24.7655625,22.6068655 24.4879212,22.612391 24.4184447,22.6132406 L19.1192493,22.6132739 C18.7241706,22.6193575 18.3352948,22.7318452 17.9912709,22.9479933 C17.9461804,22.9762643 17.9026407,23.0083526 17.858743,23.0400829 C17.7798943,23.0972214 17.7030138,23.1578789 17.6085981,23.2509824 C17.5305247,23.3292944 17.4639625,23.4124374 17.4017543,23.4971909 C17.3629861,23.5502736 17.324337,23.6035949 17.2898034,23.658288 C16.7774656,24.4688435 16.8613244,25.4793241 17.5848003,26.2049472 C17.8426989,26.4628458 18.0713722,26.6163683 18.3280779,26.71144 C18.4656755,26.762316 18.6174683,26.7929131 18.7805933,26.8158758 C18.8441137,26.8247627 18.9037572,26.836095 18.973063,26.8418208 C19.0878171,26.8499323 19.2955555,26.8660957 19.5539909,26.8861956 C19.9727481,26.9191784 20.5360215,26.9642689 21.1315621,27.0121627 C21.7270431,27.0601161 22.3428624,27.1100377 22.8874078,27.1541739 C22.9080445,27.1558439 22.929039,27.1575139 23.0592408,27.1679516 C23.2301791,27.1819081 23.3810773,27.1941947 23.5199274,27.205527 C23.7466324,27.2238375 23.9216265,27.2380327 24.1477351,27.2563433 C24.2446558,27.2635601 24.3251746,27.2700016 24.5794946,27.2802603 C24.8328006,27.2889086 25.1594682,27.2931433 25.4276255,27.2752503 C26.0719545,27.2317701 26.4409093,27.1897811 26.7431231,27.1470167 C26.7735413,27.1428416 26.8499446,27.1309726 26.962313,27.113676 C27.0793336,27.0953057 27.2365539,27.0703748 27.4227014,27.0407319 C27.5914329,27.0141906 27.7833061,26.9834741 27.993311,26.9498948 C28.1392587,26.9268128 28.292304,26.9023589 28.4516118,26.8768912 C28.5109571,26.8674078 28.5715549,26.8577456 28.6322124,26.8480237 C30.2759879,26.5849958 32.3875476,26.2453259 32.3875476,26.2453259 C32.3875476,26.2453259 33.0259122,26.1192991 33.7777189,26.0730754 C34.8700802,26.006047 35.7327038,26.1648018 36.5002682,26.4162162 L36.5,11 C36.5,10.7017277 36.3694125,10.4339558 36.1622916,10.2507383 Z M34.0180823,5.24674968 L22.5121308,6.57596526 C22.0670111,6.64521139 21.8947606,6.6248133 21.4743931,6.98291302 C21.4145706,7.03390824 21.3499767,7.09217996 21.2788816,7.15957714 C21.2329561,7.20550265 21.1825573,7.27427164 21.136095,7.3275333 L21.1169176,7.35148006 L21.035959,7.45921635 C20.7199807,7.8855631 19.7341369,9.25309743 18.7111853,10.6759211 L18.3696951,11.1510282 C17.1757448,12.8125636 16.0269817,14.4153754 15.9282014,14.5526902 C15.5603202,15.0703959 15.4067381,15.4345197 15.2393187,16.0634606 C15.2124638,16.1665439 14.9508208,17.1866272 14.6718733,18.2747085 L14.5518989,18.7427169 C14.2682433,19.8492933 13.9987691,20.9009667 13.9709192,21.0098554 L13.9685538,21.0191217 C13.8657284,21.429827 13.9124889,21.8839528 14.1402079,22.2780772 C14.216313,22.4088159 14.3053011,22.5240471 14.4058601,22.6246061 C14.9258324,23.1445784 15.6967249,23.275973 16.3982521,22.8665799 C16.5136026,22.7966777 16.6181577,22.71598 16.7107245,22.6247254 C16.8025755,22.5328744 16.8767124,22.429035 16.9428571,22.3219749 C16.9779275,22.2651942 17.0143697,22.2082347 17.0419846,22.1491279 C17.0620248,22.1057075 17.0817072,22.0618098 17.0975724,22.0179122 C17.0981688,22.0158843 18.3209207,18.1839668 18.5614034,17.4536915 C18.881868,16.4722573 19.1262276,15.9128607 19.6624228,15.3386129 C19.9425088,15.0359816 22.935063,11.9339219 23.3671803,11.4792594 C23.3863259,11.4590402 23.4087519,11.4353021 23.4355318,11.4085221 C23.9728603,10.8580721 24.6851233,10.5350427 25.3596915,10.4787393 C25.6002935,10.4558361 27.3427194,10.3114988 29.0974915,10.1673404 L34.0180823,5.24674968 Z M39.7390294,1.15979649 L19.3510836,21.5477426 C19.3510836,21.5477426 23.3015724,21.4773033 23.3015724,21.4773033 L41.6701078,3.10876792 C41.6633085,3.04375648 41.650664,2.96383416 41.6279398,2.87287778 C41.5557712,2.59231465 41.3953897,2.20922429 40.9924977,1.80478156 C40.4598811,1.27681708 39.9801682,1.17679489 39.7390294,1.15979649 Z M27.8272634,11.4375685 C26.6142931,11.5375907 25.5770922,11.6633193 25.4107464,11.6790055 C24.9072954,11.7368001 24.6242869,11.8460074 24.2422105,12.2152008 C24.2298643,12.227547 24.2136412,12.2437701 24.1946149,12.2651821 C23.7907047,12.6900272 21.1686312,15.4089423 20.5942063,16.0132357 L20.4999372,16.1131437 C20.1243023,16.525519 19.8941379,16.8601788 19.5217238,17.9662083 C19.4299771,18.2387643 19.1489443,19.0232854 18.8568485,19.8600347 L18.7107038,20.2806332 C18.6622317,20.4208646 18.6142774,20.5604183 18.5676659,20.697166 L27.8272634,11.4375685 Z" id="r" fill="#E0B670"></path>
    </g>
</svg>