<svg width="64" height="79" viewBox="0 0 64 79" fill="none" xmlns="http://www.w3.org/2000/svg">
<path fill-rule="evenodd" clip-rule="evenodd" d="M51.6159 5.74592C52.4682 7.00307 53.4392 8.16236 54.5192 9.21027C54.543 9.23332 54.566 9.25691 54.5884 9.28101C54.6389 9.32956 54.6897 9.37786 54.7407 9.4259L55.2355 9.8944H55.2367C58.6284 13.0931 60.5738 17.736 60.5738 22.6314V61.5002C60.5738 65.5929 58.1099 69.0755 54.7012 70.3034L62.8351 75.0309C63.7124 75.5409 64.0107 76.6663 63.5007 77.5453C63.1591 78.132 62.5426 78.4601 61.9092 78.4601C61.5957 78.4601 61.2769 78.38 60.9862 78.2109L48.194 70.7759H15.5558L2.76352 78.2109C2.47225 78.38 2.15407 78.4601 1.83998 78.4601C1.20654 78.4601 0.590068 78.132 0.249085 77.5453C-0.26093 76.6668 0.0373502 75.5409 0.914686 75.0309L9.04914 70.3031C5.64107 69.0748 3.17723 65.5925 3.17723 61.5002V22.6314C3.17723 17.736 5.12254 13.0931 8.5144 9.8944L9.01214 9.4259C9.04796 9.39213 9.08367 9.35824 9.11926 9.32422C9.15367 9.28455 9.18998 9.24613 9.22814 9.20907C10.9617 7.52804 12.4164 5.55638 13.551 3.34964C14.6144 1.2832 16.6433 0 18.8478 0H44.8995C45.3045 0 45.7036 0.0433258 46.0918 0.126875C47.8175 0.497516 49.3301 1.6627 50.1984 3.3501C50.6273 4.18443 51.1004 4.98389 51.6159 5.74592ZM11.2517 12.3687L11.0366 12.571C8.37827 15.0772 6.8546 18.7439 6.8546 22.6316V61.5003C6.8546 64.5867 9.05266 67.0983 11.7549 67.0983H15.0047C15.0408 67.0973 15.0768 67.0973 15.1128 67.0983H48.6362C48.6724 67.0973 48.7087 67.0972 48.745 67.0983H51.9952C54.6974 67.0983 56.8954 64.5869 56.8954 61.5003L56.8948 22.6316C56.8948 18.7444 55.3706 15.0784 52.7128 12.5714L52.4977 12.3687H11.2517ZM47.9489 6.84801C48.3393 7.48237 48.754 8.09684 49.1923 8.69041H14.557C15.4019 7.54645 16.1593 6.32499 16.824 5.03349C17.2533 4.19769 18.0294 3.6783 18.8495 3.6783L44.9005 3.67872C45.1965 3.67872 45.4866 3.74638 45.7568 3.87209C46.2345 4.09487 46.6497 4.49916 46.9241 5.03187C47.2437 5.65308 47.5856 6.25879 47.9489 6.84801ZM9.07784 56.5911C9.07784 59.9192 11.7619 62.626 15.0613 62.626C18.3612 62.626 21.0453 59.9192 21.0447 56.5911C21.0447 53.2642 18.3606 50.5574 15.0613 50.5574C11.7619 50.5574 9.07784 53.2642 9.07784 56.5911ZM12.7557 56.5905C12.7557 55.2915 13.7897 54.2346 15.0613 54.2346C16.3327 54.2346 17.3674 55.2915 17.3668 56.5905C17.3668 57.8907 16.3328 58.9476 15.0613 58.9476C13.7904 58.9476 12.7557 57.8907 12.7557 56.5905ZM48.6879 62.626C45.3886 62.626 42.7045 59.9192 42.7045 56.5911C42.7045 53.2642 45.3886 50.5574 48.6879 50.5574C51.9872 50.5574 54.6713 53.2642 54.6713 56.5911C54.6713 59.9192 51.9872 62.626 48.6879 62.626ZM48.6879 54.2346C47.4164 54.2346 46.3824 55.2915 46.3824 56.5905C46.3824 57.8907 47.417 58.9476 48.6879 58.9476C49.9595 58.9476 50.9935 57.8907 50.9935 56.5905C50.9935 55.2915 49.9594 54.2346 48.6879 54.2346ZM25.305 28.2163H38.4433C38.4754 28.2163 38.5075 28.216 38.5395 28.2154C40.6808 28.1927 42.5102 26.8299 43.2392 24.9222H44.1645C45.6455 24.9222 46.8498 26.1516 46.8498 27.6636V39.3497C46.8498 40.8605 45.6455 42.0899 44.1645 42.0899H19.5861C18.1051 42.0899 16.9009 40.8605 16.9009 39.3497V27.6636C16.9009 26.1516 18.1052 24.9222 19.5861 24.9222H20.5117C21.24 26.8279 23.0664 28.19 25.2049 28.2153C25.2382 28.2159 25.2715 28.2163 25.305 28.2163ZM38.4433 17.9526C40.6252 17.9526 42.4933 19.3209 43.2346 21.244H44.1642C47.673 21.244 50.5272 24.1234 50.5272 27.6638V39.3498C50.5278 42.8884 47.6735 45.7678 44.1648 45.7678H44.1645H19.5861C16.0773 45.7678 13.2232 42.8884 13.2232 39.3498V27.6638C13.2232 24.1234 16.0773 21.244 19.5861 21.244H20.5137C21.255 19.3209 23.1231 17.9526 25.305 17.9526H38.4433ZM25.2654 24.5375L25.2468 24.5374C24.5786 24.5107 24.0247 24.0307 23.885 23.3974C23.8632 23.2961 23.8517 23.1908 23.8517 23.0829C23.8517 23.076 23.8516 23.0691 23.8516 23.0622C23.8515 23.0578 23.8515 23.0534 23.8514 23.049C23.87 22.2643 24.5154 21.6305 25.3056 21.6305H38.4439C39.2458 21.6305 39.8985 22.2832 39.8985 23.0839C39.8985 23.8663 39.2772 24.5066 38.5023 24.5374L38.485 24.5375H25.2654ZM25.3282 58.4291H38.4208C39.4356 58.4291 40.2597 57.6055 40.2597 56.5902C40.2597 55.5749 39.4362 54.7514 38.4208 54.7514H25.3282C24.3129 54.7514 23.4893 55.5749 23.4893 56.5902C23.4893 57.6055 24.3128 58.4291 25.3282 58.4291Z" fill="#CE8D3B"/>
</svg>
