<svg width="75" height="78" viewBox="0 0 75 78" fill="none" xmlns="http://www.w3.org/2000/svg">
<path fill-rule="evenodd" clip-rule="evenodd" d="M68.9775 19.7719C68.9055 19.7719 68.8367 19.7822 68.768 19.7924L68.7543 19.7944V16.4262C68.7543 7.36812 61.3844 0.000271312 52.3277 0.000271312L22.666 0C18.2803 0 14.1565 1.70919 11.0538 4.81243C7.94984 7.91644 6.24225 12.0414 6.24655 16.4274V19.7956L6.23326 19.7937C6.16359 19.7834 6.09353 19.7731 6.02059 19.7731C2.70145 19.7731 0 22.4738 0 25.7937V29.7812C0 33.1004 2.70069 35.8018 6.02059 35.8018C6.08573 35.8018 6.14837 35.793 6.21078 35.7843L6.24655 35.7793V60.9216C6.24655 63.9749 8.35149 66.5389 11.184 67.2547V70.8071C11.184 74.4146 14.1183 77.3494 17.7255 77.3494H22.6662C26.2709 77.3494 29.2043 74.4151 29.2043 70.8071V67.4606H45.7865V70.8071C45.7865 74.4146 48.7207 77.3494 52.3287 77.3494H57.2751C60.8799 77.3494 63.8132 74.4151 63.8132 70.8071V67.2555C66.6482 66.5404 68.7564 63.9749 68.7564 60.9216L68.7562 35.7771L68.7694 35.7791C68.8383 35.7894 68.9075 35.7997 68.9794 35.7997C72.2986 35.7997 75 33.099 75 29.7791V25.7915C74.9984 22.4732 72.2969 19.7717 68.9777 19.7717L68.9775 19.7719ZM6.02029 32.6084C4.46027 32.6084 3.19135 31.3392 3.19135 29.7794V25.7919C3.19135 24.2319 4.46055 22.9629 6.02029 22.9629C6.08543 22.9629 6.14807 22.9541 6.21048 22.9454L6.24625 22.9404V32.6311L6.21048 32.6262C6.14807 32.6174 6.08543 32.6086 6.02029 32.6086V32.6084ZM22.6656 74.1561C24.5112 74.1561 26.0121 72.6527 26.0121 70.8052L26.0119 67.4587H14.374V70.8052C14.374 72.6528 15.8774 74.1561 17.7249 74.1561H22.6656ZM57.2734 74.1552H52.3273C50.4798 74.1552 48.9764 72.6519 48.9764 70.8044V67.4578H60.6192V70.8044C60.62 72.6519 59.1183 74.1552 57.2734 74.1552ZM62.215 64.2668C64.0607 64.2668 65.5623 62.7651 65.5623 60.9195L65.5628 16.426C65.5628 9.12833 59.6261 3.191 52.327 3.191H22.6647C19.1317 3.191 15.8093 4.56763 13.3094 7.06755C10.8095 9.56859 9.43442 12.8918 9.43686 16.4249L9.43659 60.9195C9.43659 62.7651 10.9358 64.2668 12.7782 64.2668H62.215ZM71.8062 29.7794C71.8062 31.3394 70.5378 32.6084 68.9772 32.6084C68.9126 32.6084 68.8505 32.6172 68.7888 32.626L68.754 32.6309V22.9409L68.7672 22.9428C68.8361 22.9531 68.9053 22.9634 68.9772 22.9634C70.5373 22.9634 71.8062 24.2326 71.8062 25.7923V29.7794ZM14.6673 54.6013C14.6673 51.5573 17.1456 49.0815 20.1921 49.0815C23.2395 49.0815 25.7185 51.5573 25.7188 54.6013C25.7188 57.6462 23.2395 60.1236 20.1921 60.1236C17.1456 60.1236 14.6673 57.6463 14.6673 54.6013ZM17.8587 54.6019C17.8587 55.8876 18.9056 56.9334 20.1921 56.9334C21.4795 56.9334 22.5271 55.8874 22.5271 54.6019C22.5271 53.3178 21.4795 52.2729 20.1921 52.2729C18.9052 52.2729 17.8587 53.3178 17.8587 54.6019ZM49.277 54.6013C49.277 51.5573 51.7545 49.0815 54.8002 49.0815C57.8483 49.0815 60.3268 51.5573 60.3268 54.6013C60.3268 57.6462 57.8475 60.1236 54.8002 60.1236C51.7545 60.1236 49.277 57.6463 49.277 54.6013ZM52.4676 54.6019C52.4676 55.8876 53.5144 56.9334 54.8002 56.9334C56.0884 56.9334 57.136 55.8874 57.136 54.6019C57.136 53.3178 56.0884 52.2729 54.8002 52.2729C53.5141 52.2729 52.4676 53.3178 52.4676 54.6019ZM23.7545 11.0201H51.2405C52.1221 11.0201 52.8363 10.3059 52.8363 9.42429C52.8363 8.54272 52.1221 7.82851 51.2405 7.82851H23.7545C22.8729 7.82851 22.1587 8.54272 22.1587 9.42429C22.1587 10.3059 22.8738 11.0201 23.7545 11.0201ZM59.4709 14.8311H15.5221C14.6405 14.8311 13.9263 15.5453 13.9263 16.4269V43.3442C13.9263 44.2257 14.6405 44.9399 15.5221 44.9399L59.4709 44.9397C60.3524 44.9397 61.0666 44.2255 61.0666 43.3439L61.0664 16.4266C61.0664 15.545 60.3516 14.8308 59.4708 14.8308L59.4709 14.8311ZM57.8751 18.0227V41.7484H17.1179V18.0227H57.8751Z" fill="#CE8D3B"/>
</svg>
