<svg width="51" height="52" viewBox="0 0 51 52" fill="none" xmlns="http://www.w3.org/2000/svg">
<path fill-rule="evenodd" clip-rule="evenodd" d="M50.2773 17.353C50.3184 17.4231 50.3467 17.4983 50.375 17.5743L50.375 17.5743C50.3798 17.5871 50.3852 17.5995 50.3908 17.612L50.3941 17.6192L50.3941 17.6192C50.4042 17.6417 50.4144 17.6642 50.4211 17.6882C50.4537 17.8064 50.4727 17.93 50.4727 18.056V43.056C50.4727 43.8233 49.8511 44.4449 49.0838 44.4449C48.3165 44.4449 47.6949 43.8233 47.6949 43.056V28.6363L36.5838 34.1919V50.0004C36.5838 50.7677 35.9622 51.3893 35.1949 51.3893C34.4276 51.3893 33.806 50.7677 33.806 50.0004V34.1919L17.1393 25.8585V26.3891C17.1393 27.1564 16.5177 27.778 15.7504 27.778C14.9831 27.778 14.3615 27.1564 14.3615 26.3891V24.4696L3.25043 18.9141V33.3337C3.25043 34.101 2.62885 34.7226 1.86155 34.7226C1.09424 34.7226 0.472656 34.101 0.472656 33.3337V8.33372C0.472656 8.20777 0.491645 8.08415 0.522647 7.96596C0.529328 7.94223 0.539297 7.92015 0.549295 7.89799C0.556114 7.88288 0.562948 7.86774 0.568762 7.85203C0.597052 7.77568 0.625342 7.70012 0.666419 7.63075C0.6837 7.60186 0.704556 7.57541 0.725446 7.54892L0.725449 7.54892C0.73454 7.53739 0.743637 7.52585 0.75245 7.5141C0.795848 7.4552 0.83925 7.39669 0.891954 7.34514C0.919847 7.31783 0.950511 7.29457 0.981256 7.27125C0.99195 7.26313 1.00265 7.25501 1.01325 7.24671C1.02801 7.23514 1.04196 7.2227 1.0559 7.21026L1.05591 7.21026L1.05591 7.21026L1.05592 7.21025L1.05592 7.21025C1.07932 7.18938 1.10271 7.16852 1.1299 7.15177C1.14023 7.14516 1.15145 7.14086 1.1626 7.13658C1.17237 7.13284 1.18209 7.12911 1.19113 7.12387C1.19908 7.11927 1.20614 7.11379 1.21317 7.10835L1.21317 7.10834C1.22155 7.10184 1.22987 7.09539 1.23957 7.09054L15.1285 0.146096C15.1345 0.142869 15.1407 0.140956 15.147 0.139031C15.1521 0.137488 15.1572 0.135937 15.1622 0.133695C15.2296 0.102307 15.3001 0.0782798 15.3722 0.0577411C15.3832 0.0546685 15.3939 0.0509211 15.4044 0.0472029L15.4045 0.0471982L15.4045 0.0471966C15.4192 0.0420067 15.4338 0.0368744 15.4489 0.0337143C15.5431 0.0127887 15.6404 0.0003875 15.7407 0H15.7586C15.8586 0.000386905 15.9558 0.0127877 16.0504 0.0337143C16.0656 0.0372836 16.0801 0.0422656 16.0946 0.0472557L16.0946 0.0472574C16.1054 0.0509352 16.1161 0.0546172 16.1271 0.0577411C16.2 0.0782798 16.2701 0.101919 16.3372 0.133695C16.3422 0.136048 16.3476 0.137724 16.353 0.139395C16.3592 0.141303 16.3653 0.143204 16.3709 0.146096L49.7042 16.8128C49.7136 16.8175 49.7218 16.8239 49.73 16.8303L49.73 16.8303C49.7373 16.836 49.7446 16.8417 49.7526 16.8461C49.7622 16.8514 49.7721 16.8554 49.782 16.8593L49.782 16.8593C49.7929 16.8636 49.8037 16.8679 49.8139 16.874C49.841 16.8909 49.8643 16.9117 49.8877 16.9324L49.8877 16.9324C49.9017 16.9449 49.9157 16.9573 49.9305 16.9689L49.9571 16.9891C49.99 17.0139 50.0225 17.0384 50.0518 17.0674C50.1045 17.1193 50.1479 17.1774 50.1913 17.2363C50.2007 17.249 50.2105 17.2614 50.2204 17.2738L50.2205 17.2739C50.2407 17.2993 50.2609 17.3248 50.2773 17.353ZM36.5837 31.0865L47.6948 25.5309V20.3032L36.5837 25.8588V31.0865ZM3.2504 15.8087V10.581L33.806 25.8588V31.0865L3.2504 15.8087ZM37.6452 22.2229L15.7504 11.2754L13.3005 12.5004L35.1953 23.4479L37.6452 22.2229ZM40.7504 20.6698L17.1393 8.86423V3.63655L45.9786 18.0562L40.7504 20.6698ZM10.1948 10.9476L14.3615 8.86423V3.63645L4.96717 8.33368L10.1948 10.9476Z" fill="#CE8D3B"/>
</svg>
