<svg width="81" height="66" viewBox="0 0 81 66" fill="none" xmlns="http://www.w3.org/2000/svg">
<path fill-rule="evenodd" clip-rule="evenodd" d="M59.9678 49.5648C62.742 47.7607 68.9234 47.6867 69.8077 47.6867L69.808 47.6866C70.9539 47.6866 81 47.7979 81 51.644V57.1213C81 62.0156 75.4159 66.0013 68.5542 65.9946C66.1759 66.0115 63.8221 65.5103 61.6574 64.5249C57.8163 62.4445 54.6251 59.3431 52.4368 55.5625H52.4362L20.4693 5.27323C19.8309 4.25 19.7732 2.96791 20.3179 1.89154C20.8621 0.8157 21.9293 0.102075 23.1317 0.00997527C24.334 -0.0815426 25.4975 0.461432 26.1987 1.44231L59.9678 49.5648ZM78.2662 51.6441C75.5947 50.522 72.6995 50.0344 69.8077 50.218C66.9159 50.0343 64.0208 50.5225 61.3482 51.6441C64.0207 52.7651 66.9159 53.2528 69.8077 53.0697C72.6996 53.2539 75.5947 52.7657 78.2662 51.6441ZM68.5539 63.4701C66.5458 63.4876 64.5586 63.0678 62.7286 62.24C59.3237 60.3573 56.5002 57.5769 54.5662 54.2003L22.6108 3.91535C22.3843 3.49836 22.5125 2.9774 22.9075 2.71466C23.3024 2.45136 23.8324 2.53329 24.1296 2.90282L58.7059 52.1796C59.5868 55.5059 68.7198 55.6138 69.8099 55.6138V55.6132C72.7458 55.6426 75.6681 55.2132 78.4706 54.3391V57.1218C78.4689 60.5645 73.9294 63.4705 68.5544 63.4705L68.5539 63.4701ZM9.8387 62.8587H56.5306L56.5321 62.8655C57.231 62.8655 57.7977 63.4323 57.7977 64.1312C57.7977 64.8301 57.231 65.3969 56.5321 65.3969H8.75676C8.13241 65.3974 7.60129 64.942 7.50636 64.325L6.67465 58.9962H5.10161C4.40268 58.9962 3.83596 58.4295 3.83596 57.7306V52.0283C3.83596 51.3288 4.40268 50.7626 5.10161 50.7626H5.39995L2.27819 30.771H1.26566C0.566728 30.771 2.89293e-06 30.2043 2.89293e-06 29.5054V23.8014C0.00565857 23.2104 0.424902 22.7047 1.00405 22.5894V22.5888L0.0203402 16.2825C0.0144952 16.2644 0.0164878 16.2477 0.0185966 16.23C0.0201572 16.2169 0.0217816 16.2033 0.0203402 16.1882C0.0188158 16.1722 0.0145473 16.1573 0.0103119 16.1426C0.00513125 16.1245 0 16.1066 0 16.087V11.3114C0.0713108 9.1592 1.26059 7.2008 3.13709 6.14477C5.01359 5.08873 7.30523 5.08873 9.18173 6.14477C11.0587 7.20083 12.2481 9.1592 12.3193 11.3114V14.822H23.9734C24.6724 14.822 25.2391 15.3881 25.2391 16.0876C25.2391 16.7866 24.6724 17.3533 23.9734 17.3533H2.74366L3.5522 22.5357H28.5616C29.2605 22.5357 29.8272 23.1018 29.8272 23.8013C29.8272 24.5003 29.2605 25.067 28.5616 25.067H2.531V28.2397H32.1358C32.8347 28.2397 33.4015 28.8058 33.4015 29.5053C33.4015 30.2043 32.8347 30.771 32.1358 30.771H4.83666L7.95336 50.7626H46.7447C47.4436 50.7626 48.0103 51.3287 48.0103 52.0282C48.0103 52.7272 47.4436 53.2939 46.7447 53.2939H6.36659V56.458H50.4664C51.1654 56.458 51.7321 57.0242 51.7321 57.7237C51.7321 58.4226 51.1654 58.9894 50.4664 58.9894H9.23638L9.8387 62.8587ZM4.38755 8.28988C3.28741 8.90405 2.58395 10.0449 2.52971 11.3037V14.8143L9.78634 14.8137V11.3037C9.73209 10.0449 9.02861 8.90406 7.9285 8.28988C6.82788 7.67513 5.48766 7.67513 4.38755 8.28988ZM63.5923 17.3528H40.1624L40.162 17.3528C39.4631 17.3528 38.8963 16.7861 38.8963 16.0871C38.8963 15.3876 39.4631 14.8215 40.162 14.8215L54.0199 14.8209V11.3109C54.1068 9.16999 55.2996 7.22745 57.1698 6.18102C59.0395 5.13459 61.3193 5.13459 63.1896 6.18102C65.0592 7.22754 66.252 9.16999 66.339 11.3109V16.0871C66.339 16.1157 66.3313 16.1428 66.3239 16.1691L66.3186 16.1883C66.313 16.2093 66.3148 16.2298 66.3167 16.2506C66.3173 16.2571 66.3179 16.2636 66.3183 16.2701C66.3185 16.2743 66.3186 16.2784 66.3186 16.2826L65.3417 22.5889C65.9192 22.7065 66.3356 23.2116 66.3407 23.8009V29.5049C66.3407 30.2038 65.7739 30.7706 65.075 30.7706H64.0619L61.9527 44.2944C61.8566 44.9097 61.3272 45.3635 60.704 45.364C60.6379 45.364 60.5723 45.3589 60.5068 45.3488C59.8157 45.2408 59.3434 44.5939 59.4502 43.9029L61.499 30.7706H50.0069C49.308 30.7706 48.7413 30.2038 48.7413 29.5049C48.7413 28.8054 49.308 28.2392 50.0069 28.2392H63.8121V25.0666H45.7559C45.057 25.0666 44.4903 24.4998 44.4903 23.8009C44.4903 23.1014 45.057 22.5352 45.7559 22.5352H62.7837L63.5923 17.3528ZM56.5488 11.311L56.5494 11.3115L56.5574 14.821H63.814V11.311C63.7864 10.0317 63.088 8.86156 61.9754 8.22986C60.8628 7.59816 59.5 7.59819 58.3874 8.22986C57.2749 8.86153 56.5765 10.0318 56.5488 11.311ZM58.9071 11.2502C58.9071 10.5513 59.4733 9.98456 60.1728 9.98456C60.8746 9.98343 61.4469 10.5479 61.4548 11.2502C61.4588 11.5841 61.3288 11.9056 61.0944 12.143C60.8599 12.3808 60.5401 12.5147 60.2061 12.5159H60.1728C59.4733 12.5159 58.9071 11.9491 58.9071 11.2502ZM6.14443 9.98456C5.44549 9.98456 4.87877 10.5513 4.87877 11.2502C4.87877 11.9491 5.44549 12.5159 6.14443 12.5159H6.17833C6.51226 12.5147 6.83206 12.3808 7.06655 12.143C7.30103 11.9056 7.43098 11.5841 7.42703 11.2502C7.41912 10.5479 6.84675 9.98343 6.14443 9.98456Z" fill="#C2C2C2"/>
</svg>
