<svg width="85" height="80" viewBox="0 0 85 80" fill="none" xmlns="http://www.w3.org/2000/svg">
<path fill-rule="evenodd" clip-rule="evenodd" d="M30.4191 13.9124H54.7673V13.9111L60.5841 13.911C63.2103 13.911 65.4359 15.876 65.7809 18.6056L70.0394 39.9988H15.147L19.4258 18.482C19.7512 15.8766 21.9767 13.9116 24.6036 13.9116L30.4191 13.9115V13.9124ZM30.4191 5.21766V10.4342H24.6029C20.2262 10.4342 16.5163 13.7081 15.9939 17.9271L11.6002 39.9988H9.55103C4.75599 39.9988 0.85498 43.9004 0.85498 48.6948V59.1306C0.85498 63.9257 4.75664 67.8267 9.55103 67.8267H11.2888V74.7823C11.2888 77.6597 13.6294 80 16.5065 80H18.2456C21.1229 80 23.4633 77.6595 23.4626 74.7823V67.8267H61.7246V74.7823C61.7246 77.6597 64.0651 80 66.9422 80H68.6814C71.5587 80 73.899 77.6595 73.8984 74.7823V67.8267H75.6386H75.6393C80.4336 67.8267 84.3347 63.9255 84.3347 59.1306V48.6948C84.3347 43.8998 80.433 39.9988 75.6386 39.9988H73.5852L69.2104 18.0515C68.6684 13.7088 64.9586 10.4342 60.5819 10.4342H54.7673V5.21766C54.7673 2.34035 52.4268 0 49.5497 0H35.6368C32.7594 0 30.4191 2.34051 30.4191 5.21766ZM51.2888 10.434H33.8976L33.8979 5.21766C33.8979 4.25872 34.6784 3.47839 35.6372 3.47839H49.5501C50.5091 3.47839 51.2894 4.2588 51.2894 5.21766L51.2888 10.434ZM10.9076 43.4785H74.2788L74.2785 43.4769H75.6392C78.5165 43.4769 80.8569 45.8174 80.8569 48.6945V59.1303C80.8569 62.0076 78.5164 64.348 75.6392 64.348H73.8984V64.3472H61.7246V64.348H23.4626V64.3472H11.2888V64.348H9.55166C6.67435 64.348 4.334 62.0075 4.334 59.1303L4.33337 48.6945C4.33337 45.8172 6.67388 43.4769 9.55103 43.4769H10.9079L10.9076 43.4785ZM65.2031 67.8267V74.783C65.2031 75.7418 65.9835 76.5223 66.9424 76.5223H68.6817C69.6405 76.5223 70.421 75.7419 70.421 74.783V67.8267H65.2031ZM19.9859 67.8267H14.768V74.783C14.768 75.7418 15.5484 76.5223 16.5073 76.5223H18.2466C19.2055 76.5223 19.9859 75.7419 19.9859 74.783V67.8267ZM61.5645 36.5214H23.6235C22.5782 36.5214 21.5979 36.0583 20.935 35.2509C20.2726 34.4434 20.0083 33.3918 20.2114 32.3668L22.6205 20.1911C22.9423 18.5672 24.3774 17.3888 26.0327 17.3888L59.1564 17.3895C60.8117 17.3895 62.2469 18.5679 62.5686 20.1917L64.9778 32.3668C65.1809 33.3919 64.9166 34.4428 64.2542 35.2509C63.5912 36.0583 62.6109 36.5214 61.5657 36.5214L61.5645 36.5214ZM26.033 20.8673L23.6238 33.043L23.6232 33.0474L61.5658 33.043L59.1567 20.8679L26.033 20.8673ZM11.289 53.9128C11.289 57.7489 14.4097 60.8696 18.2458 60.8696C22.0819 60.8696 25.2026 57.7489 25.2026 53.9128C25.2026 50.0767 22.0819 46.956 18.2458 46.956C14.4097 46.956 11.289 50.0767 11.289 53.9128ZM14.7674 53.9128C14.7674 51.9945 16.3274 50.4344 18.2458 50.4344C20.1641 50.4344 21.7242 51.9945 21.7242 53.9128C21.7242 55.8312 20.1641 57.3912 18.2458 57.3912C16.3274 57.3912 14.7674 55.8312 14.7674 53.9128ZM66.9422 60.8696C63.1061 60.8696 59.9855 57.7489 59.9855 53.9128C59.9855 50.0767 63.1061 46.956 66.9422 46.956C70.7783 46.956 73.899 50.0767 73.899 53.9128C73.899 57.7489 70.7783 60.8696 66.9422 60.8696ZM66.9422 50.4344C65.0239 50.4344 63.4639 51.9945 63.4639 53.9128C63.4639 55.8312 65.0239 57.3912 66.9422 57.3912C68.8606 57.3912 70.4206 55.8312 70.4206 53.9128C70.4206 51.9945 68.8606 50.4344 66.9422 50.4344ZM32.16 55.6518H53.0297H53.0303C53.9905 55.6518 54.7689 54.8733 54.7689 53.9125C54.7689 52.9517 53.9904 52.1732 53.0297 52.1732H32.16C31.1992 52.1732 30.4207 52.9517 30.4207 53.9125C30.4207 54.8733 31.1992 55.6518 32.16 55.6518Z" fill="#CE8D3B"/>
</svg>
