<svg width="81" height="80" viewBox="0 0 81 80" fill="none" xmlns="http://www.w3.org/2000/svg">
<path fill-rule="evenodd" clip-rule="evenodd" d="M5.71945 58.4813C4.71977 57.6483 3.72009 57.1484 1.88734 57.1484C0.887661 57.1484 0.221207 56.482 0.38782 55.6489C0.38782 54.6492 1.05427 53.9828 2.05396 53.9828C4.79348 53.9828 6.2861 54.9179 7.58708 55.7331L7.71881 55.8155C8.7185 56.6486 9.71818 57.1484 11.5509 57.1484C13.1348 57.1484 13.9721 56.6507 14.923 56.0854L14.9232 56.0852L14.9234 56.0851L14.9237 56.0849L14.9242 56.0847C15.0732 55.9961 15.2251 55.9058 15.383 55.8155C16.3827 54.9825 17.8822 54.1494 20.2148 53.9828V8.33068C20.2148 3.6655 23.8803 0 28.5455 0C33.2107 0 36.8762 3.6655 36.8762 8.33068C36.8762 9.33036 36.2097 9.99681 35.21 9.99681C34.2104 9.99681 33.5439 9.33036 33.5439 8.33068C33.5439 5.49825 31.3779 3.33227 28.5455 3.33227C25.7131 3.33227 23.5471 5.49825 23.5471 8.33068V17.4944H48.8724V8.33068C48.8724 3.6655 52.5378 0 57.203 0C61.8682 0 65.5337 3.6655 65.5337 8.33068C65.5337 9.33036 64.8672 9.99681 63.8676 9.99681C62.8679 9.99681 62.2014 9.33036 62.2014 8.33068C62.2014 5.49825 60.0355 3.33227 57.203 3.33227C54.3706 3.33227 52.2046 5.49825 52.2046 8.33068V56.3154C52.3712 56.2321 52.5378 56.1071 52.7045 55.9821C52.8711 55.8572 53.0377 55.7322 53.2043 55.6489C54.3706 54.8158 56.0367 53.8162 58.8692 53.8162C61.6087 53.8162 63.1013 54.7513 64.4023 55.5664L64.534 55.6489C65.5337 56.482 66.5334 56.9818 68.3661 56.9818C69.95 56.9818 70.7873 56.4841 71.7382 55.9187L71.7385 55.9186L71.7405 55.9174L71.7414 55.9169C71.8898 55.8286 72.041 55.7388 72.1982 55.6489C73.3645 54.8158 75.0307 53.8162 77.8631 53.8162C78.8628 53.8162 79.5292 54.4826 79.5292 55.4823C79.5292 56.482 78.8628 57.1484 77.8631 57.1484C76.2792 57.1484 75.442 57.6462 74.491 58.2115L74.4908 58.2116L74.4889 58.2128L74.4881 58.2132C74.3396 58.3015 74.1883 58.3914 74.031 58.4813C72.8647 59.3144 71.1986 60.3141 68.3661 60.3141C65.6266 60.3141 64.134 59.3789 62.833 58.5638L62.7013 58.4813C61.7016 57.6483 60.7019 57.1484 58.8692 57.1484C57.2853 57.1484 56.448 57.6462 55.4971 58.2115L55.4969 58.2116C55.3475 58.3004 55.1953 58.3909 55.0371 58.4813C53.8708 59.3144 52.2046 60.3141 49.3722 60.3141C46.6327 60.3141 45.14 59.3789 43.8391 58.5638L43.7073 58.4813C42.7077 57.6483 41.708 57.1484 39.8752 57.1484C38.2913 57.1484 37.4541 57.6462 36.5031 58.2115L36.5029 58.2116C36.3536 58.3004 36.2014 58.3909 36.0431 58.4813C34.8768 59.3144 33.2107 60.3141 30.3783 60.3141C27.6387 60.3141 26.1461 59.3789 24.8451 58.5638L24.7134 58.4813C23.7137 57.6483 22.714 57.1484 20.8813 57.1484C19.2974 57.1484 18.4601 57.6462 17.5092 58.2115L17.5088 58.2117C17.3595 58.3005 17.2074 58.3909 17.0492 58.4813C15.8829 59.3144 14.2167 60.3141 11.3843 60.3141C8.64479 60.3141 7.15216 59.3789 5.85119 58.5638L5.71945 58.4813ZM23.5471 45.3189H49.2056V34.8222H23.5471V45.3189ZM40.2085 53.8162C37.376 53.8162 35.7099 54.8158 34.5436 55.6489C34.3853 55.7394 34.2331 55.8298 34.0838 55.9186L34.0836 55.9187C33.1326 56.4841 32.2954 56.9818 30.7115 56.9818C28.8787 56.9818 27.879 56.482 26.8794 55.6489C26.789 55.5947 26.6966 55.5385 26.6021 55.481C25.8254 55.0084 24.902 54.4465 23.7137 54.1494V48.4845H49.3722V56.8152C47.8459 56.8152 47.0187 56.2559 46.1221 55.6497C46.0399 55.5942 45.9572 55.5382 45.8733 55.4823L45.7761 55.4267C44.6147 54.7617 42.9631 53.8162 40.2085 53.8162ZM49.3722 31.3233V20.8267H23.5471V31.3233H49.3722ZM78.5296 63.813C75.6971 63.813 74.031 64.8127 72.8647 65.6457C72.7063 65.7362 72.5541 65.8267 72.4047 65.9155C71.4537 66.4809 70.6165 66.9786 69.0326 66.9786C67.5331 66.9786 66.3668 65.979 65.2005 64.9793C63.701 63.6464 61.2017 61.4804 58.2027 64.3128C54.5372 67.8117 54.3706 67.8117 52.038 67.3119C51.7573 67.2183 51.4241 67.1773 51.0383 67.1298C50.7371 67.0927 50.4039 67.0517 50.0386 66.9786C48.2059 66.6454 47.2062 66.1456 46.2065 65.4791C44.8736 64.646 43.3741 63.813 40.3751 63.813C37.5426 63.813 35.8765 64.8127 34.7102 65.6457C34.5519 65.7362 34.3997 65.8266 34.2504 65.9154L34.2502 65.9156C33.2992 66.4809 32.462 66.9786 30.8781 66.9786C29.0453 66.9786 28.0457 66.4788 27.046 65.6457L26.9142 65.5633C25.6133 64.7481 24.1206 63.813 21.3811 63.813C18.5487 63.813 16.8826 64.8127 15.7163 65.6457C15.5579 65.7362 15.4057 65.8267 15.2563 65.9155C14.3053 66.4809 13.468 66.9786 11.8842 66.9786C10.0514 66.9786 9.05172 66.4788 8.05204 65.6457L7.92031 65.5633C6.61933 64.7481 5.12671 63.813 2.38718 63.813C1.3875 63.813 0.721048 64.4794 0.721048 65.4791C0.721048 66.4788 1.3875 67.1452 2.38718 67.1452C4.21993 67.1452 5.21961 67.6451 6.21929 68.4781L6.35103 68.5606C7.652 69.3757 9.14463 70.3109 11.8842 70.3109C14.7166 70.3109 16.3827 69.3112 17.549 68.4781C17.7074 68.3876 17.8596 68.2971 18.0091 68.2083C18.96 67.643 19.7973 67.1452 21.3811 67.1452C23.2139 67.1452 24.2136 67.6451 25.2132 68.4781L25.345 68.5606C26.6459 69.3757 28.1386 70.3109 30.8781 70.3109C33.7105 70.3109 35.3767 69.3112 36.5429 68.4781C36.7013 68.3877 36.8534 68.2972 37.0028 68.2085L37.003 68.2083C37.9539 67.643 38.7912 67.1452 40.3751 67.1452C42.5007 67.1452 43.3426 67.6266 44.4756 68.2745L44.5404 68.3115C44.6022 68.3469 44.6645 68.3827 44.7275 68.4189C45.8518 69.0649 47.181 69.8287 49.7054 70.1443C50.0178 70.2224 50.3302 70.2639 50.6255 70.3031L50.6257 70.3031H50.6257C50.9602 70.3475 51.2727 70.389 51.5382 70.4775L51.5383 70.4775H51.5384C52.3714 70.6441 53.2044 70.8107 53.8708 70.8107C55.8701 70.8107 57.3696 69.8111 60.7019 66.6454C60.7479 66.6086 60.7913 66.5733 60.8327 66.5398C61.5401 65.9656 61.6269 65.8951 63.2011 67.3119L63.2971 67.3959C64.6218 68.5565 66.4341 70.1443 69.1992 70.1443C72.0316 70.1443 73.6978 69.1446 74.8641 68.3115C75.0224 68.2211 75.1745 68.1306 75.3239 68.0418L75.3241 68.0417C76.275 67.4764 77.1123 66.9786 78.6962 66.9786C79.6958 66.9786 80.3623 66.3122 80.3623 65.3125C80.3623 64.3128 79.5292 63.813 78.5296 63.813ZM72.8647 75.4759C74.031 74.6429 75.6971 73.6432 78.5296 73.6432C79.5292 73.6432 80.1957 74.3096 79.5292 75.1427C79.5292 76.1424 78.8628 76.8088 77.8631 76.8088C76.2792 76.8088 75.442 77.3066 74.491 77.8719C74.3416 77.9607 74.1894 78.0512 74.031 78.1417C72.8647 78.9748 71.1986 79.9745 68.3661 79.9745C65.6266 79.9745 64.134 79.0393 62.833 78.2242C62.7889 78.1966 62.745 78.1691 62.7013 78.1417C61.7016 77.3087 60.7019 76.8088 58.8692 76.8088C57.2853 76.8088 56.448 77.3066 55.4971 77.8719C55.3476 77.9607 55.1954 78.0512 55.0371 78.1417C53.8708 78.9748 52.2046 79.9745 49.3722 79.9745C46.6327 79.9745 45.14 79.0393 43.8391 78.2242C43.795 78.1966 43.7511 78.1691 43.7073 78.1417C42.7077 77.3087 41.708 76.8088 39.8752 76.8088C38.2913 76.8088 37.4541 77.3066 36.5031 77.8719C36.3537 77.9607 36.2015 78.0512 36.0431 78.1417C34.8768 78.9748 33.2107 79.9745 30.3783 79.9745C27.6387 79.9745 26.1461 79.0393 24.8451 78.2242C24.801 78.1966 24.7571 78.1691 24.7134 78.1417C23.7137 77.3087 22.714 76.8088 20.8813 76.8088C19.2974 76.8088 18.4601 77.3066 17.5092 77.8719C17.3598 77.9607 17.2075 78.0512 17.0492 78.1417C15.8829 78.9748 14.2167 79.9745 11.3843 79.9745C8.55188 79.9745 7.05236 78.9748 6.38591 78.3083C5.38623 77.4753 4.38654 76.9754 2.5538 76.9754C1.55412 76.9754 0.887661 76.309 0.887661 75.3093C0.887661 74.3096 1.55412 73.6432 2.5538 73.6432C5.29332 73.6432 6.78594 74.5783 8.08692 75.3935C8.13104 75.4211 8.17494 75.4486 8.21866 75.4759C9.21834 76.309 10.218 76.8088 12.0508 76.8088C13.6346 76.8088 14.4719 76.3111 15.4228 75.7458C15.5723 75.6569 15.7245 75.5664 15.8829 75.4759C17.0492 74.6429 18.7153 73.6432 21.5477 73.6432C24.2873 73.6432 25.7799 74.5783 27.0809 75.3934C27.125 75.4211 27.1689 75.4486 27.2126 75.4759C28.2123 76.309 29.212 76.8088 31.0447 76.8088C32.6286 76.8088 33.4658 76.3111 34.4168 75.7458C34.5662 75.6569 34.7184 75.5664 34.8768 75.4759C36.0431 74.6429 37.7092 73.6432 40.5417 73.6432C43.2812 73.6432 44.7738 74.5783 46.0748 75.3935C46.1189 75.4211 46.1628 75.4486 46.2065 75.4759C47.2062 76.309 48.2059 76.8088 50.0386 76.8088C51.6225 76.8088 52.4598 76.3111 53.4107 75.7458C53.5601 75.6569 53.7124 75.5664 53.8708 75.4759C55.0371 74.6429 56.7032 73.6432 59.5356 73.6432C62.2751 73.6432 63.7678 74.5783 65.0687 75.3934C65.1129 75.4211 65.1568 75.4486 65.2005 75.4759C66.2002 76.309 67.1998 76.8088 69.0326 76.8088C70.6165 76.8088 71.4537 76.3111 72.4047 75.7458C72.5541 75.6569 72.7063 75.5664 72.8647 75.4759Z" fill="#CE8D3B"/>
</svg>
