<svg width="67" height="80" viewBox="0 0 67 80" fill="none" xmlns="http://www.w3.org/2000/svg">
<path fill-rule="evenodd" clip-rule="evenodd" d="M21.8156 28.7441C21.9724 28.7898 22.1317 28.812 22.2905 28.812L22.2905 28.8116C22.6857 28.8116 23.0743 28.6731 23.384 28.4118L29.0691 23.6131V76.6094H6.6988C5.01682 76.6094 3.64835 75.2411 3.64835 73.559V6.43991C3.64835 4.75794 5.01672 3.38947 6.6988 3.38947H13.1258L20.6725 27.6213C20.841 28.1634 21.2708 28.5847 21.8156 28.7441ZM34.1536 76.6094H32.4592L32.4592 21.0005L33.5422 19.8711L34.1536 20.553V76.6094ZM35.8487 80L59.9151 80C63.4661 80 66.3558 77.1108 66.3558 73.5593V6.44025C66.3558 2.88932 63.4659 0.00024247 59.9151 0.00024247H20.1518L20.1231 0H14.3736L14.3449 0.00024247H6.6988C3.14786 0.00024247 0.258789 2.88948 0.258789 6.44025V73.5593C0.258789 77.1109 3.14803 80 6.6988 80L30.7642 80H35.8487ZM37.5431 76.6094V23.1382L43.1706 28.3594C43.488 28.654 43.9009 28.812 44.3235 28.812L44.3235 28.8116C44.4652 28.8116 44.6083 28.7939 44.7487 28.7573C45.3078 28.6123 45.7553 28.1917 45.9343 27.6423L53.8519 3.38947H59.9158C61.5978 3.38947 62.9662 4.75784 62.9662 6.43991L62.9656 73.559C62.9656 75.241 61.5972 76.6094 59.9151 76.6094H37.5431ZM31.4144 17.1923L19.3538 3.38947H16.6762L23.1488 24.1733L31.3943 17.2132L31.4144 17.1923ZM43.2741 3.38947L33.7972 14.7676L23.8549 3.38947H43.2741ZM47.6854 3.38947L36.1584 17.2293L43.5344 24.073L50.2859 3.38947H47.6854ZM49.2154 57.287C49.4675 57.4235 49.7458 57.4921 50.024 57.4921H50.0234C50.2906 57.4921 50.5578 57.4294 50.8014 57.3033L60.3532 52.3696C60.9163 52.0789 61.2703 51.4976 61.2703 50.864V37.2865C61.2703 36.3504 60.5113 35.5914 59.5752 35.5914H40.9334C39.9967 35.5914 39.2383 36.3504 39.2383 37.2865L39.2377 50.8633C39.2377 51.4852 39.578 52.0567 40.1241 52.3533L49.2154 57.287ZM50.0438 53.8798L42.6278 49.8554L42.6285 38.9807H57.8816V49.8312L50.0438 53.8798ZM16.1284 57.4921C15.8501 57.4921 15.5718 57.4235 15.3204 57.287L6.22907 52.3533C5.683 52.0567 5.34267 51.4852 5.34267 50.8633L5.34202 37.2865C5.34202 36.3504 6.10039 35.5914 7.03646 35.5914H25.6799C26.616 35.5914 27.3744 36.3504 27.3744 37.2865V50.864C27.3744 51.4976 27.0203 52.0789 26.4572 52.3696L16.9054 57.3033C16.6624 57.4294 16.3953 57.4921 16.1288 57.4921H16.1284ZM8.73153 49.8554L16.1474 53.8798L23.9846 49.8312V38.9807H8.73153V49.8554Z" fill="#CE8D3B"/>
</svg>
