<svg width="56" height="80" viewBox="0 0 56 80" fill="none" xmlns="http://www.w3.org/2000/svg">
<path fill-rule="evenodd" clip-rule="evenodd" d="M38.0561 18.018H51.0291C52.1758 18.0193 53.275 18.4755 54.0858 19.2857C54.896 20.0965 55.3522 21.1957 55.3535 22.3424V68.4685C55.3522 69.6152 54.896 70.7144 54.0858 71.5252C53.2749 72.3354 52.1758 72.7916 51.0291 72.7929H48.1462V74.2343C48.1462 76.294 47.0471 78.1976 45.2633 79.2278C43.4796 80.2574 41.2813 80.2574 39.4976 79.2278C37.7138 78.1977 36.6147 76.2942 36.6147 74.2343V72.7929H19.3174V74.2343C19.3174 76.294 18.2183 78.1976 16.4345 79.2278C14.6508 80.2574 12.4525 80.2574 10.6688 79.2278C8.88497 78.1977 7.78587 76.2942 7.78587 74.2343V72.7929H4.90299C3.75626 72.7916 2.65712 72.3354 1.84631 71.5252C1.03613 70.7144 0.5799 69.6152 0.578613 68.4685V22.3424C0.579898 21.1957 1.03613 20.0965 1.84631 19.2857C2.65714 18.4755 3.75627 18.0193 4.90299 18.018H17.876V8.64865C16.3309 8.64865 14.9037 7.82432 14.1308 6.48649C13.3586 5.14866 13.3586 3.5 14.1308 2.16216C14.9036 0.824323 16.3309 0 17.876 0H38.0561C39.6012 0 41.0284 0.824323 41.8012 2.16216C42.5734 3.49998 42.5734 5.14865 41.8012 6.48649C41.0285 7.82432 39.6012 8.64865 38.0561 8.64865V18.018ZM52.4705 28.1081V22.3423C52.4699 21.5463 51.8251 20.9015 51.0291 20.9009H45.2633V23.7838H49.5877V28.1081H52.4705ZM39.0754 42.1004C39.3457 41.8301 39.4976 41.4633 39.4976 41.0811V35.9118L41.9584 38.3726C42.2293 38.6429 42.3812 39.0097 42.3805 39.3926V52.6127C42.3799 53.4087 41.7351 54.0535 40.9391 54.0541H35.1733C34.3773 54.0535 33.7325 53.4087 33.7319 52.6127V39.3926C33.7312 39.0097 33.8831 38.6429 34.154 38.3726L36.6149 35.9118V41.0811C36.6149 41.4633 36.7667 41.8301 37.037 42.1004C37.3073 42.3706 37.6741 42.5225 38.0563 42.5225C38.4384 42.5225 38.8052 42.3706 39.0754 42.1004ZM17.876 2.88288C17.08 2.88352 16.4352 3.52832 16.4345 4.32432C16.4352 5.12033 17.08 5.76512 17.876 5.76576H38.0561C38.8521 5.76576 39.4976 5.12033 39.4976 4.32432C39.4976 3.52832 38.8521 2.88288 38.0561 2.88288H17.876ZM20.7588 8.64865H35.1732V18.018H20.7588V8.64865ZM36.6147 31.8359V20.9009H13.5516V26.6667H9.22728V30.991H3.46151V59.8198H9.22728V64.1441H13.5516V69.9099H42.3804V64.1441H46.7048V59.8198H52.4705V30.991H46.7048V26.6667H42.3804V20.9009H39.4975V31.8359L43.9963 36.3347C44.8103 37.1436 45.2666 38.2452 45.2634 39.3925V52.6126C45.2621 53.7593 44.8058 54.8585 43.9957 55.6693C43.1848 56.4795 42.0857 56.9357 40.939 56.937H35.1732C34.0265 56.9357 32.9274 56.4795 32.1166 55.6693C31.3064 54.8584 30.8501 53.7593 30.8489 52.6126V39.3925C30.8456 38.2453 31.3019 37.1436 32.1159 36.3347L36.6147 31.8359ZM4.90299 20.9009H10.6688V23.7838H6.34443V28.1081H3.46154V22.3423C3.46219 21.5463 4.10698 20.9015 4.90299 20.9009ZM3.46154 62.7027V68.4685C3.46219 69.2645 4.10698 69.9093 4.90299 69.9099H10.6688V67.027H6.34443V62.7027H3.46154ZM16.4345 74.2342C16.4345 75.2645 15.885 76.2162 14.9931 76.731C14.1012 77.2458 13.0021 77.2458 12.1102 76.731C11.2183 76.2162 10.6688 75.2644 10.6688 74.2342V72.7928H16.4345V74.2342ZM43.8219 76.731C44.7138 76.2162 45.2633 75.2645 45.2633 74.2342V72.7928H39.4976V74.2342C39.4976 75.2644 40.0471 76.2162 40.939 76.731C41.8309 77.2458 42.93 77.2458 43.8219 76.731ZM51.0291 69.9099H45.2633V67.027H49.5877V62.7027H52.4705V68.4685C52.4699 69.2645 51.8251 69.9093 51.0291 69.9099ZM22.2003 38.1982H12.1102V41.0811H22.2003V38.1982ZM6.34443 38.1982H9.22731V41.0811H6.34443V38.1982ZM22.2003 43.964H12.1102V46.8468H22.2003V43.964ZM6.34443 43.964H9.22731V46.8468H6.34443V43.964ZM22.2003 49.7297H12.1102V52.6126H22.2003V49.7297ZM6.34443 49.7297H9.22731V52.6126H6.34443V49.7297ZM27.966 38.1982H25.0832V41.0811H27.966V38.1982ZM25.0832 43.964H27.966V46.8468H25.0832V43.964ZM27.966 49.7297H25.0832V52.6126H27.966V49.7297Z" fill="#CE8D3B"/>
</svg>
