<svg width="23" height="14" viewBox="0 0 23 14" fill="none" xmlns="http://www.w3.org/2000/svg">
<path d="M22.0975 0.589434H18.3652C18.0548 0.589432 17.7696 0.76487 17.6228 1.04604C17.6228 1.04604 16.1342 3.86445 15.6561 4.81374C14.3697 7.36746 13.5367 6.56576 13.5367 5.38056V1.29396C13.5367 0.58285 12.976 0.00637768 12.2843 0.00637768H9.47811C8.70109 -0.0530162 7.94957 0.305493 7.49199 0.953844C7.49199 0.953844 8.91693 0.716983 8.91693 2.69086C8.91693 3.18032 8.94146 4.58839 8.9638 5.7694C8.97243 6.12587 8.76388 6.45003 8.44142 6.58136C8.11895 6.71269 7.75104 6.62331 7.51987 6.35748C6.37125 4.71511 5.41982 2.93611 4.68623 1.05914C4.55758 0.772425 4.27831 0.588974 3.97117 0.589434C3.16175 0.589434 1.54203 0.589434 0.580136 0.589434C0.390793 0.588109 0.212901 0.682503 0.104269 0.841941C-0.00436377 1.00138 -0.0298711 1.20551 0.0360358 1.388C1.06572 4.29169 5.50126 13.4167 10.564 13.4167H12.6949C13.1598 13.4167 13.5367 13.0292 13.5367 12.5512V11.2284C13.5367 10.8892 13.7327 10.5825 14.0355 10.4478C14.3383 10.3132 14.69 10.3763 14.9304 10.6086L17.4809 13.0722C17.71 13.2935 18.0125 13.4167 18.3268 13.4167H21.6761C23.2914 13.4167 23.2914 12.2643 22.4107 11.3725C21.7909 10.745 19.5542 8.32126 19.5542 8.32126C19.1585 7.89976 19.1208 7.24456 19.4654 6.77799C20.1883 5.7999 21.3708 4.19884 21.8723 3.51296C22.5578 2.57547 23.7984 0.589434 22.0975 0.589434Z" fill="#0577FF"/>
</svg>
