<svg width="35" height="66" viewBox="0 0 35 66" fill="none" xmlns="http://www.w3.org/2000/svg">
<path fill-rule="evenodd" clip-rule="evenodd" d="M8.58941 6.12854L8.93588 6.627C9.13411 6.95903 9.33332 7.31933 9.53419 7.68263L9.53424 7.68272C9.85015 8.2541 10.1702 8.8329 10.4969 9.32085C10.855 9.32085 13.7399 8.92477 13.9923 8.88432L14.141 8.86042C14.9403 8.73201 15.6767 8.61372 16.4316 8.36705L16.5011 8.3446C16.8964 8.21755 17.1717 8.12905 16.8776 7.62057C16.7763 7.44584 16.5813 7.27623 16.4103 7.17822C16.3798 7.16072 16.3437 7.14592 16.3069 7.13083L16.3069 7.13083C16.2342 7.101 16.1588 7.07007 16.1184 7.01503C16.4483 6.98758 16.8212 6.58389 16.9825 6.31918C16.9981 6.29353 17.0143 6.26434 17.0311 6.23414L17.0312 6.23409C17.08 6.14631 17.1335 6.05012 17.1908 6.00812C17.1992 6.10677 17.2799 6.23474 17.3342 6.32087L17.3463 6.34014C17.5311 6.63632 17.8415 6.9319 18.1981 7.01503C18.1836 7.03491 18.1291 7.06614 18.0538 7.10927C17.8028 7.25304 17.321 7.52898 17.321 7.95695C17.321 8.21451 17.5521 8.27607 17.7599 8.33142C17.8034 8.34299 17.8458 8.35429 17.8849 8.36705C18.4007 8.53528 18.9262 8.64775 19.4655 8.73601C19.5884 8.75623 19.7144 8.78031 19.8402 8.80437L19.8403 8.80438C20.0025 8.8354 20.1646 8.86639 20.3198 8.88902C20.8558 8.96754 21.4034 9.03633 21.9276 9.10217L22.0418 9.11652C22.2057 9.137 22.3651 9.15469 22.5202 9.17191L22.5202 9.17191C22.6553 9.18691 22.7872 9.20155 22.916 9.21736C23.0023 9.22802 23.0908 9.24161 23.1807 9.25541C23.3903 9.28756 23.6072 9.32085 23.8195 9.32085C24.1546 8.82066 24.4295 8.32204 24.7024 7.82695L24.7024 7.82691C25.0973 7.1105 25.4882 6.40146 26.0515 5.7057L26.7847 4.78157C26.8769 4.66945 27.7019 3.61515 27.5778 3.55871C27.4455 3.49832 25.726 4.30348 25.5358 4.44306C25.3274 4.59559 25.3731 4.75818 25.4109 4.89251C25.4463 5.01811 25.4746 5.119 25.2819 5.16388C25.2637 5.12591 25.2487 5.09179 25.2349 5.06037L25.2349 5.06029C25.1812 4.93827 25.1455 4.85707 25.0138 4.74976C24.2359 4.11865 23.2137 5.31689 23.9949 5.93072L24.0318 5.95997C24.1717 6.07129 24.2963 6.17054 24.5346 6.17054C24.4565 6.5058 24.3892 6.73622 24.1505 6.92318C23.3294 7.56703 21.7858 7.22697 21.5865 6.12966C21.5449 5.90182 21.562 5.78768 21.5823 5.65162C21.5943 5.57102 21.6075 5.48273 21.6103 5.35854C22.0599 5.35854 22.5204 4.91577 22.5204 4.4818V4.22205C22.5204 3.81845 22.0462 3.34531 21.6425 3.34531H21.4153C20.9911 3.34531 20.5053 3.85745 20.5053 4.2868C20.5053 4.68399 20.6525 5.12916 21.0255 5.22905C21.0255 5.48983 20.9738 5.56355 20.8638 5.7169C20.2916 6.5141 18.8286 6.5785 18.1406 5.90318C17.1666 4.9469 17.7854 3.89731 18.3283 3.89731C18.6715 3.89731 18.7942 3.95622 18.8917 4.00307C18.9561 4.03398 19.0095 4.05964 19.1082 4.05964C19.446 4.05964 18.941 3.15108 18.733 2.97319C18.5482 2.81581 18.494 2.7905 18.1667 2.79229C18.1049 2.79264 18.0504 2.79431 18.0012 2.79581C17.7938 2.80214 17.6799 2.80562 17.516 2.69573C17.5664 2.6005 17.6255 2.53863 17.6831 2.47834C17.7665 2.39114 17.8466 2.30723 17.8928 2.1304C18.0208 1.63956 17.7687 1.14481 17.556 0.72731L17.5272 0.670619C17.4946 0.606796 17.4551 0.545176 17.4154 0.483385L17.4154 0.483353C17.3197 0.334339 17.2234 0.184326 17.2234 0H17.1261C17.1147 0.136999 17.0051 0.325993 16.875 0.550409C16.6688 0.906153 16.411 1.35091 16.411 1.81865C16.411 2.02837 16.4262 2.23491 16.5539 2.39049L16.6516 2.48773L16.6678 2.50407L16.8009 2.69573C16.6265 2.81233 16.4433 2.8029 16.2579 2.79336C16.0287 2.78156 15.7964 2.76961 15.5741 2.99559C15.2992 3.27518 15.111 3.62097 15.111 4.05964C15.2598 4.05964 15.3925 4.01633 15.5229 3.97374C15.7546 3.89809 15.9794 3.82471 16.2753 4.00037C16.789 4.3045 16.7788 5.00155 16.5192 5.46665C16.2373 5.97228 15.7498 6.36545 15.0785 6.36545H14.8188C14.1548 6.36545 13.3087 5.85691 13.2592 5.26121C14.3016 4.70965 13.7074 3.34531 12.9015 3.34531H12.674C12.2703 3.34531 11.7969 3.81845 11.7969 4.22205V4.4818C11.7969 4.91688 12.2667 5.35854 12.7065 5.35854C12.7113 5.41494 12.7236 5.48095 12.7363 5.54859L12.7363 5.54861L12.7363 5.54864C12.7535 5.6406 12.7713 5.73559 12.7713 5.81355C12.7713 6.60202 12.0949 7.24219 11.3094 7.24219C10.8388 7.24219 10.5364 7.18942 10.1899 6.93224C9.93125 6.74015 9.85239 6.47219 9.78226 6.17054C10.4206 6.17054 10.893 5.34075 10.3924 4.84563C10.03 4.48685 9.41338 4.47273 9.14132 4.94579C9.12295 4.97777 9.11023 5.00573 9.09878 5.03087C9.07465 5.08391 9.05621 5.12443 9.00242 5.16388C8.96931 5.14529 8.96561 5.14451 8.93905 5.13894C8.93056 5.13716 8.91972 5.13488 8.90484 5.13138C8.87247 4.99309 8.90423 4.91203 8.93165 4.84201C8.96743 4.75068 8.99584 4.67814 8.86498 4.52191C8.72694 4.35764 8.20144 4.13216 7.80707 3.96296L7.80705 3.96295C7.66924 3.90382 7.54744 3.85156 7.46379 3.81118L7.4627 3.81066C7.27101 3.71784 7.06774 3.61942 6.8544 3.56811C6.68181 3.52655 6.68651 3.57034 6.75596 3.70119C6.96243 4.09279 7.51428 4.77886 8.00057 5.38342L8.00059 5.38344C8.22398 5.66116 8.43353 5.92168 8.58941 6.12854ZM31.2501 22.0455V22.0455V22.0454C31.2522 21.9368 31.2542 21.8352 31.2631 21.7283C31.3159 21.0808 31.3774 19.4008 31.3275 18.8019C31.3162 18.6626 31.3197 18.4892 31.3231 18.3263V18.3262V18.3262C31.3245 18.2546 31.326 18.1851 31.3261 18.1215C31.3262 17.9864 31.3171 17.8769 31.3084 17.7719V17.7719V17.7719L31.3084 17.7718C31.3002 17.6739 31.2924 17.58 31.2928 17.4729C31.2964 16.4841 30.96 14.9107 30.5 14.1407C30.4733 14.0961 30.4496 14.055 30.427 14.0158L30.4269 14.0157C30.3688 13.9149 30.3175 13.8258 30.2399 13.7186C29.8518 13.1815 29.3766 12.7688 28.8057 12.4241L27.4147 11.7684C27.0537 11.6457 26.7539 11.5527 26.3756 11.4432C25.0147 11.0474 23.5601 10.8338 22.0339 10.6096L22.0339 10.6096L21.7868 10.5733C21.5743 10.542 21.3115 10.5055 21.02 10.4651C19.9319 10.3142 18.4439 10.1079 17.678 9.90565C17.6457 9.89705 17.5743 9.87465 17.4946 9.84963C17.3532 9.80527 17.1855 9.75268 17.1633 9.7541L16.6193 9.91899C16.2138 10.022 15.7195 10.1012 15.2649 10.174C15.1353 10.1947 15.0088 10.215 14.8886 10.2351C14.436 10.3106 13.8842 10.39 13.2754 10.4775H13.2754L13.2754 10.4775C10.8278 10.8296 7.45938 11.314 5.91642 12.2125C5.14753 12.6607 4.59015 13.0122 4.07613 13.7829C3.37378 14.8359 3.06776 16.2609 3.0569 17.5384C3.05609 17.632 3.0481 17.6767 3.03981 17.723C3.03323 17.7598 3.02646 17.7976 3.02294 17.8617V19.5183C3.02287 19.5677 3.02238 19.6349 3.02181 19.7133C3.01914 20.0779 3.01472 20.684 3.0421 20.8635C3.05937 20.9782 3.05665 21.0978 3.05393 21.2168C3.05154 21.3218 3.04915 21.4263 3.06049 21.5268L3.15389 22.7978C3.16088 23.0977 3.18904 23.3852 3.21737 23.6745C3.22995 23.8029 3.24255 23.9316 3.25336 24.0619C3.41569 25.9995 5.67019 47.4444 17.3296 47.4444C28.9891 47.4444 30.9332 26.435 31.0997 23.9682L31.2049 22.7099C31.2425 22.4296 31.2465 22.2277 31.2501 22.0455V22.0455ZM27.2845 11.0865C28.5219 11.5018 29.2756 11.769 30.2131 12.7066C32.0093 14.5015 32.0084 17.0286 32.0076 19.6096C32.0075 19.8387 32.0074 20.0683 32.0086 20.2978C32.0093 20.424 32.0003 20.5134 31.9915 20.6013C31.9831 20.6856 31.9748 20.7685 31.9753 20.8812C31.9768 21.308 31.9659 21.6682 31.9435 22.0838C31.9399 22.1509 31.9333 22.1849 31.9268 22.218C31.9194 22.2558 31.9123 22.2923 31.9102 22.3754L31.6948 25.4844C31.6533 25.7997 31.6181 26.1329 31.5823 26.4717L31.5823 26.4718C31.5057 27.1969 31.4264 27.947 31.2777 28.5986C31.2504 28.7184 31.2135 28.9688 31.161 29.326L31.161 29.3261V29.3261C30.6138 33.0453 28.3636 48.3418 17.3448 48.3418C6.45408 48.3418 4.34706 35.3548 3.73897 31.6066C3.67272 31.1983 3.62426 30.8996 3.58417 30.7393C3.38012 29.9228 3.29333 29.195 3.20505 28.4547C3.13515 27.8685 3.0643 27.2744 2.93357 26.6223C2.39252 23.919 2.34078 21.138 2.34078 18.3164C2.34078 16.2512 2.684 14.6894 3.51045 13.4451C3.73325 13.1095 3.93544 12.907 4.21725 12.6252C4.49649 12.3463 4.71168 12.1807 5.04404 11.9575C5.6382 11.5595 6.30659 11.3379 6.99364 11.1101L6.99365 11.1101L7.13749 11.0623C8.94937 10.4577 11.0924 10.1599 13.1559 9.87326H13.1559L13.1559 9.87326C13.9215 9.76689 14.6762 9.66205 15.3989 9.54361L15.4683 9.53223C15.8445 9.47055 16.2783 9.39941 16.6349 9.28498C16.6803 9.27038 16.722 9.25812 16.7598 9.24696L16.7599 9.24693C16.9659 9.18626 17.0609 9.1583 17.0609 8.9634C17.1457 8.98603 17.1651 8.99959 17.1715 9.00407C17.1731 9.00518 17.1739 9.00573 17.1747 9.00573C17.1755 9.00573 17.1762 9.00518 17.1778 9.00407C17.1842 8.99959 17.2036 8.98603 17.2884 8.9634C17.2884 9.13111 17.3097 9.13839 17.4036 9.17034C17.4184 9.17539 17.435 9.18106 17.4537 9.18808C17.8312 9.3295 18.2462 9.40677 18.6531 9.48253C18.7726 9.50478 18.8913 9.52689 19.0083 9.55046C19.2101 9.591 19.4137 9.62931 19.6419 9.66438C20.2017 9.75049 20.7773 9.83042 21.3594 9.91126C23.3838 10.1924 25.4881 10.4846 27.2845 11.0865ZM22.9359 23.0191C23.4278 22.2882 23.7598 21.3749 24.0112 20.5213C24.5754 18.6 24.3226 17.9638 22.7243 17.2678C22.376 17.1159 21.9239 16.9746 21.526 16.8743C20.3129 16.5694 19.5899 16.6599 18.4459 17.0375C18.1358 17.14 17.8455 17.3122 17.6157 17.4487C17.4374 17.5545 17.2954 17.6387 17.2089 17.652L17.066 17.631C16.9353 17.5804 16.8349 17.5159 16.7187 17.4412C16.5266 17.3179 16.2915 17.1668 15.8059 17.0053C15.2836 16.8313 14.8213 16.6928 14.1363 16.6928C13.206 16.6928 12.1303 17.0273 11.2872 17.4176C11.2249 17.4464 11.1825 17.4725 11.137 17.5005C11.1076 17.5187 11.0768 17.5376 11.0384 17.5586C10.5046 17.8481 10.0749 18.2726 10.0749 18.9335C10.0749 20.1437 10.7595 22.044 11.4265 23.0387C12.2638 24.2883 12.3744 24.1621 13.0136 23.1048C13.3011 22.6285 13.7572 21.7062 13.988 21.1561C14.5003 19.9335 14.388 19.9499 14.0879 19.9937L14.0878 19.9937C14.0621 19.9974 14.035 20.0014 14.0068 20.0048L13.2997 20.1104C12.7582 20.2294 12.6432 20.1987 12.232 19.9277C11.9849 19.765 11.2634 19.1212 11.2116 18.9012C11.3386 18.8167 11.4207 18.7711 11.6345 18.7711H12.934C13.2224 18.7711 13.4892 18.7959 13.7526 18.8205H13.7526H13.7527C14.019 18.8453 14.2818 18.8698 14.5598 18.868C14.873 18.8658 15.0242 18.9295 15.1161 19.1559C15.3587 19.7546 14.8925 21.1603 14.6674 21.8386L14.6441 21.9091C14.6 22.0424 14.5569 22.1545 14.513 22.2689C14.4815 22.3507 14.4496 22.4337 14.4166 22.5265C14.1164 23.3682 13.4957 24.6175 13.0295 25.3947C12.6495 26.0289 12.3744 26.3646 12.2053 26.571C12.0732 26.7322 12.0057 26.8145 12.0035 26.8985C12.0012 26.9861 12.0696 27.0756 12.2095 27.2583C12.3305 27.4164 12.5048 27.6441 12.7329 28.0007C12.8243 28.1436 12.8936 28.2679 12.9534 28.3751L12.9534 28.3751C13.1759 28.7742 13.2664 28.9364 13.8762 28.9364C14.3177 28.9364 15.2057 28.577 15.7198 28.3689L15.8539 28.3147C15.9363 28.2816 16.0121 28.2535 16.0818 28.2277C16.3717 28.1204 16.5548 28.0525 16.6612 27.8224C16.7774 27.5711 16.8334 27.0893 16.8334 26.7276L16.8334 26.685V26.6849C16.8335 26.368 16.8336 26.2196 16.761 26.1306C16.697 26.0521 16.5766 26.0197 16.3504 25.9587L16.3503 25.9587C16.1943 25.9166 15.9878 25.861 15.7147 25.7673C14.7927 25.4504 14.9284 23.9715 15.4116 23.8782C15.9187 23.7805 18.4936 23.7617 18.9641 23.8843C19.3935 23.9961 19.5931 25.4642 18.5851 25.7829C18.5215 25.8029 18.4408 25.8226 18.3523 25.8443C17.9968 25.9313 17.5159 26.049 17.5159 26.338V26.3611C17.5159 26.8432 17.5158 27.4466 17.6903 27.8524C17.7776 28.0554 18.1118 28.1757 18.365 28.2667L18.365 28.2667C18.4213 28.287 18.4736 28.3058 18.5182 28.3237C18.5595 28.3403 18.6049 28.3588 18.6538 28.3787L18.6538 28.3787L18.6539 28.3787C19.1571 28.5834 20.0251 28.9364 20.4731 28.9364H20.4889C20.8779 28.9365 21.0293 28.9365 21.2663 28.5929C21.3579 28.4606 21.4163 28.3557 21.476 28.2485L21.476 28.2485L21.476 28.2484C21.558 28.1012 21.6425 27.9495 21.819 27.7161C21.8572 27.6655 21.8869 27.6231 21.9165 27.5808L21.9165 27.5807C21.9451 27.5399 21.9735 27.4991 22.0096 27.4513L22.0217 27.4351C22.1135 27.3124 22.3579 26.9858 22.3579 26.8578L21.7268 26.0266C21.6796 25.9584 21.6437 25.9036 21.6052 25.8448L21.6051 25.8446C21.5826 25.8103 21.5592 25.7745 21.5322 25.734L20.8197 24.4977C20.1461 23.1479 19.5385 21.7312 19.235 20.2356C19.1479 19.8055 19.0025 18.9356 19.6311 18.872L21.4804 18.7711C21.5878 18.7711 21.7132 18.7647 21.8471 18.7579C22.2986 18.735 22.8479 18.7071 23.1377 18.9012C23.1054 19.0394 23.0035 19.1314 22.9042 19.221C22.8757 19.2468 22.8473 19.2723 22.8209 19.2988C21.8632 20.2555 21.748 20.2352 21.0404 20.1105L21.0403 20.1105C20.9293 20.0909 20.8038 20.0688 20.6583 20.0475C20.6047 20.0395 20.5491 20.0296 20.4939 20.0198C20.2511 19.9765 20.0181 19.9349 20.0181 20.0702C20.0181 20.3302 20.2644 20.9227 20.3611 21.1555L20.3708 21.1788L21.0902 22.6691C21.1322 22.7501 21.1802 22.8307 21.2281 22.9112L21.2281 22.9113C21.27 22.9818 21.3119 23.0522 21.3498 23.123C21.9734 24.2829 22.1706 24.1584 22.9359 23.0191ZM14.7278 29.9653C14.564 30.0939 14.2987 30.302 14.2987 30.4624C14.2987 30.6949 14.6832 31.0907 14.843 31.2502L15.1512 31.5919C15.4556 31.9268 15.6606 31.8374 15.9528 31.7099C16.0603 31.6631 16.1795 31.6111 16.3198 31.5731C16.5354 31.5153 16.9271 31.4118 17.16 31.4057C17.5581 31.395 18.1433 31.6176 18.4738 31.7434C18.6027 31.7924 18.6929 31.8267 18.7182 31.8267C19.0084 31.8267 19.1456 31.6647 19.3191 31.4597C19.3798 31.388 19.445 31.311 19.5226 31.2339C20.2761 30.4854 20.1079 30.3526 19.7162 30.0433C19.6613 29.9999 19.6021 29.9532 19.5403 29.9007C19.5169 29.8807 19.4929 29.8596 19.4685 29.8382L19.4685 29.8382C19.3916 29.7706 19.3113 29.7002 19.2369 29.6518L19.2061 29.6319C19.106 29.5671 19.005 29.5017 18.8918 29.4446C17.6386 28.812 16.6942 28.8019 15.4358 29.4555C15.1784 29.5893 15.0339 29.711 14.8206 29.8907L14.8086 29.9007C14.7872 29.9187 14.7594 29.9405 14.7278 29.9653ZM30.8336 17.8151L30.9036 17.8622L30.9037 18.0785C30.9038 18.2228 30.9039 18.3672 30.9036 18.5114C30.9034 18.6432 30.9126 18.744 30.9215 18.8408V18.8408C30.929 18.9229 30.9362 19.0021 30.9372 19.0948L30.9036 20.2652C30.8158 20.2579 30.3833 20.069 30.0198 19.9103C29.8141 19.8205 29.6305 19.7404 29.544 19.7082L29.4926 19.6891C29.0516 19.5247 28.5886 19.3523 28.1291 19.2387C28.0836 19.2275 28.0331 19.2145 27.9789 19.2005C27.6984 19.1282 27.3219 19.0312 27.0693 19.0312L29.8128 21.1282L29.8457 21.1536C29.8964 21.1927 29.9113 21.2041 29.9697 21.2635C30.0287 21.3231 30.118 21.4014 30.2166 21.4877C30.4633 21.7038 30.7679 21.9706 30.7994 22.1229C30.84 22.3163 30.7322 24.0109 30.6439 24.1946C30.5683 24.1441 30.4974 24.0889 30.4253 24.0329C30.3518 23.9757 30.2772 23.9177 30.1954 23.8629L30.1427 23.8277C29.5667 23.442 27.3312 21.9455 26.8092 21.8241C26.89 21.9445 27.0405 22.0849 27.1879 22.2225C27.2907 22.3184 27.3921 22.413 27.4672 22.4983C27.4969 22.532 27.5162 22.5577 27.5347 22.5823C27.5598 22.6157 27.5833 22.6469 27.6292 22.6933C28.3645 23.4362 29.3899 24.5176 29.9618 25.3311C29.9909 25.3726 30.0318 25.4237 30.0775 25.4809L30.0775 25.4809L30.0775 25.481C30.2403 25.6844 30.4644 25.9647 30.4381 26.1611L29.9939 28.3842C29.8684 28.3508 29.6116 28.055 29.5252 27.9432L26.9022 25.4335C26.8359 25.3799 26.7746 25.3271 26.7137 25.2748L26.7137 25.2747C26.5848 25.1639 26.4577 25.0547 26.2895 24.9419C26.3046 25.007 26.9141 26.0445 27.4871 27.0197L27.4872 27.02L27.4876 27.0205C27.9267 27.7681 28.3443 28.4789 28.456 28.6868C28.5143 28.7961 29.4099 30.4798 29.4329 30.6639C29.4496 30.7937 29.0459 32.1403 28.9581 32.4151C28.9463 32.4519 28.9338 32.4904 28.9209 32.5297L28.9209 32.5298L28.9209 32.5299C28.8732 32.6757 28.8215 32.834 28.7917 32.9636C28.7917 32.9636 25.555 28.4681 25.3102 28.3042L28.3657 34.2169L27.5849 36.3527C27.5849 36.3527 24.0541 31.6929 23.9391 31.6621L27.3839 37.6859L26.2668 40.106L22.5731 33.673L25.735 41.2551L24.2096 43.47L20.6761 34.8493L23.6356 44.3348C23.6356 44.3348 21.0579 46.0003 20.7003 46.0835L18.6525 38.7336L18.5909 46.6713L15.442 46.5975L16.1229 38.7336C15.9551 38.9267 13.6491 46.0835 13.6491 46.0835C13.5015 46.0491 10.8272 44.2632 10.8977 44.1137C10.9588 43.9843 13.8464 35.0504 13.8464 35.0504L10.0749 43.1281L9.12355 41.2511L12.1011 33.711L8.56899 40.6004L7.348 37.8422L10.1933 31.6428L6.94328 36.8521L6.10965 34.381L8.74235 28.7089C8.64965 28.7766 8.30133 29.2324 8.0741 29.5297L8.07408 29.5297L8.07404 29.5298C7.99899 29.628 7.93717 29.7089 7.90213 29.7528L5.92149 32.4499C5.89836 32.4859 5.86888 32.537 5.83611 32.5938L5.83609 32.5939C5.74697 32.7484 5.63357 32.9449 5.55766 32.9957C5.52997 32.8765 5.44304 32.5942 5.34165 32.2649C5.14486 31.6257 4.89359 30.8095 4.91526 30.666C4.92485 30.6007 5.03737 30.3541 5.10214 30.2121L5.1022 30.2119C5.11598 30.1817 5.12759 30.1563 5.13558 30.1383L5.76344 28.9143C5.78678 28.8711 5.80497 28.8418 5.82262 28.8133C5.84436 28.7782 5.86529 28.7445 5.89404 28.6876L7.80993 25.4063C7.82938 25.3713 7.85555 25.3283 7.88371 25.2821L7.88374 25.282L7.88376 25.282L7.88378 25.282C7.9557 25.1639 8.04061 25.0245 8.05984 24.9419C7.88371 25.0598 7.76237 25.1649 7.6425 25.2688L7.64249 25.2688C7.57407 25.3281 7.50612 25.387 7.42874 25.4476L6.60588 26.184C6.44339 26.3467 6.24121 26.5371 6.02808 26.7378L6.02796 26.7379L6.02793 26.7379L6.0279 26.7379C5.58496 27.155 5.09479 27.6166 4.81545 27.9667C4.73771 28.064 4.46753 28.3541 4.3554 28.3842L4.01722 26.7091C3.9996 26.6222 3.98113 26.5453 3.96447 26.4759C3.90383 26.2235 3.86725 26.0712 3.98353 25.9018C4.37461 25.3326 4.46931 25.2159 4.80443 24.8029C4.85582 24.7395 4.91288 24.6692 4.97753 24.5892C5.16055 24.3627 5.38317 24.1193 5.59065 23.8923L5.59066 23.8923C5.77681 23.6887 5.95078 23.4985 6.07304 23.3458L6.88179 22.4976C6.92061 22.4593 6.97157 22.4107 7.02824 22.3567C7.21242 22.1812 7.45683 21.9483 7.54009 21.8241C7.29242 21.8817 6.5502 22.3326 6.17065 22.5632L6.16966 22.5638C6.11293 22.5982 6.06434 22.6277 6.02677 22.6502L3.67289 24.1946L3.57556 23.1555C3.57424 23.1301 3.57217 23.0951 3.56968 23.0531C3.55319 22.7743 3.5185 22.1882 3.56436 22.0723C3.66383 21.8201 4.99232 20.7373 5.33452 20.4642L7.28001 19.0312C6.76158 19.0312 6.10302 19.2579 5.5557 19.4464C5.45317 19.4817 5.35455 19.5157 5.26148 19.5465C5.16692 19.5779 4.8572 19.7054 4.51926 19.8445L4.51923 19.8445L4.5192 19.8445C4.04253 20.0407 3.50975 20.2599 3.44539 20.2652C3.44539 20.1615 3.43779 20.0797 3.42997 19.9957C3.42144 19.9039 3.41265 19.8095 3.41323 19.6807C3.41392 19.4753 3.41357 19.2691 3.41323 19.0637C3.413 18.9314 3.42225 18.8303 3.43113 18.7333C3.43861 18.6515 3.44583 18.5726 3.44684 18.4806C3.44838 18.3534 3.44745 18.2249 3.44652 18.0967C3.44596 18.0183 3.44539 17.94 3.44539 17.8622C4.55525 17.1194 5.86402 16.688 7.13797 16.268C7.27102 16.2242 7.4037 16.1804 7.53573 16.1365C7.56395 16.1271 7.59235 16.1179 7.62113 16.1087L7.62124 16.1086C7.69424 16.0851 7.76973 16.0608 7.85116 16.0294L8.06164 15.9477C8.07825 15.9403 8.08838 15.9359 8.09474 15.9332L8.09478 15.9332C8.10314 15.9296 8.10499 15.9288 8.1065 15.9276C8.1085 15.926 8.10993 15.9237 8.12493 15.9133C7.97929 15.9133 7.84124 15.8932 7.71132 15.8743C7.66187 15.8671 7.61359 15.8601 7.56652 15.8544C7.01675 15.7868 5.88754 15.6837 5.36342 15.6851L4.25739 15.7502C4.16609 15.7581 4.07579 15.7713 3.98783 15.7842C3.90192 15.7968 3.81823 15.8091 3.73798 15.8157C3.77416 15.3809 4.39876 13.8647 4.77063 13.5999C4.8632 13.5339 5.00333 13.5249 5.14952 13.5155C5.20661 13.5118 5.26462 13.5081 5.32109 13.5009C6.4131 13.3594 8.65845 13.864 9.69726 14.2123C9.73674 14.2255 9.79639 14.2468 9.86737 14.2721C10.1221 14.3628 10.5228 14.5056 10.6597 14.5169C10.4042 14.136 9.56122 13.6139 9.06324 13.3055L9.06299 13.3054C9.00774 13.2712 8.95674 13.2396 8.91127 13.2111C8.86259 13.1808 8.818 13.1561 8.77164 13.1305L8.77162 13.1305L8.77161 13.1305C8.73734 13.1116 8.7021 13.0921 8.6635 13.0694L7.39863 12.4172C7.21748 12.3297 7.06662 12.2599 6.85759 12.211V12.1463C6.94578 12.1258 7.02275 12.1002 7.10279 12.0737L7.1028 12.0737C7.18063 12.0478 7.26137 12.021 7.35818 11.997C7.48679 11.9649 7.65177 11.9206 7.83759 11.8706L7.83761 11.8706C8.5631 11.6754 9.60609 11.3947 10.0412 11.4316C10.6912 11.4873 12.3361 12.6404 12.8971 13.06L13.6028 13.6535C13.6777 13.7108 13.7207 13.7657 13.7612 13.8173L13.7612 13.8173C13.8027 13.8702 13.8414 13.9195 13.9088 13.9645C13.8921 13.7634 13.7138 13.3214 13.6354 13.1337C13.4299 12.6426 13.155 12.1939 12.8788 11.7431L12.8555 11.7051C12.8203 11.6476 12.7716 11.5827 12.7201 11.5139C12.5979 11.3509 12.4597 11.1665 12.4465 11.0096C12.5908 10.9402 13.3144 10.8466 13.7899 10.7851C13.9317 10.7667 14.0515 10.7512 14.1272 10.7401C14.3697 10.7046 14.5624 10.6684 14.7198 10.6389L14.7199 10.6389L14.7199 10.6388C15.2926 10.5314 15.4002 10.5112 15.7465 10.927L16.0757 11.3119C16.4402 11.7622 16.8081 12.2465 17.0382 12.7861L17.1492 13.0321L17.1673 13.0611C17.1734 13.0709 17.174 13.0719 17.1749 13.0723L17.1752 13.0725C17.1764 13.073 17.1788 13.0741 17.1907 13.0878C17.2722 12.7391 17.6635 12.1087 17.8779 11.8258L17.9351 11.7504C18.0577 11.5884 18.17 11.4399 18.3034 11.2768C18.3431 11.228 18.3803 11.1858 18.4167 11.1445L18.4168 11.1445L18.4168 11.1444C18.4542 11.102 18.4907 11.0606 18.528 11.0143C18.6234 10.896 18.8647 10.6044 19.0216 10.569C19.1232 10.5463 20.3528 10.7449 20.8863 10.831C20.9893 10.8477 21.0663 10.8601 21.1043 10.866C21.1481 10.8727 21.2056 10.8806 21.2698 10.8895L21.2702 10.8895L21.2703 10.8896L21.2703 10.8896C21.4965 10.9207 21.8066 10.9634 21.9029 11.0096C21.8909 11.1543 21.7107 11.409 21.5845 11.5875C21.5509 11.6351 21.521 11.6772 21.4993 11.7104C21.1676 12.2165 20.488 13.3935 20.4406 13.9645C20.5135 13.9158 20.526 13.8978 20.5548 13.8564L20.5548 13.8564C20.5656 13.8409 20.5786 13.8222 20.5979 13.7974C20.7838 13.5591 21.657 12.8968 21.8443 12.7695C21.9256 12.714 22.0054 12.6579 22.0847 12.6021L22.0847 12.6021L22.0847 12.6021C22.2607 12.4783 22.4346 12.356 22.6191 12.2451L22.6905 12.202L22.6905 12.202L22.6907 12.2019C22.8012 12.1352 22.9028 12.0739 23.0288 12.0049C23.0769 11.9786 23.125 11.9531 23.1727 11.9277L23.1727 11.9277L23.1728 11.9276L23.1731 11.9275C23.2603 11.8811 23.3461 11.8354 23.4282 11.7875C23.6256 11.6721 24.0777 11.4378 24.3718 11.4294C24.7557 11.4189 25.1888 11.5326 25.5889 11.6376C25.7256 11.6734 25.8585 11.7083 25.9842 11.7369C26.0342 11.7482 26.0805 11.7584 26.1249 11.7682L26.125 11.7682L26.1251 11.7682L26.1252 11.7682L26.1253 11.7682C26.2569 11.7973 26.3712 11.8225 26.5101 11.8605L27.4917 12.211C27.1737 12.2851 26.8607 12.443 26.5685 12.5905L26.5682 12.5907C26.5179 12.616 26.4683 12.6411 26.4193 12.6654C25.6768 13.0336 24.9454 13.4738 24.2937 13.9833C24.2462 14.0206 24.1967 14.0571 24.1468 14.0939L24.1468 14.0939C23.9771 14.2191 23.8033 14.3475 23.69 14.5169C23.8027 14.5074 24.2086 14.3661 24.4788 14.272L24.4788 14.272C24.5617 14.2432 24.6318 14.2188 24.6767 14.204C25.7082 13.8654 26.7774 13.6766 27.8722 13.533C28.1851 13.4918 29.3599 13.4021 29.6138 13.6299C29.9726 13.9526 30.5723 15.3487 30.6113 15.8157C30.4443 15.8019 30.278 15.7841 30.11 15.7662C29.7415 15.7268 29.3648 15.6866 28.9534 15.6851L26.2244 15.9133C26.3619 16.0089 27.5316 16.402 28.207 16.629C28.4394 16.707 28.6133 16.7655 28.6665 16.7854C29.2738 17.0114 29.8438 17.2462 30.4059 17.5474C30.5604 17.6308 30.6974 17.7232 30.8336 17.8151ZM32.4584 11.9284C32.4762 11.9465 32.4948 11.9654 32.5188 11.9934C33.1691 12.7576 33.6285 13.7179 33.9073 14.6977C34.4184 16.4935 34.417 19.3498 34.2523 21.3713C34.248 21.4238 34.2492 21.4785 34.2504 21.5332C34.2516 21.587 34.2528 21.6408 34.2487 21.6925C34.2445 21.7449 34.2389 21.7731 34.2335 21.7998C34.2264 21.8354 34.2197 21.8686 34.2177 21.9533L34.0827 23.6695C34.0676 23.813 34.0504 23.9645 34.033 24.1179C34.0076 24.342 33.9818 24.5699 33.9612 24.7821L33.6751 26.9649C33.6452 27.1448 33.6214 27.3192 33.5976 27.4938C33.573 27.6737 33.5484 27.8539 33.517 28.0409C33.3272 29.1716 33.2224 29.649 32.9771 30.7671C32.8957 31.138 32.7988 31.5794 32.6783 32.1385C28.5681 49.4192 17.1738 65.8507 17.1738 65.8507C17.1738 65.8507 5.95442 49.8744 2.11604 34.1298C1.89136 32.6084 1.66505 32.1126 1.66505 32.1126C1.64305 32.0187 1.62099 31.9262 1.5991 31.8344C1.54144 31.5927 1.48492 31.3557 1.43353 31.1093C1.41411 31.0165 1.39502 30.9254 1.37622 30.8357C1.1731 29.8665 1.00447 29.062 0.827314 28.0132C0.667805 27.0677 0.195438 23.495 0.163622 22.4735L-0.000248413 19.5517C-0.0027287 17.2872 0.0609037 14.8107 1.15215 12.9719C1.32397 12.6814 1.64478 12.1873 1.87767 11.9432C1.95574 11.8614 2.02606 11.7869 2.09102 11.7181C2.54047 11.2419 2.73285 11.0381 3.4518 10.5615C4.39029 9.9392 4.70028 9.79493 5.67107 9.34314C5.69435 9.33231 5.718 9.3213 5.74205 9.31011L6.96415 8.7777C7.02591 8.75278 7.10561 8.72598 7.19383 8.69632C7.55525 8.5748 8.05976 8.40517 8.05976 8.1194C8.05976 8.05507 7.97925 7.99078 7.8816 7.91281C7.73115 7.79267 7.54001 7.64005 7.54001 7.40473C7.54001 7.23584 7.67121 6.97612 7.75184 6.8165C7.76121 6.79796 7.76989 6.78078 7.7776 6.76524C8.10637 6.1066 8.31839 6.29613 8.56069 6.64405C9.03956 7.33203 9.53946 8.21125 9.95504 8.95312C9.95749 8.95747 9.96002 8.96195 9.96262 8.96657C10.0253 9.07771 10.1291 9.26171 10.1394 9.38571C9.99493 9.38571 9.89405 9.40818 9.78031 9.43352C9.73465 9.44369 9.68692 9.45432 9.63346 9.46414C8.94223 9.59295 7.8988 9.80711 7.26008 10.015C7.17265 10.0434 7.088 10.0705 7.00538 10.097C6.50417 10.2575 6.07773 10.394 5.55826 10.6524C5.48857 10.687 5.41921 10.7213 5.35024 10.7554C4.26627 11.2913 3.2776 11.7801 2.58695 12.9118C2.17138 13.5918 1.90342 14.104 1.67155 14.9199C1.48416 15.5804 1.33842 16.4105 1.30113 17.1798L1.23494 18.5755L1.32431 21.6059C1.33425 21.6778 1.33336 21.7435 1.33246 21.8112C1.33197 21.8472 1.33148 21.8839 1.33261 21.9223C1.33474 22.0051 1.34193 22.0417 1.34929 22.0791C1.35583 22.1124 1.3625 22.1463 1.36588 22.2139C1.3764 22.4377 1.38367 22.573 1.40026 22.7961C1.41613 23.0027 1.44334 23.2275 1.47018 23.4492C1.49048 23.617 1.51058 23.783 1.52539 23.938C1.88931 27.7383 2.47337 30.0455 3.35482 33.5088C3.35482 33.5088 5.62796 49.0408 17.0558 49.0408C27.8527 49.0408 30.3363 36.4655 30.6804 34.7231C30.7005 34.6213 30.7133 34.5565 30.72 34.5333C31.0658 33.344 31.4861 31.6853 31.7614 30.4758C32.2077 28.5115 32.4407 27.018 32.7007 25.049L33.1138 19.7462L33.1132 19.6481C33.102 17.6732 33.0906 15.6714 32.3651 14.0308C32.3549 14.0076 32.3449 13.9849 32.3351 13.9624C32.2865 13.8512 32.241 13.7472 32.1817 13.6289C31.778 12.8238 31.0858 11.8906 30.2965 11.4541C30.1973 11.399 30.105 11.3443 30.0141 11.2904C29.8644 11.2016 29.7182 11.1149 29.5497 11.0316C29.4762 10.9953 29.4184 10.962 29.3598 10.9282C29.3027 10.8954 29.2449 10.862 29.171 10.8251C28.1937 10.3372 27.2178 10.0341 26.14 9.76246C25.898 9.70131 24.4548 9.38554 24.2096 9.38554C24.2259 9.19242 24.9363 7.99521 25.081 7.75573C25.0926 7.73648 25.1051 7.71583 25.1183 7.69396C25.3295 7.3439 25.7299 6.68037 25.9581 6.42399C26.217 6.13397 26.4752 6.57161 26.5823 6.78714C26.5893 6.80119 26.5972 6.81691 26.6058 6.834C26.681 6.98331 26.8091 7.23773 26.8091 7.40456C26.8091 7.63839 26.6402 7.77253 26.4949 7.88787C26.3854 7.97486 26.2893 8.05116 26.2893 8.15147C26.2893 8.40168 26.8506 8.59401 27.2164 8.71937C27.3021 8.74874 27.3771 8.77444 27.4316 8.79634C29.2273 9.51862 30.8492 10.3046 32.2283 11.6671C32.3003 11.738 32.312 11.753 32.3714 11.8291L32.3799 11.84C32.412 11.8814 32.4345 11.9042 32.4584 11.9284Z" fill="#7A4400"/>
</svg>
