<svg width="51" height="50" viewBox="0 0 51 50" fill="none" xmlns="http://www.w3.org/2000/svg">
<path fill-rule="evenodd" clip-rule="evenodd" d="M48.8518 14.9994H47.6017L47.6017 42.4986H48.8518C49.1833 42.4986 49.5014 42.6301 49.7358 42.8648C49.9701 43.0992 50.102 43.4173 50.1016 43.7488V48.7489C50.102 49.0804 49.9701 49.3985 49.7358 49.6328C49.5014 49.8672 49.1833 49.999 48.8518 49.9986H1.35128C1.01981 49.999 0.701733 49.8672 0.467359 49.6328C0.232984 49.3985 0.101145 49.0804 0.101562 48.7489V43.7488C0.101146 43.4173 0.232984 43.0992 0.467359 42.8648C0.701733 42.6301 1.01981 42.4986 1.35128 42.4986H2.60142V14.9994H1.35128C1.01981 14.9994 0.701733 14.868 0.467359 14.6332C0.232984 14.3989 0.101145 14.0808 0.101562 13.7493V11.2495C0.101562 10.7464 0.402902 10.2923 0.866625 10.0968L24.6169 0.0969907C24.927 -0.0323302 25.2761 -0.0323302 25.5862 0.0969907L49.3365 10.0968C49.8002 10.2923 50.1016 10.7464 50.1016 11.2495V13.7493C50.102 14.0808 49.9701 14.3989 49.7358 14.6332C49.5014 14.868 49.1833 14.9994 48.8518 14.9994ZM37.6019 34.9987H45.1018V14.9994H37.6019V34.9987ZM37.6019 42.4986V37.4989H40.1017V42.4991L37.6019 42.4986ZM15.1019 14.9994V42.4986H35.1012V14.9994H15.1019ZM10.1018 42.4986V37.4989H12.6017V42.4991L10.1018 42.4986ZM25.1018 2.60498L2.60184 12.0787V12.4985H47.6017V12.0787L25.1018 2.60498ZM12.6017 14.9988V34.998H5.10169V14.9988H12.6017ZM7.60154 37.4987H5.10169V42.4984L7.60154 42.4988V37.4987ZM47.6019 47.4985H2.60206V44.9987H47.6019V47.4985ZM42.6018 37.4987V42.4984L45.1016 42.4988V37.4987H42.6018Z" fill="black"/>
</svg>
