<svg width="52" height="52" viewBox="0 0 52 52" fill="none" xmlns="http://www.w3.org/2000/svg">
<path fill-rule="evenodd" clip-rule="evenodd" d="M24.453 17.6666C23.686 17.6666 23.0643 17.0449 23.0643 16.2775C23.0519 14.6678 23.6579 13.1143 24.7578 11.9382C25.4517 11.2487 25.8421 10.3111 25.8421 9.3333C25.8421 8.35512 25.4517 7.41744 24.7578 6.72845C23.6579 5.55232 23.0518 3.99879 23.0643 2.38867C23.0643 1.62169 23.686 1 24.453 1C25.2204 1 25.8421 1.6217 25.8421 2.38867C25.8328 3.36869 26.2245 4.30989 26.9264 4.99352C28.0156 6.17627 28.6199 7.72535 28.6199 9.3333C28.6199 10.9408 28.0156 12.4899 26.9264 13.6726C26.2245 14.3567 25.8328 15.2979 25.8421 16.2775C25.8421 17.0449 25.2204 17.6666 24.453 17.6666ZM49.6216 30.2007L50.8378 14.9997C50.8685 14.6133 50.7366 14.2318 50.4737 13.9471C50.2112 13.6623 49.8409 13.5001 49.4536 13.5001H43.8981C43.1739 13.5001 42.5714 14.0567 42.5139 14.7786L42.0606 20.4447H9.62438L9.17115 14.7786C9.11366 14.0567 8.51113 13.5001 7.78692 13.5001H2.23143C1.84371 13.5001 1.47381 13.6623 1.21088 13.9471C0.948384 14.2318 0.816476 14.6133 0.847223 14.9997L2.0634 30.2007C1.37219 30.2778 0.847679 30.8598 0.842773 31.5555V37.111C0.842773 37.4796 0.988943 37.8325 1.24921 38.0932C1.50992 38.3535 1.86332 38.5001 2.23144 38.5001H2.7279L3.62545 49.7217H3.62501C3.68249 50.4436 4.28502 51.0003 5.00923 50.9998H46.6763C47.4005 51.0002 48.003 50.4436 48.0605 49.7217L48.9585 38.5001H49.4541C49.8222 38.5001 50.1756 38.3535 50.4363 38.0932C50.6966 37.8325 50.8428 37.4796 50.8428 37.111V31.5555C50.8379 30.8598 50.3133 30.2779 49.6222 30.2007H49.6216ZM42.1204 35.7223H3.62035V32.9445H48.0643V35.7223H42.1204ZM11.8471 48.2218H18.8978L18.8978 38.4998L11.0694 38.4994L11.8471 48.2218ZM21.6756 23.2218H30.0089V30.1664H21.6756V23.2218ZM47.9492 16.2771H45.18L44.0685 30.1662H46.8377L47.9492 16.2771ZM41.2827 30.1662H32.7867V23.2215H41.8385L41.2827 30.1662ZM18.8979 23.2215H14.7311H9.84576L10.4015 30.1662H18.8979V23.2215ZM6.50437 16.2769L7.61584 30.1659H4.84659L3.73512 16.2769H6.50437ZM8.28214 38.5H5.51324L6.29136 48.222L9.05981 48.2225L8.28214 38.5ZM21.6749 38.5H30.0082V48.2225L21.6749 48.222V38.5ZM40.6153 38.5H32.786L32.7864 48.222L39.8367 48.2225L40.6153 38.5ZM45.3927 48.2225L42.6238 48.222L43.4023 38.4996H46.1712L45.3927 48.2225ZM30.0088 16.2775C30.0088 17.0449 30.6305 17.6666 31.3975 17.6666C32.1645 17.6666 32.7866 17.0449 32.7866 16.2775C32.7773 15.2979 33.169 14.3567 33.8709 13.6726C34.9596 12.4899 35.5644 10.9408 35.5644 9.3333C35.5644 7.72535 34.9597 6.17627 33.8709 4.99352C33.169 4.30989 32.7773 3.36869 32.7866 2.38867C32.7866 1.6217 32.1645 1 31.3975 1C30.6305 1 30.0088 1.62169 30.0088 2.38867C29.9963 3.99879 30.6024 5.55232 31.7019 6.72845C32.3962 7.41744 32.7866 8.35512 32.7866 9.3333C32.7866 10.3111 32.3962 11.2487 31.7019 11.9382C30.6025 13.1143 29.9964 14.6678 30.0088 16.2775ZM17.5089 17.6666C16.7419 17.6666 16.1198 17.0449 16.1198 16.2775C16.1074 14.6678 16.7139 13.1143 17.8133 11.9382C18.5076 11.2487 18.8976 10.3111 18.8976 9.3333C18.8976 8.35512 18.5076 7.41744 17.8133 6.72845C16.7138 5.55232 16.1073 3.99879 16.1198 2.38867C16.1198 1.62169 16.7419 1 17.5089 1C18.2759 1 18.8976 1.6217 18.8976 2.38867C18.8887 3.36869 19.2804 4.30989 19.9823 4.99352C21.0711 6.17627 21.6754 7.72535 21.6754 9.3333C21.6754 10.9408 21.0711 12.4899 19.9823 13.6726C19.2804 14.3567 18.8887 15.2979 18.8976 16.2775C18.8976 17.0449 18.2759 17.6666 17.5089 17.6666Z" fill="black"/>
<path d="M23.0643 16.2775H23.3143L23.3143 16.2755L23.0643 16.2775ZM24.7578 11.9382L24.5815 11.7607L24.5752 11.7674L24.7578 11.9382ZM24.7578 6.72845L24.5751 6.89933L24.5817 6.90586L24.7578 6.72845ZM23.0643 2.38867L23.3143 2.39061V2.38867H23.0643ZM25.8421 2.38867L26.0921 2.39106V2.38867H25.8421ZM26.9264 4.99352L27.1106 4.82392L27.1008 4.81443L26.9264 4.99352ZM26.9264 13.6726L27.1011 13.8519L27.1103 13.842L26.9264 13.6726ZM25.8421 16.2775H26.0921L26.0921 16.2751L25.8421 16.2775ZM50.8378 14.9997L51.087 15.0196L51.087 15.0195L50.8378 14.9997ZM49.6216 30.2007L49.3724 30.1808L49.3508 30.4507H49.6216V30.2007ZM50.4737 13.9471L50.2899 14.1165L50.29 14.1166L50.4737 13.9471ZM42.5139 14.7786L42.7631 14.7986L42.7631 14.7985L42.5139 14.7786ZM42.0606 20.4447V20.6947H42.2914L42.3098 20.4646L42.0606 20.4447ZM9.62438 20.4447L9.37518 20.4646L9.39358 20.6947H9.62438V20.4447ZM9.17115 14.7786L8.92194 14.7985L8.92194 14.7986L9.17115 14.7786ZM1.21088 13.9471L1.0272 13.7775L1.02706 13.7776L1.21088 13.9471ZM0.847223 14.9997L0.598011 15.0195L0.598019 15.0196L0.847223 14.9997ZM2.0634 30.2007L2.09111 30.4492L2.33193 30.4223L2.3126 30.1808L2.0634 30.2007ZM0.842773 31.5555L0.592773 31.5538V31.5555H0.842773ZM1.24921 38.0932L1.07228 38.2699L1.07259 38.2702L1.24921 38.0932ZM2.7279 38.5001L2.9771 38.4802L2.9587 38.2501H2.7279V38.5001ZM3.62545 49.7217V49.9717H3.89625L3.87465 49.7017L3.62545 49.7217ZM3.62501 49.7217V49.4717H3.35431L3.37579 49.7415L3.62501 49.7217ZM5.00923 50.9998V50.7498H5.00907L5.00923 50.9998ZM46.6763 50.9998L46.6765 50.7498H46.6763V50.9998ZM48.0605 49.7217L47.8113 49.7017L47.8113 49.7018L48.0605 49.7217ZM48.9585 38.5001V38.2501H48.7277L48.7093 38.4802L48.9585 38.5001ZM50.4363 38.0932L50.613 38.2702L50.6133 38.2699L50.4363 38.0932ZM50.8428 31.5555H51.0928L51.0928 31.5538L50.8428 31.5555ZM49.6222 30.2007L49.6499 29.9523L49.6361 29.9507H49.6222V30.2007ZM3.62035 35.7223H3.37035V35.9723H3.62035V35.7223ZM3.62035 32.9445V32.6945H3.37035V32.9445H3.62035ZM48.0643 32.9445H48.3143V32.6945H48.0643V32.9445ZM48.0643 35.7223V35.9723H48.3143V35.7223H48.0643ZM18.8978 48.2218V48.4718H19.1478L19.1478 48.2218H18.8978ZM11.8471 48.2218L11.5979 48.2417L11.6163 48.4718H11.8471V48.2218ZM18.8978 38.4998H19.1478L19.1478 38.2498L18.8978 38.2498L18.8978 38.4998ZM11.0694 38.4994L11.0694 38.2494L10.7986 38.2493L10.8202 38.5193L11.0694 38.4994ZM30.0089 23.2218H30.2589V22.9718H30.0089V23.2218ZM21.6756 23.2218V22.9718H21.4256V23.2218H21.6756ZM30.0089 30.1664V30.4164H30.2589V30.1664H30.0089ZM21.6756 30.1664H21.4256V30.4164H21.6756V30.1664ZM45.18 16.2771V16.0271H44.9492L44.9308 16.2572L45.18 16.2771ZM47.9492 16.2771L48.1984 16.2971L48.22 16.0271H47.9492V16.2771ZM44.0685 30.1662L43.8193 30.1462L43.7977 30.4162H44.0685V30.1662ZM46.8377 30.1662V30.4162H47.0685L47.087 30.1861L46.8377 30.1662ZM32.7867 30.1662H32.5367V30.4162H32.7867V30.1662ZM41.2827 30.1662V30.4162H41.5135L41.5319 30.1861L41.2827 30.1662ZM32.7867 23.2215V22.9715H32.5367V23.2215H32.7867ZM41.8385 23.2215L42.0877 23.2415L42.1093 22.9715H41.8385V23.2215ZM18.8979 23.2215H19.1479V22.9715H18.8979V23.2215ZM9.84576 23.2215V22.9715H9.57495L9.59656 23.2415L9.84576 23.2215ZM10.4015 30.1662L10.1523 30.1861L10.1707 30.4162H10.4015V30.1662ZM18.8979 30.1662V30.4162H19.1479V30.1662H18.8979ZM7.61584 30.1659V30.4159H7.88664L7.86504 30.146L7.61584 30.1659ZM6.50437 16.2769L6.75358 16.257L6.73517 16.0269H6.50437V16.2769ZM4.84659 30.1659L4.59738 30.1859L4.61579 30.4159H4.84659V30.1659ZM3.73512 16.2769V16.0269H3.46432L3.48592 16.2968L3.73512 16.2769ZM5.51324 38.5V38.25H5.24243L5.26403 38.52L5.51324 38.5ZM8.28214 38.5L8.53135 38.4801L8.51294 38.25H8.28214V38.5ZM6.29136 48.222L6.04216 48.242L6.06057 48.472L6.29132 48.472L6.29136 48.222ZM9.05981 48.2225L9.05977 48.4725L9.33061 48.4725L9.30901 48.2025L9.05981 48.2225ZM30.0082 38.5H30.2582V38.25H30.0082V38.5ZM21.6749 38.5V38.25H21.4249V38.5H21.6749ZM30.0082 48.2225L30.0082 48.4725L30.2582 48.4725V48.2225H30.0082ZM21.6749 48.222H21.4249V48.472L21.6749 48.472L21.6749 48.222ZM32.786 38.5V38.25H32.536L32.536 38.5L32.786 38.5ZM40.6153 38.5L40.8645 38.52L40.8861 38.25H40.6153V38.5ZM32.7864 48.222L32.5364 48.222L32.5364 48.472L32.7864 48.472L32.7864 48.222ZM39.8367 48.2225L39.8367 48.4725L40.0675 48.4725L40.0859 48.2424L39.8367 48.2225ZM42.6238 48.222L42.3746 48.2021L42.353 48.472L42.6237 48.472L42.6238 48.222ZM45.3927 48.2225L45.3926 48.4725L45.6235 48.4725L45.6419 48.2424L45.3927 48.2225ZM43.4023 38.4996V38.2496H43.1716L43.1531 38.4796L43.4023 38.4996ZM46.1712 38.4996L46.4204 38.5195L46.4421 38.2496H46.1712V38.4996ZM30.0088 16.2775H30.2588L30.2588 16.2755L30.0088 16.2775ZM32.7866 16.2775H33.0366L33.0366 16.2751L32.7866 16.2775ZM33.8709 13.6726L34.0456 13.8519L34.0548 13.8419L33.8709 13.6726ZM33.8709 4.99352L34.0551 4.82395L34.0453 4.81443L33.8709 4.99352ZM32.7866 2.38867L33.0366 2.39106V2.38867H32.7866ZM30.0088 2.38867L30.2588 2.39061V2.38867H30.0088ZM31.7019 6.72845L31.5191 6.8993L31.5258 6.90591L31.7019 6.72845ZM31.7019 11.9382L31.5256 11.7606L31.5192 11.7674L31.7019 11.9382ZM16.1198 16.2775H16.3698L16.3698 16.2755L16.1198 16.2775ZM17.8133 11.9382L17.637 11.7606L17.6307 11.7674L17.8133 11.9382ZM17.8133 6.72845L17.6306 6.8993L17.6372 6.90591L17.8133 6.72845ZM16.1198 2.38867L16.3698 2.39061V2.38867H16.1198ZM18.8976 2.38867L19.1476 2.39095V2.38867H18.8976ZM19.9823 4.99352L20.1665 4.82395L20.1568 4.81443L19.9823 4.99352ZM19.9823 13.6726L20.1571 13.8519L20.1663 13.8419L19.9823 13.6726ZM18.8976 16.2775H19.1476L19.1476 16.2752L18.8976 16.2775ZM22.8143 16.2775C22.8143 17.1829 23.5479 17.9166 24.453 17.9166V17.4166C23.8241 17.4166 23.3143 16.9069 23.3143 16.2775H22.8143ZM24.5752 11.7674C23.4316 12.9903 22.8014 14.6057 22.8143 16.2794L23.3143 16.2755C23.3024 14.7299 23.8843 13.2382 24.9404 12.1089L24.5752 11.7674ZM25.5921 9.3333C25.5921 10.2444 25.2283 11.1183 24.5816 11.7608L24.934 12.1155C25.6751 11.3792 26.0921 10.3777 26.0921 9.3333H25.5921ZM24.5817 6.90586C25.2283 7.54791 25.5921 8.42172 25.5921 9.3333H26.0921C26.0921 8.28851 25.6751 7.28698 24.934 6.55105L24.5817 6.90586ZM22.8143 2.38674C22.8013 4.06091 23.4315 5.67627 24.5752 6.89922L24.9404 6.55769C23.8843 5.42838 23.3023 3.93667 23.3143 2.39061L22.8143 2.38674ZM24.453 0.75C23.5479 0.75 22.8143 1.48361 22.8143 2.38867H23.3143C23.3143 1.75976 23.8241 1.25 24.453 1.25V0.75ZM26.0921 2.38867C26.0921 1.48357 25.3584 0.75 24.453 0.75V1.25C25.0824 1.25 25.5921 1.75982 25.5921 2.38867H26.0921ZM27.1008 4.81443C26.4479 4.17846 26.0834 3.30283 26.0921 2.39106L25.5921 2.38629C25.5821 3.43454 26.0011 4.44132 26.752 5.17262L27.1008 4.81443ZM28.8699 9.3333C28.8699 7.66264 28.242 6.0531 27.1103 4.82417L26.7425 5.16288C27.7892 6.29944 28.3699 7.78806 28.3699 9.3333H28.8699ZM27.1103 13.842C28.242 12.6131 28.8699 11.0035 28.8699 9.3333H28.3699C28.3699 10.8781 27.7892 12.3667 26.7425 13.5033L27.1103 13.842ZM26.0921 16.2751C26.0834 15.3638 26.4478 14.4881 27.1009 13.8517L26.7519 13.4936C26.0011 14.2253 25.5821 15.232 25.5921 16.2799L26.0921 16.2751ZM24.453 17.9166C25.3585 17.9166 26.0921 17.183 26.0921 16.2775H25.5921C25.5921 16.9068 25.0823 17.4166 24.453 17.4166V17.9166ZM50.5886 14.9798L49.3724 30.1808L49.8708 30.2207L51.087 15.0196L50.5886 14.9798ZM50.29 14.1166C50.5056 14.3502 50.6138 14.663 50.5886 14.9799L51.087 15.0195C51.1233 14.5637 50.9676 14.1135 50.6574 13.7775L50.29 14.1166ZM49.4536 13.7501C49.7711 13.7501 50.0747 13.8831 50.2899 14.1165L50.6575 13.7776C50.3477 13.4415 49.9107 13.2501 49.4536 13.2501V13.7501ZM43.8981 13.7501H49.4536V13.2501H43.8981V13.7501ZM42.7631 14.7985C42.8102 14.2064 43.3043 13.7501 43.8981 13.7501V13.2501C43.0435 13.2501 42.3325 13.9069 42.2647 14.7588L42.7631 14.7985ZM42.3098 20.4646L42.7631 14.7986L42.2647 14.7587L41.8114 20.4248L42.3098 20.4646ZM9.62438 20.6947H42.0606V20.1947H9.62438V20.6947ZM8.92194 14.7986L9.37518 20.4646L9.87359 20.4248L9.42035 14.7587L8.92194 14.7986ZM7.78692 13.7501C8.38071 13.7501 8.87479 14.2064 8.92194 14.7985L9.42036 14.7588C9.35252 13.9069 8.64155 13.2501 7.78692 13.2501V13.7501ZM2.23143 13.7501H7.78692V13.2501H2.23143V13.7501ZM1.39456 14.1166C1.61025 13.883 1.91359 13.7501 2.23143 13.7501V13.2501C1.77383 13.2501 1.33738 13.4415 1.0272 13.7775L1.39456 14.1166ZM1.09644 14.9799C1.07122 14.6629 1.17941 14.3501 1.3947 14.1165L1.02706 13.7776C0.717361 14.1136 0.561736 14.5637 0.598011 15.0195L1.09644 14.9799ZM2.3126 30.1808L1.09643 14.9798L0.598019 15.0196L1.81419 30.2207L2.3126 30.1808ZM1.09277 31.5573C1.09678 30.9883 1.52579 30.5122 2.09111 30.4492L2.03568 29.9523C1.21858 30.0434 0.598579 30.7314 0.59278 31.5538L1.09277 31.5573ZM1.09277 37.111V31.5555H0.592773V37.111H1.09277ZM1.42614 37.9166C1.21263 37.7027 1.09277 37.4133 1.09277 37.111H0.592773C0.592773 37.5459 0.76526 37.9623 1.07228 38.2699L1.42614 37.9166ZM2.23144 38.2501C1.92977 38.2501 1.63983 38.1299 1.42583 37.9163L1.07259 38.2702C1.38002 38.5771 1.79687 38.7501 2.23144 38.7501V38.2501ZM2.7279 38.2501H2.23144V38.7501H2.7279V38.2501ZM3.87465 49.7017L2.9771 38.4802L2.4787 38.5201L3.37625 49.7416L3.87465 49.7017ZM3.62501 49.9717H3.62545V49.4717H3.62501V49.9717ZM5.00907 50.7498C4.41543 50.7502 3.92136 50.2939 3.87422 49.7018L3.37579 49.7415C3.44363 50.5934 4.15461 51.2503 5.00939 51.2498L5.00907 50.7498ZM46.6763 50.7498H5.00923V51.2498H46.6763V50.7498ZM47.8113 49.7018C47.7642 50.2939 47.2701 50.7502 46.6765 50.7498L46.6762 51.2498C47.5309 51.2503 48.2419 50.5934 48.3097 49.7415L47.8113 49.7018ZM48.7093 38.4802L47.8113 49.7017L48.3097 49.7416L49.2077 38.5201L48.7093 38.4802ZM49.4541 38.2501H48.9585V38.7501H49.4541V38.2501ZM50.2597 37.9163C50.0457 38.1299 49.7558 38.2501 49.4541 38.2501V38.7501C49.8887 38.7501 50.3055 38.5771 50.613 38.2702L50.2597 37.9163ZM50.5928 37.111C50.5928 37.4133 50.4729 37.7027 50.2594 37.9166L50.6133 38.2699C50.9203 37.9623 51.0928 37.5459 51.0928 37.111H50.5928ZM50.5928 31.5555V37.111H51.0928V31.5555H50.5928ZM49.5944 30.4492C50.1597 30.5123 50.5888 30.9883 50.5928 31.5573L51.0928 31.5538C51.087 30.7314 50.4669 30.0434 49.6499 29.9523L49.5944 30.4492ZM49.6216 30.4507H49.6222V29.9507H49.6216V30.4507ZM3.62035 35.9723H42.1204V35.4723H3.62035V35.9723ZM3.37035 32.9445V35.7223H3.87035V32.9445H3.37035ZM48.0643 32.6945H3.62035V33.1945H48.0643V32.6945ZM48.3143 35.7223V32.9445H47.8143V35.7223H48.3143ZM42.1204 35.9723H48.0643V35.4723H42.1204V35.9723ZM18.8978 47.9718H11.8471V48.4718H18.8978V47.9718ZM18.6478 38.4998L18.6478 48.2218H19.1478L19.1478 38.4998H18.6478ZM11.0694 38.7494L18.8978 38.7498L18.8978 38.2498L11.0694 38.2494L11.0694 38.7494ZM12.0963 48.2019L11.3186 38.4794L10.8202 38.5193L11.5979 48.2417L12.0963 48.2019ZM30.0089 22.9718H21.6756V23.4718H30.0089V22.9718ZM30.2589 30.1664V23.2218H29.7589V30.1664H30.2589ZM21.6756 30.4164H30.0089V29.9164H21.6756V30.4164ZM21.4256 23.2218V30.1664H21.9256V23.2218H21.4256ZM45.18 16.5271H47.9492V16.0271H45.18V16.5271ZM44.3177 30.1861L45.4292 16.2971L44.9308 16.2572L43.8193 30.1462L44.3177 30.1861ZM46.8377 29.9162H44.0685V30.4162H46.8377V29.9162ZM47.7 16.2572L46.5885 30.1462L47.087 30.1861L48.1984 16.2971L47.7 16.2572ZM32.7867 30.4162H41.2827V29.9162H32.7867V30.4162ZM32.5367 23.2215V30.1662H33.0367V23.2215H32.5367ZM41.8385 22.9715H32.7867V23.4715H41.8385V22.9715ZM41.5319 30.1861L42.0877 23.2415L41.5893 23.2016L41.0335 30.1462L41.5319 30.1861ZM14.7311 23.4715H18.8979V22.9715H14.7311V23.4715ZM9.84576 23.4715H14.7311V22.9715H9.84576V23.4715ZM10.6507 30.1462L10.095 23.2016L9.59656 23.2415L10.1523 30.1861L10.6507 30.1462ZM18.8979 29.9162H10.4015V30.4162H18.8979V29.9162ZM18.6479 23.2215V30.1662H19.1479V23.2215H18.6479ZM7.86504 30.146L6.75358 16.257L6.25517 16.2968L7.36663 30.1859L7.86504 30.146ZM4.84659 30.4159H7.61584V29.9159H4.84659V30.4159ZM3.48592 16.2968L4.59738 30.1859L5.09579 30.146L3.98433 16.257L3.48592 16.2968ZM6.50437 16.0269H3.73512V16.5269H6.50437V16.0269ZM5.51324 38.75H8.28214V38.25H5.51324V38.75ZM6.54056 48.2021L5.76244 38.4801L5.26403 38.52L6.04216 48.242L6.54056 48.2021ZM9.05985 47.9725L6.2914 47.972L6.29132 48.472L9.05977 48.4725L9.05985 47.9725ZM8.03294 38.52L8.81061 48.2424L9.30901 48.2025L8.53135 38.4801L8.03294 38.52ZM30.0082 38.25H21.6749V38.75H30.0082V38.25ZM30.2582 48.2225V38.5H29.7582V48.2225H30.2582ZM21.6749 48.472L30.0082 48.4725L30.0082 47.9725L21.6749 47.972L21.6749 48.472ZM21.4249 38.5V48.222H21.9249V38.5H21.4249ZM32.786 38.75H40.6153V38.25H32.786V38.75ZM33.0364 48.222L33.036 38.5L32.536 38.5L32.5364 48.222L33.0364 48.222ZM39.8367 47.9725L32.7864 47.972L32.7864 48.472L39.8367 48.4725L39.8367 47.9725ZM40.3661 38.4801L39.5875 48.2025L40.0859 48.2424L40.8645 38.52L40.3661 38.4801ZM42.6237 48.472L45.3926 48.4725L45.3927 47.9725L42.6238 47.972L42.6237 48.472ZM43.1531 38.4796L42.3746 48.2021L42.873 48.242L43.6515 38.5195L43.1531 38.4796ZM46.1712 38.2496H43.4023V38.7496H46.1712V38.2496ZM45.6419 48.2424L46.4204 38.5195L45.922 38.4796L45.1435 48.2025L45.6419 48.2424ZM31.3975 17.4166C30.7686 17.4166 30.2588 16.9069 30.2588 16.2775H29.7588C29.7588 17.1829 30.4924 17.9166 31.3975 17.9166V17.4166ZM32.5366 16.2775C32.5366 16.9068 32.0265 17.4166 31.3975 17.4166V17.9166C32.3025 17.9166 33.0366 17.183 33.0366 16.2775H32.5366ZM33.6964 13.4936C32.9457 14.2253 32.5266 15.232 32.5366 16.2799L33.0366 16.2751C33.0279 15.3638 33.3923 14.4881 34.0454 13.8517L33.6964 13.4936ZM35.3144 9.3333C35.3144 10.878 34.7332 12.3667 33.687 13.5033L34.0548 13.8419C35.186 12.6131 35.8144 11.0036 35.8144 9.3333H35.3144ZM33.687 5.16284C34.7333 6.29945 35.3144 7.78811 35.3144 9.3333H35.8144C35.8144 7.6626 35.1861 6.05309 34.0548 4.82421L33.687 5.16284ZM32.5366 2.38629C32.5266 3.43454 32.9456 4.44132 33.6965 5.17262L34.0453 4.81443C33.3924 4.17846 33.0279 3.30283 33.0366 2.39106L32.5366 2.38629ZM31.3975 1.25C32.0265 1.25 32.5366 1.75987 32.5366 2.38867H33.0366C33.0366 1.48352 32.3025 0.75 31.3975 0.75V1.25ZM30.2588 2.38867C30.2588 1.75976 30.7686 1.25 31.3975 1.25V0.75C30.4925 0.75 29.7588 1.48361 29.7588 2.38867H30.2588ZM31.8845 6.55773C30.8288 5.4284 30.2468 3.93668 30.2588 2.39061L29.7588 2.38674C29.7459 4.06091 30.3761 5.67625 31.5193 6.89918L31.8845 6.55773ZM33.0366 9.3333C33.0366 8.2885 32.6196 7.28694 31.878 6.551L31.5258 6.90591C32.1728 7.54794 32.5366 8.42173 32.5366 9.3333H33.0366ZM31.878 12.1156C32.6196 11.3792 33.0366 10.3777 33.0366 9.3333H32.5366C32.5366 10.2444 32.1728 11.1182 31.5257 11.7608L31.878 12.1156ZM30.2588 16.2755C30.2469 14.7299 30.8288 13.2382 31.8845 12.1089L31.5192 11.7674C30.3761 12.9904 29.7459 14.6057 29.7588 16.2794L30.2588 16.2755ZM15.8698 16.2775C15.8698 17.183 16.6039 17.9166 17.5089 17.9166V17.4166C16.8799 17.4166 16.3698 16.9068 16.3698 16.2775H15.8698ZM17.6307 11.7674C16.4875 12.9903 15.8569 14.6056 15.8698 16.2794L16.3698 16.2755C16.3578 14.73 16.9402 13.2382 17.9959 12.1089L17.6307 11.7674ZM18.6476 9.3333C18.6476 10.2445 18.2842 11.1183 17.6372 11.7608L17.9895 12.1156C18.7311 11.3792 19.1476 10.3776 19.1476 9.3333H18.6476ZM17.6372 6.90591C18.2842 7.54789 18.6476 8.42165 18.6476 9.3333H19.1476C19.1476 8.28858 18.7311 7.28699 17.9894 6.551L17.6372 6.90591ZM15.8698 2.38674C15.8568 4.06096 16.4875 5.67628 17.6307 6.89918L17.9959 6.55773C16.9402 5.42837 16.3578 3.93663 16.3698 2.39061L15.8698 2.38674ZM17.5089 0.75C16.604 0.75 15.8698 1.48351 15.8698 2.38867H16.3698C16.3698 1.75987 16.8799 1.25 17.5089 1.25V0.75ZM19.1476 2.38867C19.1476 1.48363 18.414 0.75 17.5089 0.75V1.25C18.1378 1.25 18.6476 1.75977 18.6476 2.38867H19.1476ZM20.1568 4.81443C19.5038 4.17846 19.1393 3.3028 19.1476 2.39095L18.6476 2.3864C18.6381 3.43457 19.0571 4.44132 19.8079 5.17262L20.1568 4.81443ZM21.9254 9.3333C21.9254 7.66264 21.2975 6.05312 20.1663 4.82421L19.7984 5.16284C20.8446 6.29942 21.4254 7.78806 21.4254 9.3333H21.9254ZM20.1663 13.8419C21.2975 12.613 21.9254 11.0035 21.9254 9.3333H21.4254C21.4254 10.8781 20.8446 12.3667 19.7984 13.5033L20.1663 13.8419ZM19.1476 16.2752C19.1393 15.3638 19.5038 14.4881 20.1568 13.8517L19.8078 13.4936C19.0571 14.2253 18.6381 15.232 18.6476 16.2797L19.1476 16.2752ZM17.5089 17.9166C18.414 17.9166 19.1476 17.1829 19.1476 16.2775H18.6476C18.6476 16.9069 18.1378 17.4166 17.5089 17.4166V17.9166Z" fill="white"/>
</svg>
