<svg width="50" height="48" viewBox="0 0 50 48" fill="none" xmlns="http://www.w3.org/2000/svg">
<path fill-rule="evenodd" clip-rule="evenodd" d="M2.19176 15.9876L4.41206 14.7386L4.41203 45.5878C4.41203 46.3999 5.0705 47.0583 5.8826 47.0583C6.69469 47.0583 7.35317 46.3999 7.35317 45.5878V13.084L25 3.1581L42.6468 13.084V44.1172H33.8234C29.7626 44.1172 26.4706 40.8251 26.4706 36.7644V35.1467C29.8266 34.4653 32.3528 31.4982 32.3528 27.941V26.4704C33.1649 26.4704 33.8234 25.8119 33.8234 24.9998C33.8234 24.1877 33.1649 23.5293 32.3528 23.5293H30.147V19.1175C30.147 18.3054 29.4885 17.647 28.6764 17.647C27.8643 17.647 27.2058 18.3054 27.2058 19.1175V23.5293H22.7941V19.1175C22.7941 18.3054 22.1357 17.647 21.3236 17.647C20.5115 17.647 19.853 18.3054 19.853 19.1175V23.5293H17.6471C16.835 23.5293 16.1766 24.1877 16.1766 24.9998C16.1766 25.8119 16.835 26.4704 17.6471 26.4704V27.941C17.6471 31.4982 20.1733 34.4653 23.5294 35.1467V36.7644C23.5294 42.4497 28.1381 47.0583 33.8234 47.0583H42.6468C44.271 47.0583 45.5879 45.7414 45.5879 44.1172V14.7386L47.8082 15.9876C48.516 16.3857 49.4127 16.1346 49.8109 15.4266C50.2091 14.7189 49.958 13.8221 49.2499 13.4239L25.7208 0.188827C25.2734 -0.0629424 24.7266 -0.0629424 24.2792 0.188827L0.750078 13.4239C0.0420371 13.8221 -0.209077 14.7189 0.189094 15.4266C0.58724 16.1346 1.48404 16.3858 2.19176 15.9876ZM20.5883 27.941V26.4704H29.4117V27.941C29.4117 30.3776 27.4366 32.3527 25 32.3527C22.5634 32.3527 20.5883 30.3776 20.5883 27.941Z" fill="#CE8D3B"/>
</svg>
