<svg width="36" height="41" viewBox="0 0 36 41" fill="none" xmlns="http://www.w3.org/2000/svg">
<path fill-rule="evenodd" clip-rule="evenodd" d="M16.2234 33.7825C15.6786 33.2308 15.4486 32.5709 15.4485 31.7791C15.4487 31.744 15.4487 31.6256 15.4486 31.4969L15.4485 31.2941C14.3621 32.2461 12.7548 32.239 11.6977 31.2188C11.2141 30.7352 10.9138 30.0118 10.9139 29.249C10.9141 29.1911 10.9137 29.0786 10.9132 28.9247V28.9247V28.9246C10.9124 28.6945 10.9114 28.372 10.9112 28.0015L5.9083 33.0044C5.9083 33.0044 5.7076 33.2148 5.45561 33.366C5.20362 33.5173 4.9382 33.6162 4.9382 33.6162L1.27478 34.8038C1.064 34.8812 0.828406 34.8289 0.669456 34.6699C0.510506 34.511 0.457602 34.2748 0.535019 34.0641C0.535138 34.0642 1.72097 30.4074 1.72097 30.4074C1.72097 30.4074 1.79797 30.1538 1.95275 29.8943C2.10752 29.6347 2.33166 29.4332 2.33166 29.4332L7.65162 24.1132C7.65162 24.1132 6.72966 24.143 6.04662 23.46C5.87544 23.2888 5.72532 23.093 5.59983 22.8772C5.21805 22.2176 5.16711 21.4317 5.34074 20.748C5.34062 20.7468 6.55019 16.0245 6.61323 15.7856C6.79508 15.0782 7.05263 14.5025 7.48886 13.8794C7.597 13.7249 8.97984 11.8063 10.2801 10.0043L1.03116e-05 10.0067C0.000466887 10.4452 0.00270255 10.5399 0.00382086 10.5873C0.00493859 10.6347 0.00494012 10.6348 0.000933535 10.8834L0 11V8H11.7271C12.1749 7.38018 12.499 6.9323 12.5815 6.81955C12.6336 6.74863 12.9016 6.42185 12.9564 6.36697C13.6205 5.67332 14.2866 5.46958 14.8627 5.41775C15.4257 5.35023 23.7893 4.39677 27.828 3.93674L31.5859 0.17878C31.6712 0.0934896 31.7811 0.0374247 31.8999 0.0181002C31.9959 -0.00551868 33.178 -0.147053 34.3086 0.988262C35.4402 2.11875 35.3399 3.32098 35.3251 3.41062C35.3093 3.54083 35.2521 3.66047 35.16 3.75262L33.112 5.80066L32.2087 6.70402L30.0847 8.82804C30.6486 9.37444 31 10.1455 31 11V41H29L29.0009 38.5L29.0006 27.6971C28.1726 27.3593 27.5434 27.2426 26.5082 27.2148C25.9247 27.1988 25.0589 27.3527 25.0589 27.3527L21.9379 27.8624C23.3143 29.2373 24.5058 30.4278 24.6271 30.549C25.1353 31.0572 25.2423 31.7114 25.2457 32.3243C25.2452 33.0252 24.9794 33.6644 24.5185 34.1253C23.9908 34.6529 23.202 34.9256 22.5818 34.9548C21.9615 34.9839 21.4222 34.7503 20.7786 34.1066C20.7296 34.0576 20.5676 33.8956 20.2489 33.7358C19.011 34.9566 17.3456 34.876 16.2234 33.7825ZM0 16V11L0.00186813 36C0.00186813 36.1425 0.00304586 36.3222 0.00439935 36.5287C0.00791604 37.0652 0.0126193 37.7828 0.000934601 38.5L0.00186813 41H0V40.5V16ZM17.5327 21.38L28.8905 10.0222C28.9531 10.119 29 10.52 29 11L29.0005 26.4163C28.2329 26.1649 27.3701 26.006 26.2776 26.0731C25.5258 26.1193 24.8874 26.2453 24.8874 26.2453C24.8874 26.2453 22.7759 26.585 21.1321 26.848L20.9515 26.8769C20.7922 26.9024 20.6391 26.9268 20.4932 26.9499L20.4466 26.9573L20.4449 26.9576C20.2537 26.9882 20.0783 27.0162 19.9226 27.0407C19.7364 27.0704 19.5792 27.0953 19.4622 27.1137L19.4113 27.1215C19.3266 27.1346 19.2686 27.1435 19.243 27.147C18.9408 27.1898 18.5718 27.2318 17.9275 27.2752C17.6593 27.2931 17.3327 27.2889 17.0794 27.2803C16.8369 27.2705 16.7524 27.2642 16.661 27.2573L16.6476 27.2563L16.0198 27.2055L15.5591 27.168L15.3873 27.1542L15.3381 27.1502C14.8058 27.107 14.209 27.0587 13.6314 27.0122C13.0359 26.9643 12.4726 26.9192 12.0539 26.8862L12.0482 26.8858C11.7924 26.8659 11.5868 26.8499 11.4729 26.8418C11.4244 26.8378 11.3807 26.8311 11.337 26.8243C11.3182 26.8214 11.2995 26.8185 11.2805 26.8159C11.1173 26.7929 10.9655 26.7623 10.8279 26.7114C10.5712 26.6164 10.3426 26.4628 10.0847 26.2049C9.36119 25.4793 9.27733 24.4688 9.78967 23.6583C9.8242 23.6036 9.86285 23.5503 9.90162 23.4972C9.96383 23.4124 10.0304 23.3293 10.1085 23.251C10.2029 23.1579 10.2798 23.0972 10.3586 23.0401L10.3732 23.0295C10.4122 23.0013 10.451 22.9731 10.4911 22.948C10.8352 22.7318 11.224 22.6194 11.6191 22.6133L15.4827 22.6134H16.9023L16.9029 22.6134C16.9252 22.6132 17.229 22.6111 17.5854 22.5694C17.8614 22.5363 18.1633 22.4721 18.2556 22.4525L18.2556 22.4524C18.2724 22.4489 18.2822 22.4468 18.2837 22.4466L26.0845 20.6217C26.0845 20.6217 26.201 20.5965 26.2723 20.483C26.3438 20.3696 26.3065 20.273 26.3065 20.273L26.1585 19.6703C26.1585 19.6703 26.1327 19.5695 26.0279 19.4982C25.9229 19.4268 25.8116 19.4668 25.8116 19.4668L18.3223 21.2188C18.3223 21.2188 18.0116 21.2914 18.0118 21.2915C18.0165 21.291 17.7555 21.3477 17.5327 21.38ZM12.3871 30.2199C12.2249 30.005 12.1195 29.7553 12.0781 29.4845C12.0654 29.3993 12.0534 29.3143 12.0533 29.2261L12.0534 28.088L12.7699 28.144C13.4649 28.1982 14.2986 28.2632 14.9929 28.3195L15.4207 28.3541C15.4206 28.4519 15.4207 28.5452 15.4207 28.6312L15.4207 28.7473C15.4207 28.9793 15.4207 29.1494 15.4206 29.2265C15.4205 29.7372 15.2328 30.0593 14.9674 30.3252L14.9592 30.3325L14.9493 30.3418C14.6235 30.6665 14.0489 30.8726 13.6287 30.874C13.2051 30.8756 12.87 30.7317 12.5412 30.4039C12.4868 30.351 12.4415 30.2914 12.3962 30.2318L12.3962 30.2318L12.3871 30.2199ZM20.9721 32.582L21.727 33.3369C22.0469 33.6417 22.2714 33.7197 22.7012 33.7299C23.0902 33.7294 23.4364 33.5742 23.6926 33.3191C23.9477 33.0629 24.106 32.6899 24.1076 32.2999C24.1095 31.9342 23.9748 31.5896 23.8013 31.4233C23.6806 31.3026 22.4841 30.1072 21.1047 28.7294C21.1289 30.2282 21.1328 31.5457 21.1328 31.7588C21.129 32.0334 21.0703 32.3127 20.9721 32.582ZM16.5893 28.4533C16.6435 28.457 16.7377 28.4631 16.8596 28.4689C17.1474 28.4832 17.5817 28.4817 17.9838 28.4691C18.3385 28.4579 18.764 28.4115 19.128 28.3629C19.5874 28.302 19.9497 28.238 19.9497 28.238L19.9499 29.1447L19.9505 31.5309C19.9506 31.615 19.9506 31.6871 19.9505 31.7357L19.9505 31.7782C19.9597 32.1087 19.741 32.5982 19.4922 32.8733C19.4853 32.8806 19.4786 32.8882 19.4718 32.8959L19.4718 32.8959C19.4619 32.9073 19.452 32.9185 19.4418 32.9284C18.7871 33.5806 17.7313 33.58 17.0787 32.9295C17.0716 32.9224 17.0643 32.9156 17.0572 32.9091C16.755 32.6012 16.5849 32.1329 16.5888 31.7793C16.5891 31.6283 16.5894 30.9094 16.5891 29.9704L16.5892 29.366L16.5893 28.4533ZM9.73623 27.5437C9.57555 27.4375 9.4135 27.3087 9.24638 27.1394C9.23141 27.1249 9.21727 27.1108 9.20475 27.0967C8.1982 26.0901 8.40135 24.9971 8.40135 24.9971L3.21886 30.1796C3.21886 30.1796 3.02997 30.3724 2.91045 30.5715C2.82635 30.7116 2.68118 31.1438 2.68118 31.1438L1.81372 33.5241L4.2068 32.6538C4.2068 32.6538 4.59037 32.526 4.76673 32.4168C4.95288 32.3016 5.1593 32.1206 5.1593 32.1206L9.73623 27.5437ZM11.0613 17.4537C10.8208 18.184 9.59803 22.0159 9.59743 22.0179C9.58157 22.0618 9.56188 22.1057 9.54184 22.1491C9.51728 22.2017 9.48573 22.2526 9.45437 22.3032L9.44272 22.322C9.37657 22.429 9.30243 22.5329 9.21058 22.6247C9.11802 22.716 9.01346 22.7967 8.89811 22.8666C8.19658 23.276 7.42569 23.1446 6.90572 22.6246C6.80516 22.524 6.71617 22.4088 6.64007 22.2781C6.41235 21.884 6.36559 21.4298 6.46841 21.0191C6.46907 21.0161 7.67971 16.2917 7.73918 16.0635C7.9066 15.4345 8.06018 15.0704 8.42806 14.5527L8.71007 14.1596C9.78358 12.6629 13.4891 7.49633 13.636 7.32753C13.6536 7.30726 13.6719 7.28474 13.6903 7.26208L13.6903 7.26207C13.7201 7.22522 13.7503 7.18802 13.7787 7.15958C13.8498 7.09218 13.9144 7.03391 13.9743 6.98291C14.34 6.67131 14.518 6.6463 14.8513 6.59943L14.8513 6.59943C14.901 6.59244 14.9542 6.58496 15.012 6.57597L26.5179 5.24675L21.5974 10.1673C19.8426 10.3115 18.1002 10.4558 17.8596 10.4787C17.185 10.535 16.4727 10.8581 15.9354 11.4085C15.9086 11.4353 15.8862 11.459 15.867 11.4793C15.6899 11.6657 15.0824 12.297 14.4079 12.998C13.4371 14.0069 12.3275 15.1601 12.1623 15.3386C11.6261 15.9129 11.3817 16.4723 11.0613 17.4537ZM18.1424 11.6538L18.1423 11.6538L18.1422 11.6538C18.0272 11.6666 17.9475 11.6755 17.9106 11.679C17.4072 11.7368 17.1242 11.846 16.7421 12.2152C16.7297 12.2275 16.7135 12.2438 16.6945 12.2652C16.5109 12.4583 15.8692 13.1251 15.1698 13.852L15.1696 13.8522C14.2117 14.8478 13.1456 15.9557 12.9998 16.1131C12.6242 16.5255 12.394 16.8602 12.0216 17.9662C11.9726 18.1118 11.8696 18.4033 11.7398 18.7709C11.5455 19.321 11.2911 20.0413 11.0675 20.6972L20.3271 11.4376C19.3833 11.5154 18.5459 11.6088 18.1424 11.6538ZM33.4924 1.80478C33.8953 2.20922 34.0556 2.59231 34.1278 2.87288C34.1505 2.96383 34.1632 3.04376 34.17 3.10877L15.8014 21.4773C15.8014 21.4773 11.8511 21.5479 11.851 21.5477L32.2389 1.1598C32.48 1.17679 32.9598 1.27682 33.4924 1.80478Z" fill="url(#paint0_linear_8_15)"/>
<defs>
<linearGradient id="paint0_linear_8_15" x1="31" y1="22.3304" x2="-98.4983" y2="21.6474" gradientUnits="userSpaceOnUse">
<stop stop-color="#CF9852"/>
<stop offset="0.453818" stop-color="#F2CB99"/>
<stop offset="1" stop-color="#D19C59"/>
</linearGradient>
</defs>
</svg>
