<svg width="81" height="83" viewBox="0 0 81 83" fill="none" xmlns="http://www.w3.org/2000/svg">
<path fill-rule="evenodd" clip-rule="evenodd" d="M24.3794 37.9172L27.4829 32.4C27.4928 32.3828 27.4988 32.3651 27.5048 32.3471C27.509 32.3349 27.5131 32.3226 27.5186 32.3101C27.5365 32.2713 27.5519 32.2332 27.5654 32.1931C27.619 32.0454 27.6553 31.8939 27.6565 31.7393L27.6581 31.735C27.6595 31.7314 27.6608 31.728 27.6608 31.7239V31.7141V31.7128V17.9444V17.942V17.9309C27.6608 17.9281 27.6602 17.9257 27.6596 17.9232C27.659 17.9207 27.6584 17.9183 27.6584 17.9155C27.6572 17.7609 27.6214 17.6095 27.5673 17.4617L27.5567 17.4339C27.5453 17.4036 27.5341 17.374 27.5205 17.3447C27.5148 17.3327 27.5106 17.3201 27.5064 17.3076L27.5063 17.3076C27.5004 17.29 27.4945 17.2725 27.4847 17.2566L24.3812 11.7394C24.1355 11.3035 23.6762 11.0344 23.178 11.0344H22.1436V8.27579H23.5229C24.2858 8.27579 24.9022 7.65941 24.9022 6.8965C24.9022 6.13358 24.2858 5.5172 23.5229 5.5172H12.4885C11.7256 5.5172 11.1092 6.13358 11.1092 6.8965C11.1092 7.65941 11.7256 8.27579 12.4885 8.27579H13.8678V11.0344H8.35058V1.3793C8.35058 0.616381 7.7342 0 6.97128 0C6.20836 0 5.59198 0.616381 5.59198 1.3793V11.0344H4.55751C4.05935 11.0344 3.60001 11.3035 3.35616 11.7376L0.252661 17.2548C0.242753 17.272 0.236782 17.2897 0.230707 17.3077C0.226588 17.3199 0.222421 17.3322 0.216947 17.3447C0.19909 17.3835 0.184929 17.4216 0.170149 17.4617C0.116578 17.6095 0.0802485 17.7609 0.0790174 17.9155L0.0774427 17.9198C0.076017 17.9235 0.074707 17.9268 0.074707 17.9309V17.9407V17.942V31.7104V31.7128V31.7239C0.074707 31.7267 0.0753228 31.7291 0.0759385 31.7316C0.0765543 31.7341 0.0771701 31.7365 0.0771701 31.7393C0.0784017 31.8939 0.114116 32.0453 0.168302 32.1931L0.17886 32.221L0.178888 32.221L0.178936 32.2212C0.190306 32.2514 0.201442 32.2809 0.2151 32.3101C0.220885 32.3225 0.22521 32.3354 0.229563 32.3484L0.229568 32.3484C0.235405 32.3659 0.241291 32.3834 0.250814 32.4L3.35432 37.9172C3.5335 38.2356 3.82906 38.4622 4.16958 38.5613L2.83461 81.3369C2.8223 81.7107 2.96269 82.0721 3.22192 82.3412C3.48176 82.6097 3.83891 82.7587 4.21268 82.7587H23.5229C23.5309 82.7575 23.5438 82.7575 23.5506 82.7587C24.3135 82.7587 24.9299 82.1423 24.9299 81.3794C24.9299 81.2704 24.9176 81.1645 24.8942 81.0623L23.5641 38.5625C23.9046 38.4615 24.2014 38.2356 24.3794 37.9172ZM2.83395 19.3101H24.9027V30.3445H2.83395V19.3101ZM19.3855 8.27569H16.6269V11.0343H19.3855V8.27569ZM5.36477 13.7929H22.3719L23.9236 16.5515H3.81424L5.36477 13.7929ZM6.92878 38.6203L5.63508 79.9993H22.1023L20.8086 38.6203H6.92878ZM22.3727 35.8617H5.36552L3.8138 33.1031H23.9232L22.3727 35.8617ZM29.0406 46.8961H78.6954C79.4583 46.8961 80.0747 47.5125 80.0747 48.2754V53.7926C80.0747 54.5555 79.4583 55.1719 78.6954 55.1719V70.3442C78.6954 71.1071 78.079 71.7235 77.3161 71.7235H75.9368V81.3786C75.9368 82.1415 75.3204 82.7579 74.5575 82.7579H69.0403H31.7992C31.0363 82.7579 30.4199 82.1415 30.4199 81.3786V71.7235C29.657 71.7235 29.0406 71.1071 29.0406 70.3442V55.1719C28.2777 55.1719 27.6613 54.5555 27.6613 53.7926V48.2754C27.6613 47.5125 28.2777 46.8961 29.0406 46.8961ZM56.6266 79.9993H69.0403H73.1782V71.7235H33.1785V79.9993H37.3164V75.8614C37.3164 75.0984 37.9328 74.4821 38.6957 74.4821H55.2473C56.0102 74.4821 56.6266 75.0984 56.6266 75.8614V79.9993ZM53.868 77.2407H40.075V79.9993H53.868V77.2407ZM30.4199 49.6547H77.3161V52.4133H30.4199V49.6547ZM31.7992 55.1719V68.9649H48.3508V55.1719H31.7992ZM75.9368 68.9649H51.1094V55.1719H75.9368V68.9649ZM59.3852 57.9305H62.1438V60.6891H59.3852V57.9305ZM67.661 57.9305H64.9024V60.6891H67.661V57.9305ZM70.4196 57.9305H73.1782V60.6891H70.4196V57.9305ZM62.1438 63.4477H59.3852V66.2063H62.1438V63.4477ZM53.868 57.9305H56.6266V60.6891H53.868V57.9305ZM56.6266 63.4477H53.868V66.2063H56.6266V63.4477ZM64.9024 63.4477H67.661V66.2063H64.9024V63.4477ZM73.1782 63.4477H70.4196V66.2063H73.1782V63.4477ZM57.7873 15.4715L51.565 11.5226L51.5649 11.5225C51.1363 11.2492 50.8919 10.7639 50.9301 10.2566C50.9689 9.75039 51.2817 9.30336 51.7466 9.09769L56.7909 6.86181C57.2145 6.67461 57.6985 6.71156 58.0889 6.95725L65.8647 11.892L71.5198 9.38592C72.0475 9.15132 72.6079 9.03125 73.183 9.03125C74.8093 9.03125 76.2834 9.99188 76.9429 11.4771C77.8838 13.5984 76.9441 16.0313 74.8739 16.95L69.2175 19.4573L67.6535 28.5317C67.5753 28.9855 67.2754 29.3704 66.8536 29.5582L61.8093 31.794C61.6301 31.8741 61.4411 31.9129 61.2508 31.9129C60.9485 31.9129 60.6505 31.8131 60.4023 31.6216C60.0021 31.307 59.805 30.7996 59.8919 30.299L61.1443 23.0368L52.1511 27.0232C51.9689 27.1051 51.7798 27.142 51.5939 27.142C51.0637 27.142 50.5594 26.836 50.3316 26.3212L46.9769 18.7561C46.8279 18.4211 46.8181 18.0418 46.9505 17.6994C47.0798 17.3589 47.3433 17.083 47.6771 16.9352L51.4603 15.2579C51.9375 15.0454 52.4935 15.1224 52.8975 15.4549L54.6191 16.8755L57.7873 15.4715ZM63.0453 28.2259L65.0588 27.3349L66.1845 20.8011L64.1722 21.6921L63.0453 28.2259ZM72.635 11.9077C73.3092 11.6128 74.1177 11.9188 74.4417 12.6442C74.7421 13.3258 74.4336 14.1269 73.7532 14.4292L67.425 17.2347C67.425 17.2347 67.4238 17.2347 67.4225 17.2359L63.1399 19.1349L52.2903 23.9446L50.0544 18.9003L51.7977 18.1282L53.5194 19.5487C53.9233 19.8813 54.4793 19.957 54.9565 19.7458L72.635 11.9077ZM62.8309 13.236L57.2324 9.68305L55.2189 10.5753L60.8174 14.1282L61.5206 13.8166L62.8309 13.236ZM49.0797 13.2978L47.9615 10.7756L41.6567 13.5705L42.775 16.0926L49.0797 13.2978ZM40.9436 28.9731L39.8254 26.4509L46.1301 23.6561L47.2483 26.1782L40.9436 28.9731ZM51.7185 36.2684L58.0233 33.4735L56.905 30.9514L50.6003 33.7462L51.7185 36.2684Z" fill="#CE8D3B"/>
</svg>
