<svg width="127" height="64" viewBox="0 0 127 64" fill="none" xmlns="http://www.w3.org/2000/svg">
<path fill-rule="evenodd" clip-rule="evenodd" d="M88.8377 12.4138H86.0791V0H126.079V12.4138H124.7V61.6552H119.183H94.355H88.8377V12.4138ZM121.941 58.8966H119.183V35.4483H94.355V58.8966H91.5963V12.4138H121.941V58.8966ZM105.389 58.8966H97.1136V38.2069H105.389V58.8966ZM108.148 58.8966H116.424V38.2069H108.148V58.8966ZM88.8377 9.65517H123.32V2.75862H88.8377V9.65517ZM5.59634 34.069V28.5517C5.59634 23.8343 17.2103 23.476 20.7688 23.476C24.3272 23.476 35.9412 23.8344 35.9412 28.5517V34.069H41.4584V45.1034H35.9412V53.3793V56.1379V57.5172C35.9412 58.9803 35.3599 60.3837 34.3254 61.4187C33.2903 62.4532 31.8869 63.0345 30.4239 63.0345C28.9609 63.0345 27.5575 62.4532 26.5225 61.4187C25.488 60.3836 24.9067 58.9803 24.9067 57.5172V56.1379H16.6308V57.5172C16.6308 58.9803 16.0495 60.3837 15.0151 61.4187C13.98 62.4532 12.5766 63.0345 11.1136 63.0345C9.65054 63.0345 8.24714 62.4532 7.21211 61.4187C6.17762 60.3836 5.59634 58.9803 5.59634 57.5172V56.1379V53.3793V45.1034H0.0791016V34.069H5.59634ZM24.9067 53.3793H33.1826L33.1825 45.1034V34.069L33.1826 28.5517C32.8931 27.7377 28.5065 26.2346 20.7688 26.2346C13.0311 26.2346 8.64438 27.7377 8.35496 28.5517V34.069V45.1034V53.3793H16.6308H24.9067ZM27.6653 56.1379V57.5172C27.6653 58.5031 28.1912 59.4138 29.0446 59.9064C29.8981 60.399 30.9498 60.399 31.8032 59.9064C32.6567 59.4138 33.1825 58.503 33.1825 57.5172V56.1379H27.6653ZM8.35496 56.1379V57.5172C8.35496 58.5031 8.88082 59.4138 9.73427 59.9064C10.5877 60.399 11.6395 60.399 12.4929 59.9064C13.3463 59.4138 13.8722 58.503 13.8722 57.5172V56.1379H8.35496ZM35.9412 42.3448H38.6998V36.8276H35.9412V42.3448ZM5.59634 36.8276H2.83772V42.3448H5.59634V36.8276ZM46.0791 45.1034V34.069H51.5963V28.5517C51.5963 23.8343 63.2103 23.476 66.7688 23.476C70.3272 23.476 81.9412 23.8344 81.9412 28.5517V34.069H87.4584V45.1034H81.9412V53.3793V56.1379V57.5172C81.9412 58.9803 81.3599 60.3837 80.3254 61.4187C79.2903 62.4532 77.8869 63.0345 76.4239 63.0345C74.9609 63.0345 73.5575 62.4532 72.5224 61.4187C71.488 60.3836 70.9067 58.9803 70.9067 57.5172V56.1379H62.6308V57.5172C62.6308 58.9803 62.0495 60.3837 61.0151 61.4187C59.98 62.4532 58.5766 63.0345 57.1136 63.0345C55.6505 63.0345 54.2471 62.4532 53.2121 61.4187C52.1776 60.3836 51.5963 58.9803 51.5963 57.5172V56.1379V53.3793V45.1034H46.0791ZM79.1825 34.069V45.1034L79.1826 53.3793H70.9067H62.6308H54.355V45.1034V34.069V28.5517C54.6444 27.7377 59.0311 26.2346 66.7688 26.2346C74.5065 26.2346 78.8932 27.7377 79.1826 28.5517L79.1825 34.069ZM73.6653 57.5172V56.1379H79.1825V57.5172C79.1825 58.503 78.6567 59.4138 77.8032 59.9064C76.9498 60.399 75.8981 60.399 75.0446 59.9064C74.1912 59.4138 73.6653 58.5031 73.6653 57.5172ZM54.355 56.1379H59.8722V57.5172C59.8722 58.503 59.3463 59.4138 58.4929 59.9064C57.6395 60.399 56.5877 60.399 55.7343 59.9064C54.8808 59.4138 54.355 58.5031 54.355 57.5172V56.1379ZM81.9412 42.3448V36.8276H84.6998V42.3448H81.9412ZM51.5963 36.8276V42.3448H48.8377V36.8276H51.5963ZM55.7343 46.4828H77.8032V32.6897H55.7343V46.4828ZM75.0446 43.7241H58.4929V35.4483H75.0446V43.7241ZM31.8032 46.4828H9.73427V32.6897H31.8032V46.4828ZM12.4929 43.7241H29.0446V35.4483H12.4929V43.7241ZM58.4929 28.5517H73.6653V31.3103H58.4929V28.5517ZM27.6653 28.5517H12.4929V31.3103H27.6653V28.5517ZM57.1136 49.2414H62.6308V52H57.1136V49.2414ZM16.6308 49.2414H11.1136V52H16.6308V49.2414ZM76.4239 49.2414V52H70.9067V49.2414H76.4239ZM30.4239 49.2414H24.9067V52H30.4239V49.2414ZM99.8722 46.4828H102.631V50.6207H99.8722V46.4828ZM112.286 46.4828H109.527V50.6207H112.286V46.4828Z" fill="#CE8D3B"/>
</svg>
