<svg width="14" height="14" viewBox="0 0 14 14" fill="none" xmlns="http://www.w3.org/2000/svg">
<path fill-rule="evenodd" clip-rule="evenodd" d="M2.81459 0.200674C5.59736 -0.0668913 8.37968 -0.0668913 11.1624 0.200674C12.4393 0.335129 13.6534 1.54926 13.7875 2.82568C14.0555 5.60845 14.0555 8.39122 13.7875 11.174C13.6534 12.4509 12.4393 13.665 11.1624 13.799C8.37968 14.0666 5.59736 14.0666 2.81459 13.799C1.53772 13.665 0.323593 12.4509 0.189138 11.174C0.0874112 10.116 0.0243603 9.05799 -1.44673e-05 8H6.93317L3.92008 11H6.92107L10.9166 6.99283L6.92107 3H3.92008L6.93317 5.99377H0.000121607C0.0245944 4.93774 0.0875999 3.88171 0.189138 2.82568C0.323593 1.54926 1.53772 0.335129 2.81459 0.200674Z" fill="#CE8D3B"/>
</svg>
