<svg width="50" height="30" viewBox="0 0 50 30" fill="none" xmlns="http://www.w3.org/2000/svg">
<path fill-rule="evenodd" clip-rule="evenodd" d="M24.8 3.8C27.5 1.4 31 0 34.8 0C43 0 49.7 6.7 49.7 14.9C49.7 23.1 43 29.8 34.8 29.8C30.9 29.8 27.4 28.4 24.8 26C22.2 28.4 18.7 29.8 14.9 29.8C6.7 29.8 0 23.1 0 14.9C0 6.7 6.7 0 14.9 0C18.7 0 22.2 1.4 24.8 3.8ZM22.5 15.1C22.6 14.4 23 14 23.5 14C24.3872 14 24.3299 14.7083 24.3056 15.0079C24.3025 15.0459 24.3 15.0774 24.3 15.1H22.5ZM10.1 17C10.1 17.4 10.3 17.6 10.7 17.6C11.4 17.6 11.8 17 11.9 16.1H11.5C10.6 16.1 10.1 16.4 10.1 17ZM35.7 17C35.7 17.4 35.9 17.6 36.3 17.6C37 17.6 37.4 17 37.5 16.1H37.1C36.1 16.1 35.7 16.4 35.7 17ZM45.2 14.2C44.5 14.2 43.9 15.1 43.9 16.3C43.9 17.1 44.2 17.5 44.7 17.5C45.5 17.5 46 16.6 46 15.4C46.1 14.6 45.8 14.2 45.2 14.2ZM6.3 18.9L7.2 13.1L5.1 18.9H4L3.9 13.1L2.9 18.9H1.4L2.7 11.3H5L5.1 16L6.7 11.3H9.2L7.9 18.9H6.3ZM11.7 18.3V18.9C11.7 18.9 12.8 18.9 13 18.8C13.1 18.3 13.4 16.4 13.5 15.5C13.6 15 13.6 14.6 13.6 14.3C13.6 13.1 12.9 12.5 11.5 12.5C10.9 12.5 10.4 12.6 9.6 12.8C9.6 12.8 9.4 14.1 9.4 14.2C9.7 14.1 10.3 13.9 11.1 13.9C11.8 13.9 12.1 14.1 12.1 14.5C12.1 14.6 12.1 14.7 12 14.9H11.3C9.5 14.9 8.5 15.8 8.5 17.3C8.5 18.3 9.1 19 10 19C10.7 19 11.3 18.8 11.7 18.3ZM16.5 15.2C17.3 15.6 17.6 16.1 17.6 16.9C17.6 18.3 16.8 19 15.1 19C14.1839 19 13.8553 18.9161 13.4991 18.8251C13.4664 18.8168 13.4336 18.8084 13.4 18.8C13.4 18.7 13.6 17.4 13.6 17.4C14.1 17.6 14.6 17.6 15.1 17.6C15.7 17.6 16 17.4 16 17C16 16.7 15.9 16.6 15.2 16.3C14.3 15.9 14 15.4 14 14.6C14 13.5 14.6 12.5 16.4 12.5C16.6 12.5 16.85 12.525 17.1 12.55C17.35 12.575 17.6 12.6 17.8 12.6L17.6 14C17.2 13.9 16.8 13.9 16.4 13.9C15.9 13.9 15.6 14.1 15.6 14.4C15.7 14.8 15.8 14.9 16.5 15.2ZM20.4 17.4C20.3 17.5 20.2 17.5 20 17.5C19.7 17.5 19.5 17.3 19.3 17C19.3 16.893 19.3859 16.4424 19.4964 15.8628L19.4965 15.8624L19.4965 15.8624C19.5925 15.3588 19.707 14.7578 19.8 14.2H20.6L20.8 12.7H20L20.2 11.8H18.6L17.9 16C17.8 16.6 17.7 17.3 17.7 17.6C17.7 18.5 18.2 19 19 19C19.4 19 19.8 18.9 20.2 18.8L20.4 17.4ZM23.8 17.6C24.4 17.6 24.9 17.5 25.5 17.2L25.2 18.7C24.6 18.9 24.1 18.9 23.5 18.9C21.7 18.9 20.8 18 20.8 16.2C20.8 14.1 22 12.5 23.6 12.5C24.9 12.5 25.8 13.4 25.8 14.7C25.8 15.0828 25.7414 15.407 25.669 15.8071C25.6469 15.9297 25.6234 16.0593 25.6 16.2H22.4C22.3 17.2 22.9 17.6 23.8 17.6ZM25.8 18.9H27.4L27.4183 18.7843C28.0021 15.0857 28.1102 14.401 29.1 14.5C29.2 13.7 29.5 13 29.7 12.7C29 12.6 28.6 13 28.1 13.7C28.1 13.55 28.125 13.4 28.15 13.25L28.15 13.25C28.175 13.1 28.2 12.95 28.2 12.8H26.7C26.5 14.7 26.2 16.5999 25.9 18.4999L25.9 18.5L25.8 18.9ZM33.6 18.8C33 19 32.6 19 32.2 19C30.5 19 29.4 17.7 29.4 15.7C29.4 13 30.9 11.1 33.1 11.1C33.7318 11.1 34.4451 11.3444 34.7986 11.4655C34.8368 11.4786 34.8708 11.4903 34.9 11.5L34.6 13.1C34 12.8 33.6 12.7 33.2 12.7C32 12.7 31.1 13.9 31.1 15.5C31.1 16.6 31.7 17.3 32.6 17.3C33 17.3 33.4 17.2 34 16.9L33.6 18.8ZM37.3 18.9H38.6C38.6 18.4 38.9 16.5 39.1 15.5C39.2 15 39.2 14.6 39.2 14.3C39.2 13.1 38.5 12.5 37.1 12.5C36.5 12.5 36 12.6 35.2 12.8C35.2 12.8 35 14.1 35 14.2C35.3 14.1 35.9 13.9 36.7 13.9C37.4 13.9 37.7 14.1 37.7 14.5C37.7 14.6 37.7 14.7 37.6 14.9H36.9C35.1 14.9 34.1 15.8 34.1 17.3C34.1 18.3 34.7 19 35.6 19C36.3 19 36.9 18.8 37.3 18.3V18.9ZM40.8 18.9H39.2L39.3 18.5C39.6 16.6 39.9 14.7 40.1 12.8H41.6C41.6 12.95 41.575 13.1 41.55 13.25C41.525 13.4 41.5 13.55 41.5 13.7C42 13 42.4 12.6 43.1 12.7C42.9 13 42.6 13.7 42.5 14.5C41.5 14.4 41.3 15.1 40.8 18.9ZM45.6167 18.8L45.6 18.9V18.8H45.6167ZM45.7 18.3L45.6167 18.8H47.1L48.3 11.2H46.7L46.3 13.4C45.9 12.9 45.4 12.6 44.8 12.6C43.4 12.6 42.2 14.4 42.2 16.4C42.2 18 43 19 44.2 19C44.8 19 45.3 18.8 45.7 18.3Z" fill="#FF6B00"/>
</svg>
