<svg width="81" height="64" viewBox="0 0 81 64" fill="none" xmlns="http://www.w3.org/2000/svg">
<path fill-rule="evenodd" clip-rule="evenodd" d="M13.784 21.9216C13.7871 23.5444 13.2085 25.1144 12.1534 26.3469L12.1534 26.3469C11.48 27.0949 11.0873 28.0539 11.0438 29.0595V41.1849C11.0438 43.8431 11.264 46.4965 11.7014 49.118L12.8659 56.0096C12.9198 56.3448 12.9473 56.6842 12.9485 57.0237C12.9468 58.7063 12.2397 60.312 10.9998 61.4496C9.76002 62.5873 8.10056 63.1537 6.42341 63.0118C4.74688 62.8693 3.2061 62.0313 2.17548 60.701C1.14546 59.37 0.719133 57.6691 1.00111 56.0096L2.16569 49.1181C2.60302 46.4966 2.82321 43.8433 2.82321 41.185V29.0595C2.77979 28.054 2.38711 27.0949 1.71368 26.3469C0.658598 25.1144 0.0799736 23.5442 0.0830318 21.9216V1.3701C0.0830318 0.613491 0.696522 0 1.45313 0C2.20974 0 2.82323 0.613491 2.82323 1.3701V13.701H5.56342V1.3701C5.56342 0.613491 6.17691 0 6.93352 0C7.69013 0 8.30362 0.613491 8.30362 1.3701V13.701H11.0438V1.3701C11.0438 0.613491 11.6573 0 12.4139 0C13.1705 0 13.784 0.613491 13.784 1.3701V21.9216ZM10.1533 56.4612L9.00213 49.5697L9.00208 49.5695C8.53723 46.7986 8.30358 43.9942 8.30358 41.1844V29.0589C8.33787 27.4026 8.96477 25.813 10.0712 24.5793C10.7006 23.8366 11.045 22.8941 11.0438 21.921V16.4406H2.82317V21.921C2.82194 22.8941 3.16631 23.8367 3.79569 24.5793C4.90215 25.813 5.5291 27.4026 5.56335 29.0589V41.1844C5.56335 43.9944 5.32972 46.7988 4.86485 49.5695L3.71372 56.4751C3.54613 57.4207 3.81281 58.3921 4.43975 59.1193C5.01848 59.8068 5.85391 60.2258 6.75059 60.2778C7.64733 60.3298 8.52627 60.0105 9.18013 59.3952C9.83399 58.7794 10.2059 57.9212 10.2083 57.0233C10.204 56.8349 10.1857 56.6471 10.1533 56.4612ZM39.8152 5.4807C32.9109 5.4807 26.2898 8.2234 21.409 13.1055C16.5267 17.9871 13.7842 24.6082 13.7842 31.5118C13.7842 38.4153 16.5269 45.0372 21.409 49.9181C26.2906 54.8003 32.9117 57.5428 39.8152 57.5428C46.7188 57.5428 53.3407 54.8001 58.2215 49.9181C63.1038 45.0364 65.8463 38.4153 65.8463 31.5118C65.839 24.6099 63.0939 17.9931 58.2135 13.1133C53.3332 8.23296 46.7163 5.48791 39.8151 5.48055L39.8152 5.4807ZM39.8152 54.8042C33.6382 54.8042 27.7138 52.3503 23.3459 47.9825C18.978 43.6142 16.5242 37.6897 16.5242 31.5132C16.5242 25.3366 18.9782 19.4117 23.3459 15.0438C27.7142 10.676 33.6387 8.22215 39.8152 8.22215C45.9918 8.22215 51.9167 10.6761 56.2846 15.0438C60.6525 19.4122 63.1063 25.3366 63.1063 31.5132C63.0995 37.6885 60.6432 43.6086 56.2766 47.9747C51.91 52.3413 45.9899 54.7976 39.8151 54.8044L39.8152 54.8042ZM39.8152 13.7013C35.0915 13.7013 30.5609 15.5778 27.2207 18.918C23.8805 22.2582 22.004 26.7888 22.004 31.5126C22.004 36.2363 23.8805 40.7669 27.2207 44.1071C30.5609 47.4473 35.0915 49.3238 39.8152 49.3238C44.539 49.3238 49.0696 47.4473 52.4098 44.1071C55.75 40.7669 57.6265 36.2363 57.6265 31.5126C57.621 26.7907 55.7427 22.2632 52.4037 18.9241C49.0647 15.585 44.5373 13.7068 39.8152 13.7013ZM39.8152 46.5836C35.8182 46.5836 31.9849 44.9957 29.1584 42.1694C26.3319 39.3429 24.7442 35.5098 24.7442 31.5126C24.7442 27.5153 26.3321 23.6822 29.1584 20.8557C31.9849 18.0292 35.818 16.4415 39.8152 16.4415C43.8125 16.4415 47.6456 18.0294 50.4721 20.8557C53.2986 23.6822 54.8863 27.5153 54.8863 31.5126C54.8814 35.5085 53.2923 39.3386 50.4671 42.1644C47.6412 44.9896 43.8111 46.5786 39.8152 46.5836ZM78.836 49.1184L80.0006 56.0099L80.0006 56.0105C80.2777 57.6674 79.8489 59.3642 78.8183 60.6909C77.7883 62.017 76.2505 62.8525 74.5765 62.9944C72.9029 63.1369 71.2466 62.5723 70.0074 61.4383C68.7683 60.3042 68.06 58.7043 68.0533 57.0246C68.0539 56.6894 68.0814 56.3548 68.1358 56.0245L69.3004 49.1189C69.7377 46.4974 69.9579 43.8441 69.9579 41.1858V35.6236H68.5878C68.2245 35.6236 67.8759 35.4792 67.619 35.2223C67.3621 34.9654 67.2177 34.6168 67.2177 34.2535V12.7703C67.2165 9.96045 68.0998 7.22151 69.7426 4.94182C71.3855 2.6623 73.7043 0.957565 76.3698 0.0694444C76.7882 -0.0681761 77.2469 0.00278716 77.6029 0.261509C77.965 0.514108 78.1803 0.928816 78.1785 1.37104V41.1853C78.1785 43.8434 78.3987 46.4969 78.836 49.1184ZM71.4283 7.37003C70.4643 9.00616 69.9566 10.8704 69.9579 12.7696L69.9578 32.882H75.4382V3.46643C73.777 4.38572 72.3922 5.7339 71.4283 7.37003ZM76.5619 59.1196C75.9833 59.8071 75.1478 60.2261 74.251 60.2781C73.3543 60.3301 72.4754 60.0108 71.8215 59.3955C71.1676 58.7796 70.7958 57.9214 70.7933 57.0236C70.797 56.8395 70.8153 56.6566 70.8484 56.4755L71.9995 49.5699C72.4644 46.7992 72.698 43.9948 72.698 41.1848V35.6225H75.4382V41.1848C75.4382 43.9946 75.6718 46.799 76.1367 49.5699L77.2878 56.4755C77.4554 57.4212 77.1887 58.3924 76.5618 59.1197L76.5619 59.1196Z" fill="#C2C2C2"/>
</svg>
