<svg width="59" height="54" viewBox="0 0 59 54" fill="none" xmlns="http://www.w3.org/2000/svg">
<path fill-rule="evenodd" clip-rule="evenodd" d="M12.8347 7.27713L12.8792 21.0555C12.5413 21.244 12.26 21.5189 12.0642 21.8524C11.868 22.1854 11.7644 22.5648 11.7635 22.9515V25.0145C11.763 25.3094 11.8225 25.6009 11.9383 25.8724L0.289943 38.4909C-0.119713 38.9348 -0.0918889 39.6267 0.351953 40.0363C0.795796 40.4459 1.48767 40.4181 1.8973 39.9743L13.7101 27.177C13.7897 27.1892 13.8703 27.1975 13.9508 27.2009H16.1042C16.6867 26.3523 17.4133 25.6115 18.2517 25.0134H13.951V22.9505H45.0491V25.0134H40.7479C41.5863 25.6116 42.3129 26.3523 42.8954 27.2009H45.0487C45.1293 27.1975 45.2098 27.1892 45.2894 27.177L57.1022 39.9743C57.5119 40.4176 58.2038 40.4455 58.6476 40.0358C59.0914 39.6261 59.1193 38.9343 58.7096 38.4904L47.0613 25.8719C47.177 25.6004 47.2366 25.3089 47.2361 25.014V22.951C47.2346 22.1815 46.8274 21.47 46.1643 21.0789L46.1199 7.19801L52.7022 1.84322C53.1162 1.40378 53.0957 0.711886 52.6563 0.297368C52.2164 -0.116688 51.5245 -0.0956888 51.1104 0.343753L44.5531 5.6723L14.4038 5.75091L8.89521 1.34737C8.48213 0.910361 7.79415 0.888874 7.35423 1.29903C6.91479 1.70917 6.88841 2.39716 7.29564 2.8395L12.8347 7.27713ZM43.9328 7.86062L43.9753 20.6378L15.0659 20.714L15.0234 7.93679L43.9328 7.86062ZM47.8785 35.4466C49.3126 35.6092 50.6539 36.2405 51.6935 37.2419C52.7335 38.2429 53.4146 39.5593 53.6311 40.9865C55.1373 41.2667 56.4982 42.0646 57.4781 43.2423C58.4586 44.4196 58.9962 45.9024 58.9986 47.4346V52.9033C58.9986 53.5073 58.5089 53.997 57.9049 53.997H1.57775C0.973755 53.997 0.484013 53.5073 0.484013 52.9033V47.4346C0.486388 45.9024 1.02403 44.4196 2.00449 43.2423C2.98435 42.0646 4.3452 41.2668 5.85156 40.9865C6.0683 39.5593 6.7495 38.2429 7.78953 37.2414C8.82963 36.2405 10.1704 35.6092 11.6045 35.4466C11.8437 33.9861 13.4062 29.9574 17.7654 29.9574C17.7654 28.6527 20.2639 25.5646 23.8168 25.56H24.182C26.4442 25.5629 28.5458 26.7313 29.7416 28.6527C30.9373 26.7314 33.0387 25.5629 35.3015 25.56H35.6662C37.0256 25.5619 38.3513 25.9862 39.4597 26.7738C40.5676 27.5614 41.404 28.6742 41.8527 29.9574C43.3287 30.0594 44.7272 30.6571 45.8209 31.6536C46.9147 32.6497 47.6393 33.9861 47.8785 35.4466ZM44.1273 33.075C43.3543 32.4598 42.3959 32.1243 41.4081 32.1224H41.0429C40.0551 32.1243 39.0966 32.4598 38.3237 33.075C37.5503 33.6902 37.0078 34.5491 36.7847 35.5115C38.621 35.8313 40.2358 36.9162 41.2255 38.4963C42.2152 36.9162 43.8299 35.8313 45.6663 35.5115C45.4432 34.5491 44.9007 33.6902 44.1273 33.075ZM35.6659 27.7474C36.4682 27.7484 37.2548 27.9696 37.9398 28.3881C38.6248 28.806 39.1815 29.4042 39.5491 30.1175C37.8637 30.515 36.4027 31.5604 35.4833 33.0276C34.5639 31.5604 33.103 30.5149 31.4175 30.1175C31.7852 29.4042 32.3418 28.806 33.0269 28.3881C33.7119 27.9696 34.4985 27.7484 35.3007 27.7474H35.6659ZM32.643 33.075C31.87 32.4598 30.9116 32.1243 29.9238 32.1224H29.5585C28.5708 32.1243 27.6123 32.4598 26.8393 33.075C26.066 33.6902 25.5235 34.5491 25.3004 35.5115C27.1367 35.8313 28.7514 36.9162 29.7412 38.4963C30.7309 36.9162 32.3456 35.8313 34.182 35.5115C33.9588 34.5491 33.4164 33.6902 32.643 33.075ZM24.1816 27.7474C24.9839 27.7484 25.7705 27.9696 26.4555 28.3881C27.1405 28.806 27.6971 29.4042 28.0648 30.1175C26.3793 30.515 24.9184 31.5604 23.999 33.0276C23.0796 31.5604 21.6187 30.5149 19.9332 30.1175C20.3009 29.4042 20.8575 28.806 21.5425 28.3881C22.2276 27.9696 23.0141 27.7484 23.8164 27.7474H24.1816ZM21.1587 33.075C20.3857 32.4598 19.4272 32.1243 18.4395 32.1224H18.0742C17.0865 32.1243 16.1279 32.4598 15.355 33.075C14.5816 33.6902 14.0392 34.5491 13.816 35.5115C15.6524 35.8313 17.2671 36.9162 18.2568 38.4963C19.2466 36.9162 20.8613 35.8313 22.6976 35.5115C22.4745 34.5491 21.9321 33.6902 21.1587 33.075ZM11.6036 51.8096H2.48847V47.4346C2.48993 46.275 2.95135 45.1627 3.7717 44.3424C4.592 43.5226 5.70379 43.0612 6.8634 43.0597H7.22863C8.38828 43.0612 9.5001 43.5226 10.3203 44.3424C11.1406 45.1627 11.6021 46.275 11.6036 47.4346L11.6036 51.8096ZM9.63336 38.5275C8.86385 39.133 8.31942 39.9782 8.08651 40.9294C9.96835 41.1804 11.6495 42.2326 12.6972 43.8151C13.6797 42.339 15.2168 41.3224 16.9599 40.9967C16.7396 40.0305 16.1977 39.1676 15.4238 38.549C14.6494 37.9304 13.688 37.593 12.6973 37.591H12.3321C11.3531 37.593 10.4034 37.9226 9.63336 38.5275ZM22.9052 51.8096H13.791V47.4346C13.792 46.275 14.2534 45.1627 15.0738 44.3424C15.8941 43.5226 17.0059 43.0612 18.166 43.0597H18.5302C19.6904 43.0612 20.8022 43.5226 21.6224 44.3424C22.4422 45.1627 22.9037 46.275 22.9052 47.4346L22.9052 51.8096ZM21.1039 38.5384C20.332 39.1501 19.789 40.0046 19.5625 40.9631C21.3744 41.2521 22.9833 42.2863 23.9989 43.8151C25.0145 42.2863 26.6233 41.2522 28.4353 40.9631C28.2088 40.0046 27.6658 39.1502 26.8938 38.5384C26.1218 37.9266 25.1663 37.5931 24.1815 37.5911H23.8163C22.8314 37.5931 21.8759 37.9266 21.1039 38.5384ZM34.2067 51.8096H25.0926V47.4346C25.0941 46.275 25.5555 45.1627 26.3754 44.3424C27.1957 43.5226 28.3074 43.0612 29.4676 43.0597H29.8318C30.9919 43.0612 32.1038 43.5226 32.924 44.3424C33.7443 45.1627 34.2057 46.275 34.2067 47.4346L34.2067 51.8096ZM32.5739 38.549C31.8 39.1676 31.258 40.0304 31.0378 40.9967C32.781 41.3225 34.3181 42.339 35.3003 43.8151C36.3482 42.2321 38.0293 41.1803 39.9111 40.9294C39.6783 39.9781 39.1338 39.133 38.3643 38.5275C37.5943 37.9226 36.6446 37.593 35.6656 37.591H35.3003C34.3097 37.593 33.3483 37.9304 32.5739 38.549ZM45.5093 51.8096H36.3942V47.4346C36.3957 46.275 36.8571 45.1627 37.6774 44.3424C38.4977 43.5226 39.6095 43.0612 40.7691 43.0597H41.1344C42.294 43.0612 43.4058 43.5226 44.2261 44.3424C45.0464 45.1627 45.5078 46.275 45.5093 47.4346L45.5093 51.8096ZM44.0445 38.5598C43.2676 39.1848 42.7276 40.0564 42.5132 41.0305C44.1871 41.3907 45.6543 42.3898 46.6032 43.8151C47.6861 42.1823 49.4429 41.1188 51.3921 40.9157C51.1567 39.968 50.6113 39.1257 49.8427 38.5236C49.0742 37.9211 48.1264 37.593 47.1499 37.591H46.7847C45.7876 37.5925 44.8208 37.9343 44.0445 38.5598ZM56.8109 51.8096H47.6968V47.4346C47.6978 46.275 48.1592 45.1627 48.9795 44.3424C49.7998 43.5226 50.9116 43.0612 52.0717 43.0597H52.436C53.5961 43.0612 54.7079 43.5226 55.5282 44.3424C56.348 45.1627 56.8094 46.275 56.8109 47.4346L56.8109 51.8096Z" fill="black"/>
</svg>
