<svg width="83" height="83" viewBox="0 0 83 83" fill="none" xmlns="http://www.w3.org/2000/svg">
<path fill-rule="evenodd" clip-rule="evenodd" d="M72.6429 27.4469C72.6429 24.6168 74.9591 22.3006 77.7893 22.3006L77.788 22.3013C80.6182 22.3013 82.9344 24.6175 82.9344 27.4476C82.9344 29.6948 81.4934 31.5816 79.5032 32.2852V36.0252L79.5025 77.1962V80.6273C79.5025 81.5708 78.7307 82.3426 77.7873 82.3426C76.8439 82.3426 76.0721 81.5708 76.0721 80.6273V78.9121H7.45436V80.6273C7.45436 81.5708 6.68255 82.3426 5.73915 82.3426C4.79575 82.3426 4.02394 81.5708 4.02394 80.6273V32.2845C2.03372 31.5636 0.592773 29.6769 0.592773 27.4469C0.592773 25.1316 2.15378 23.1758 4.26379 22.5411C5.36107 17.6864 11.3309 1.13224 41.6945 0C42.192 0 42.6214 0.154373 42.9466 0.480322C43.2898 0.80629 43.4786 1.25215 43.4786 1.71523V6.58738L45.023 11.3051H50.2563C50.9943 11.3051 51.6455 11.7855 51.8861 12.4891C52.1266 13.1926 51.8688 13.9817 51.2686 14.4103L47.0311 17.481L48.6437 22.4558C48.8842 23.1593 48.6264 23.9484 48.0262 24.377C47.7175 24.6003 47.3743 24.703 47.0139 24.703C46.6535 24.703 46.3103 24.6003 46.0015 24.377L41.7641 21.289L37.5266 24.377C36.9263 24.8229 36.1028 24.8229 35.5026 24.377C34.9023 23.9312 34.6618 23.1594 34.8851 22.4558L36.4977 17.481L32.2602 14.4103C31.6599 13.9645 31.4194 13.1927 31.6427 12.4891C31.866 11.7855 32.5352 11.3051 33.2725 11.3051H38.5043L40.048 6.58738V3.51665C14.2133 5.06074 8.80996 18.2182 7.71218 22.6961C9.58182 23.468 10.8857 25.3031 10.8857 27.4477C10.8857 29.6948 9.44467 31.5817 7.45449 32.2853V34.3093H76.0741V32.2845C74.0839 31.5637 72.6429 29.677 72.6429 27.4469ZM43.9941 15.4563L44.9719 14.7527L43.7715 14.7534C43.0335 14.7534 42.365 14.2731 42.1417 13.5694L41.7641 12.42L41.3872 13.5687C41.1639 14.2723 40.4947 14.7527 39.7574 14.7527H38.5562L39.5341 15.4563C40.1343 15.9021 40.3748 16.6739 40.1515 17.3775L39.7739 18.527L40.7517 17.8234C41.0605 17.6001 41.4037 17.4974 41.7641 17.4974C42.1245 17.4974 42.4677 17.6001 42.7764 17.8234L43.7543 18.527L43.3766 17.3775C43.1361 16.6739 43.3939 15.8849 43.9941 15.4563ZM31.4713 37.7404H40.0489V75.4799H31.4713V37.7404ZM19.4626 75.4817H28.0402L28.0409 37.7404H19.4634L19.4626 75.4817ZM43.4793 37.7404H52.0568V75.4799H43.4793V37.7404ZM64.0655 37.7404H55.488V75.4799H64.0655V37.7404ZM5.73909 25.7324C6.6825 25.7324 7.45431 26.5043 7.45431 27.4477C7.45431 28.3911 6.6825 29.1629 5.73909 29.1629C4.79569 29.1629 4.02388 28.3911 4.02388 27.4477C4.02388 26.5043 4.79569 25.7324 5.73909 25.7324ZM16.0318 37.7404H7.45431V75.4799H16.0318V37.7404ZM67.496 75.4817V37.7404H76.0735V75.4799L67.496 75.4817ZM76.0735 27.4491C76.0735 28.3925 76.8453 29.1643 77.7887 29.1643C78.7321 29.1643 79.5039 28.3918 79.5039 27.4491C79.5039 26.5057 78.7321 25.7339 77.7887 25.7339C76.8453 25.7339 76.0735 26.5057 76.0735 27.4491Z" fill="#CE8D3B"/>
</svg>
