<svg width="69" height="80" viewBox="0 0 69 80" fill="none" xmlns="http://www.w3.org/2000/svg">
<path fill-rule="evenodd" clip-rule="evenodd" d="M54.9483 77.8487C53.5769 79.2225 51.716 79.9965 49.7749 80H19.5916C17.6506 79.9966 15.7897 79.2226 14.4183 77.8487C13.0469 76.4744 12.2768 74.6124 12.2768 72.6709V7.32911C12.2768 5.38759 13.0469 3.52576 14.4183 2.15134C15.7897 0.777509 17.6506 0.00346444 19.5916 0H49.7749C51.716 0.00342085 53.5769 0.77742 54.9483 2.15134C56.3197 3.52563 57.0897 5.38759 57.0897 7.32911V72.6709C57.0897 74.6124 56.3197 76.4742 54.9483 77.8487ZM53.7837 10.4012H15.5842L15.5829 65.3068H53.7837V10.4012ZM49.7751 3.30606C50.801 3.30656 51.7879 3.70051 52.5323 4.40626C53.2766 5.1125 53.722 6.07754 53.7765 7.10202H15.5909C15.6454 6.07755 16.0908 5.11248 16.8351 4.40626C17.5795 3.70051 18.5663 3.30656 19.5923 3.30606H49.7751ZM53.7844 68.6053H15.5837L15.5835 72.6705C15.5835 73.7341 16.0062 74.7536 16.758 75.5054C17.5097 76.2572 18.5292 76.6793 19.5923 76.6793H49.7756C50.8388 76.6793 51.8582 76.2572 52.61 75.5054C53.3618 74.7536 53.7844 73.7341 53.7844 72.6705V68.6053ZM30.6747 72.5997C30.6747 72.1617 30.8494 71.7421 31.1592 71.4332C31.4695 71.1244 31.8902 70.9517 32.3277 70.9537H37.0393C37.4952 70.924 37.9436 71.0843 38.2776 71.3966C38.6112 71.7094 38.8007 72.1459 38.8007 72.6032C38.8007 73.0605 38.6112 73.4975 38.2776 73.8098C37.9436 74.1226 37.4952 74.2829 37.0393 74.2527H32.3277C31.4205 74.2527 30.6826 73.5213 30.6747 72.614L30.6747 72.5997ZM60.1646 49.95C60.4749 50.2588 60.8951 50.4316 61.3331 50.4296L61.3331 50.4435C61.7711 50.445 62.1913 50.2728 62.5016 49.964C62.8119 49.6546 62.9862 49.2349 62.9862 48.7974V25.2138C62.9862 24.3007 62.2462 23.5603 61.3331 23.5603C60.42 23.5603 59.6801 24.3007 59.6801 25.2138V48.7835C59.6801 49.2215 59.8543 49.6412 60.1646 49.95ZM68.4282 29.7398V44.2569C68.4282 45.1695 67.6883 45.9099 66.7752 45.9099C65.8621 45.9099 65.1216 45.1695 65.1216 44.2569V29.7398C65.1216 28.8267 65.862 28.0867 66.7752 28.0867C67.6883 28.0867 68.4282 28.8266 68.4282 29.7398ZM6.38196 48.7974C6.38196 49.2349 6.55617 49.6546 6.86648 49.964C7.1768 50.2728 7.59698 50.445 8.035 50.4435C8.47301 50.445 8.89319 50.2728 9.2035 49.964C9.51381 49.6546 9.68802 49.2349 9.68802 48.7974V25.2138C9.68802 24.3007 8.9481 23.5603 8.03499 23.5603C7.12185 23.5603 6.38196 24.3007 6.38196 25.2138V48.7974ZM4.21768 29.7398V44.2569C4.21768 45.1695 3.47779 45.9099 2.56465 45.9099C1.65151 45.9099 0.911621 45.1695 0.911621 44.2569V29.7398C0.911621 28.8267 1.65151 28.0867 2.56465 28.0867C3.47779 28.0867 4.21768 28.8266 4.21768 29.7398ZM45.9659 23.5671L46.8884 24.3263L46.9378 24.3902C47.9693 25.2395 48.6225 26.462 48.7552 27.7913C48.8883 29.1206 48.4899 30.4485 47.6476 31.4853L46.4697 32.9042C46.4559 32.9208 46.4356 32.9353 46.4159 32.9493C46.3853 32.971 46.3563 32.9916 46.3563 33.0175C47.5139 35.5743 47.7936 38.4419 47.1521 41.1737C46.5103 43.9062 44.9835 46.3491 42.8088 48.1234L45.0652 51.7348C45.2973 52.1045 45.3735 52.5514 45.2765 52.977C45.1795 53.4031 44.9167 53.7728 44.547 54.005C44.2837 54.1712 43.9788 54.2593 43.667 54.2603C43.09 54.2673 42.5515 53.9708 42.2482 53.4798L39.9849 49.8684C36.624 51.4299 32.7458 51.4299 29.3849 49.8684L27.1217 53.4798C26.6356 54.2519 25.6161 54.484 24.844 53.998C24.0719 53.512 23.8403 52.4924 24.3258 51.7204L26.6108 48.0946C24.4421 46.3164 22.9217 43.871 22.2867 41.1392C21.6518 38.4073 21.9368 35.5421 23.0984 32.9889L22.9851 32.8756L21.8072 31.4567C20.9534 30.4183 20.5486 29.0821 20.6817 27.7443C20.8148 26.4065 21.475 25.1766 22.5163 24.3264L23.4389 23.5672C24.4771 22.7283 25.8041 22.3324 27.1324 22.465C28.4603 22.5977 29.6827 23.249 30.5344 24.2769L31.7049 25.6958C31.7381 25.7389 31.7688 25.7839 31.797 25.8304C33.6954 25.3766 35.6742 25.3766 37.5726 25.8304C37.6008 25.7839 37.6315 25.7389 37.6652 25.6953L38.8357 24.2764C39.6878 23.2385 40.9172 22.5803 42.254 22.4476C43.5908 22.3145 44.9256 22.7169 45.9659 23.5671ZM24.3336 29.3566C23.7204 28.6049 23.8282 27.4998 24.5746 26.8806L25.4971 26.1214C26.2518 25.5052 27.3625 25.6166 27.9801 26.3698L28.5622 27.0795C27.1719 27.8397 25.9352 28.8528 24.9151 30.0663L24.3336 29.3566ZM25.2274 38.2612C25.2274 40.7695 26.2236 43.1752 27.9974 44.9485C29.7712 46.7223 32.1769 47.719 34.6852 47.719C37.1924 47.7151 39.5958 46.7173 41.3685 44.9446C43.1417 43.1718 44.139 40.7685 44.143 38.2612C44.143 35.7525 43.1467 33.3472 41.3729 31.5735C39.5992 29.7997 37.1934 28.8035 34.6852 28.8035C32.1769 28.8035 29.7712 29.7997 27.9974 31.5735C26.2237 33.3473 25.2274 35.7525 25.2274 38.2612ZM41.3903 26.3626C42.0079 25.6093 43.1186 25.4984 43.8733 26.1141L44.7958 26.8733C45.5466 27.4934 45.6545 28.604 45.0368 29.3569L44.4548 30.0666C43.4363 28.8506 42.1995 27.835 40.8083 27.0723L41.3903 26.3626ZM40.3683 36.5014C41.0077 35.855 41.0077 34.8142 40.3683 34.1674L40.3614 34.1599C39.7186 33.518 38.6768 33.518 38.0344 34.1604L34.6852 37.5021L32.6773 35.5368C32.0236 34.9518 31.0267 34.9795 30.4061 35.6001C29.786 36.2203 29.7583 37.217 30.3428 37.8708L33.5147 41.0071C33.826 41.3154 34.2467 41.4886 34.6851 41.4896C35.1207 41.4921 35.5394 41.3209 35.8487 41.014L40.3683 36.5014Z" fill="#CE8D3B"/>
</svg>
