<svg width="60" height="50" viewBox="0 0 60 50" fill="none" xmlns="http://www.w3.org/2000/svg">
<path fill-rule="evenodd" clip-rule="evenodd" d="M57.6341 32.841V27.7813L58.5674 18.3499L60 3.87205L57.5423 3.6285C56.3487 3.50859 55.1915 3.86287 54.2698 4.61987C53.3469 5.37646 52.7742 6.44637 52.6568 7.63416L51.7356 16.9443C51.6182 18.1312 51.9704 19.2939 52.7261 20.2163C53.4831 21.1392 54.5535 21.7119 55.7404 21.8294L55.8152 21.8365L55.3682 26.3527H47.3782L45.9816 14.2373H39.6928V13.2451C39.6928 9.02432 37.0212 5.3772 33.1479 4.04075C33.2052 3.79719 33.2353 3.54694 33.2353 3.29418C33.2353 1.47773 31.7572 0 29.9411 0C28.1246 0 26.6469 1.47763 26.6469 3.29418C26.6469 3.54694 26.677 3.79718 26.7342 4.04116C22.861 5.37676 20.1894 9.02484 20.1894 13.2455V14.2377H13.9002L12.5035 26.3531H4.63098L4.18438 21.8373L4.25874 21.8302C5.44643 21.7128 6.51679 21.1401 7.27304 20.2172C8.02962 19.2943 8.38179 18.1325 8.26441 16.9452L7.34322 7.63501C7.22582 6.44732 6.65305 5.37696 5.73019 4.62072C4.80733 3.86413 3.6468 3.51153 2.45772 3.62934L0 3.8729L1.80019 22.0727L2.36502 27.7816V32.8413H2.38173L0.744102 49.3138L3.12792 49.5511L4.78854 32.8412H11.7554L10.7707 41.3825L11.4425 41.7773C11.615 41.8793 14.4191 43.4902 19.7587 44.5701V49.4109H22.1542V44.9863C24.4026 45.3167 26.9983 45.5356 29.9403 45.5356C32.9325 45.5356 35.5686 45.3105 37.843 44.9696L37.8434 49.4109H40.2389V44.5459C41.3631 44.3153 42.3687 44.0621 43.264 43.8044L43.533 43.7847L43.5288 43.7279C46.6563 42.8026 48.3065 41.8534 48.4376 41.7761L49.1094 41.3813L48.1247 32.8399H55.2098L56.8712 49.5498L59.2551 49.3125L57.6174 32.8411L57.6341 32.841ZM2.69365 6.01245C3.24511 5.95981 3.78326 6.12066 4.21063 6.47201C4.63843 6.82293 4.90414 7.31968 4.95887 7.86985L5.88006 17.18C5.93438 17.7302 5.77103 18.2696 5.42051 18.697C5.06958 19.1248 4.57284 19.3905 4.02267 19.4452L3.94789 19.4523L2.61935 6.01934L2.69365 6.01245ZM54.5785 18.6972C54.929 19.125 55.4253 19.3911 55.9764 19.4454L56.0508 19.4523L56.1832 18.1137L57.3793 6.01977L57.305 6.01267C56.7534 5.95877 56.2158 6.1213 55.788 6.47222C55.3598 6.82312 55.094 7.31986 55.0397 7.87006L54.1185 17.1802C54.0646 17.7305 54.2276 18.2694 54.5785 18.6972ZM29.9414 2.39646C30.4369 2.39646 30.8396 2.79961 30.8396 3.29467C30.8396 3.62722 30.6591 3.84571 30.5522 3.94641L29.9414 4.51876L29.3319 3.94682C29.2241 3.84572 29.0432 3.62722 29.0432 3.29467C29.0432 2.79919 29.4459 2.39646 29.9414 2.39646ZM28.7115 6.00208C25.1617 6.60036 22.5857 9.64641 22.5857 13.2455L22.5859 14.2377H37.298V13.2455C37.298 9.64631 34.7217 6.60034 31.1722 6.00208L29.9414 5.79486L28.7115 6.00208ZM4.76132 30.4453V28.7487H12.2282L12.0322 30.4453H4.76132ZM42.5599 30.3747L43.3512 41.2633L43.3519 41.2634C44.84 40.7981 45.9167 40.3477 46.5475 40.0536L43.8483 16.6336H16.0369L13.3368 40.0536C14.0162 40.3702 15.2063 40.8674 16.8796 41.3712L17.6554 30.3778L20.0451 30.5462L19.2371 41.9931C21.981 42.6243 25.5559 43.1411 29.9418 43.1411C34.5123 43.1411 38.21 42.5805 40.9962 41.9133L40.1702 30.5477L42.5599 30.3747ZM47.6551 28.749H55.2394V30.4456H47.851L47.6551 28.749ZM41.8525 18.9406H17.7779V21.3361H41.8525V18.9406Z" fill="black"/>
</svg>
