<?xml version="1.0" encoding="UTF-8"?>
<svg width="45px" height="40px" viewBox="0 0 45 40" version="1.1" xmlns="http://www.w3.org/2000/svg" xmlns:xlink="http://www.w3.org/1999/xlink">
    <title>tobook</title>
    <g id="Page-1" stroke="none" stroke-width="1" fill="none" fill-rule="evenodd">
        <path d="M22.8616845,5.00964669 C23.5499233,5.01573174 24.0281335,5.49532206 24.0971393,6.15144176 C24.1497091,6.65142015 23.7334787,7.24725387 23.196739,7.35766315 C22.8851465,7.42183855 22.5536677,7.39298158 22.2310342,7.39837658 C21.8969207,7.40395977 21.5625562,7.40490076 21.2285054,7.39887844 C21.0423779,7.39549088 20.96942,7.47039354 20.9709256,7.65909304 C20.9770733,8.44205794 20.9779516,9.22508558 20.9701728,10.0079878 C20.9682908,10.1971891 21.0426916,10.2538993 21.2223576,10.2747265 C22.5815209,10.4326244 23.9186652,10.7003669 25.1984091,11.1932565 C30.1126886,13.0860856 33.6506787,16.3813635 35.4918162,21.3749996 C35.9256117,22.5514858 36.1586632,23.7798518 36.210292,25.0377648 C36.2269162,25.443958 36.257906,25.8499631 36.2622973,26.2562818 C36.2646812,26.4745283 36.3523813,26.5370727 36.5617198,26.5509993 C36.9440119,26.576406 37.3347729,26.5962294 37.7026993,26.6920848 C38.5949443,26.9246343 38.6512781,28.0105974 38.3524203,28.5461452 C38.2647829,28.7032275 38.0364365,28.8423055 37.8526301,28.8739855 C37.30027,28.9692135 36.7391901,29.0227243 36.1794276,29.0648179 C34.6935445,29.1765445 33.2069087,29.278924 31.7198964,29.3746539 C30.8770846,29.4289176 30.0334574,29.4784135 29.189391,29.5030047 C26.717164,29.5749589 24.2445607,29.6361859 21.7718947,29.6921433 C21.5412899,29.6973501 21.4625605,29.7633448 21.4683946,29.9974626 C21.4828231,30.5712772 21.4793101,31.1457819 21.469712,31.7197847 C21.4663872,31.9208425 21.5328837,32.0015165 21.738521,31.9959334 C23.2409655,31.954969 24.7436609,31.9211562 26.2461681,31.8828266 C27.0494583,31.862313 27.8525604,31.8370318 28.6557879,31.8143226 C30.2935465,31.7680887 31.9314305,31.7261834 33.5690009,31.6744291 C34.5385324,31.6437528 35.5072484,31.5770054 36.4769054,31.5630788 C38.1750127,31.5386758 39.4592733,32.6696809 39.4948427,34.3664708 C39.5366226,36.3587937 38.5873537,38.1720152 36.2404664,38.68247 C35.6953206,38.8010345 35.1230116,38.8026028 34.5619317,38.8385485 C32.8663337,38.9472013 31.1702966,39.0482634 29.474134,39.1478827 C28.9640556,39.1778689 28.4532873,39.202711 27.9424561,39.2141283 C25.2083208,39.2750416 22.4740601,39.3309363 19.7397993,39.3885248 C19.7395484,39.3726534 19.7392347,39.3567821 19.7389838,39.3409108 C18.4126296,39.3409108 17.0858362,39.3641845 15.7601093,39.3353903 C13.8617598,39.2941123 11.9635984,39.2281177 10.0665035,39.1474436 C8.6188245,39.0859657 7.17208653,38.9963209 5.726415,38.898019 C4.84389354,38.8380467 3.95415784,38.7946985 3.08518662,38.6434503 C1.55269325,38.3767115 0.273953029,36.929409 0.0852535301,35.3774058 C0.0172514502,34.8182079 -0.0650536503,34.2670397 0.0819914377,33.7065244 C0.405691375,32.4724498 1.5325561,31.546141 2.80433301,31.5655881 C4.38939625,31.5898656 5.97358123,31.6719825 7.55814261,31.7287554 C8.20466423,31.7519037 8.85106039,31.7788787 9.49777021,31.7960047 C10.6246349,31.8259282 11.7517506,31.8487628 12.8787408,31.8761142 C14.4543314,31.914381 16.029922,31.9558473 17.6056381,31.9919812 C18.0160972,32.0013911 18.0166618,31.9946787 18.0169127,31.5830905 C18.0172264,31.061093 18.0056836,30.5387818 18.0214922,30.0172861 C18.0288946,29.7744484 17.9564385,29.692457 17.7061357,29.6912023 C16.7982075,29.6867483 15.8902167,29.663851 14.9824767,29.6398244 C13.4073252,29.59817 11.8314209,29.5713204 10.2575868,29.4998681 C8.48739982,29.419445 6.71865568,29.304268 4.95028794,29.1890283 C3.9629404,29.1247275 2.9774121,29.0323224 1.99150741,28.9474453 C1.30170033,28.8881003 1.05465956,28.6868543 0.992177949,28.0313619 C0.933962146,27.4212879 1.1285585,26.9038699 1.71347676,26.7243293 C2.07550629,26.61323 2.4675847,26.5581508 2.84648928,26.556457 C3.17320038,26.5549514 3.26033588,26.4249696 3.27589356,26.1399129 C3.31096105,25.4954615 3.34182546,24.8498181 3.40894929,24.2082524 C3.59996989,22.3812297 4.15948147,20.6602877 5.06452391,19.0704568 C7.6550644,14.519587 11.543604,11.7010764 16.6374867,10.5341256 C17.193799,10.4066531 17.7657316,10.3422895 18.3331475,10.270398 C18.5246699,10.2461832 18.5796864,10.1695868 18.5786199,9.99268102 C18.573915,9.22019245 18.5725349,8.44757841 18.5792472,7.67508984 C18.5810665,7.47215005 18.5012707,7.39593001 18.3020948,7.39825111 C17.7799719,7.4043989 17.2564688,7.37623199 16.7359141,7.40508896 C16.0428449,7.44354401 15.4711632,6.91125836 15.4487677,6.23688349 C15.4269995,5.5794464 15.9726472,5.0141007 16.6896802,5.0085175 C18.7469313,4.99239524 20.8044961,4.99139152 22.8616845,5.00964669 Z M36.5237038,33.9568273 C35.9921082,33.9641043 35.4608263,33.9957842 34.9294189,34.0155449 C33.240847,34.0785284 31.552526,34.1519255 29.8635776,34.2005432 C27.9649144,34.2551833 26.0657493,34.317163 24.1666469,34.3224953 C20.9305258,34.3315915 17.694091,34.3126463 14.4580954,34.2792726 C12.1728114,34.2557479 9.88784118,34.1931408 7.60293365,34.1385007 C6.97786656,34.1235704 6.35386593,34.0671738 5.72886157,34.04321 C4.79069635,34.0072642 3.85215472,33.9755843 2.91348764,33.9579565 C2.56017794,33.9513068 2.34569536,34.186993 2.38076286,34.5062389 C2.40573041,34.7333307 2.4413625,34.9599834 2.48665539,35.1840013 C2.60107956,35.7501626 3.1023126,36.2589235 3.67838557,36.3185194 C4.6828591,36.4224673 5.69072018,36.5001929 6.69876947,36.5620472 C8.24901614,36.657087 9.79995288,36.7448498 11.3517051,36.807206 C12.9467429,36.8712559 14.5429098,36.9138513 16.1389512,36.94183 C17.3393385,36.9628454 18.5403531,36.9459704 19.7411167,36.9459704 L19.7414931,36.9782776 L19.7414931,36.9782776 C21.9123529,36.9450921 24.0832754,36.9152941 26.2540724,36.8767136 C26.9214839,36.8649199 27.5888955,36.8373176 28.2555543,36.802752 C29.6295225,36.7315505 31.0031143,36.6538876 32.376518,36.5729626 C33.4375135,36.510481 34.4984463,36.4454274 35.5585009,36.3690819 C36.2203292,36.3214679 36.7032444,35.9894245 36.9475249,35.3689369 C37.0369815,35.1417823 37.0444467,34.8820696 37.0867912,34.6367226 C37.1638267,34.1905687 36.9750018,33.9506168 36.5237038,33.9568273 Z M16.6781374,12.9805695 C13.6284574,13.727965 11.0698478,15.3075078 8.97859566,17.6372063 C7.56309849,19.2141771 6.56094606,21.0223173 6.02935047,23.0857162 C5.8290096,23.8633757 5.75205341,24.6531336 5.69562704,25.4455481 L5.631187,26.3971163 L5.631187,26.3971163 C5.61381008,26.6416478 5.76192162,26.6640433 5.94679444,26.6704421 C7.03100103,26.7079561 8.11483123,26.7587695 9.19922602,26.7870619 C11.1294437,26.8373734 13.0598496,26.8884376 14.9904437,26.9134679 C16.5878653,26.9341697 18.1857887,26.917671 19.7834612,26.917671 L19.7834612,26.8619018 L19.7834612,26.8619018 C22.2158529,26.8619018 24.6483074,26.8696179 27.0806364,26.8583888 C28.1763231,26.8533702 29.2718842,26.8123431 30.3673827,26.7842389 C30.9305328,26.7698104 31.4934946,26.7490459 32.0565192,26.7288461 C32.5672249,26.7105281 33.0777424,26.6822358 33.5885735,26.672324 C33.8033697,26.6681209 33.8871177,26.5874469 33.8728146,26.3712078 C33.8440204,25.9345893 33.830972,25.4970298 33.8090156,25.0599721 C33.7402608,23.6905834 33.3920951,22.3874402 32.8288196,21.1450849 C31.455416,18.1157302 29.2412708,15.8616244 26.3287241,14.3062964 C23.2867602,12.6817116 20.0660086,12.1503042 16.6781374,12.9805695 Z M14.8777008,17.2528189 C15.2499557,17.80612 15.1193466,18.4904066 14.5652927,18.9119066 C14.1180097,19.2522307 13.6535379,19.5736095 13.2332926,19.944798 C12.4192751,20.6638384 11.804057,21.5360717 11.3246549,22.5122529 C11.2015736,22.7628694 11.0063499,23.0079027 10.7831475,23.1728893 C10.4080696,23.4501672 9.97866536,23.4257015 9.5766752,23.1900153 C9.18578871,22.9608533 8.99740287,22.6074809 8.981657,22.0643425 C9.01013758,21.9691772 9.04351129,21.7830498 9.11916674,21.6160557 C10.0232682,19.6219135 11.4346878,18.0701613 13.2786482,16.907539 C13.8251742,16.5629491 14.5280296,16.7329543 14.8777008,17.2528189 Z M31.062384,4.80284807 C34.845282,5.0909167 37.6280978,6.89259542 39.3377478,10.292323 C39.9746714,11.5588931 40.2562778,12.9217577 40.2726777,14.3368785 C40.2806807,15.0414904 39.7387343,15.610851 39.0828655,15.6129272 C38.4444991,15.6149914 37.947971,15.085215 37.9459008,14.3723851 C37.9361146,11.0000716 35.4517175,7.94982702 32.0437092,7.29351912 C31.6260987,7.21315873 31.1968826,7.1814788 30.7713678,7.15619758 C30.0272343,7.11203387 29.5287615,6.62786408 29.5453856,5.93699055 C29.5616333,5.26060824 30.0735936,4.80215879 30.8118302,4.80284807 L31.062384,4.80284807 L31.062384,4.80284807 Z M32.1363276,0.00106138924 C33.5799289,0.0548859138 35.0016366,0.26127599 36.3548404,0.790738679 C40.8618601,2.55408782 43.6636839,5.79265551 44.7301371,10.5180473 C44.8101211,10.8724234 44.8646357,11.2338256 44.9081094,11.594726 C44.9517085,11.9561282 44.9666388,12.3210434 45.0000125,12.7623668 C44.9762369,12.9563359 44.9841412,13.236374 44.9024007,13.4873041 C44.7318309,14.0108072 44.1639132,14.3506294 43.6542112,14.2831292 C43.1297044,14.2136216 42.7149168,13.7579323 42.6959716,13.1721358 C42.6397632,11.4299276 42.2924131,9.76011265 41.4577566,8.21783301 C39.8564456,5.25905247 37.4134521,3.38868161 34.1236319,2.66286605 C33.487963,2.52265881 32.8245036,2.49079068 32.1713323,2.45177103 C31.196845,2.3934925 30.5695195,1.35959741 31.0536266,0.57048471 C31.3011692,0.166863508 31.6865352,-0.0157509331 32.1363276,0.00106138924 Z" id="tobook" fill="#CE8D3B"></path>
    </g>
</svg>