<?xml version="1.0" standalone="no"?>
<!DOCTYPE svg PUBLIC "-//W3C//DTD SVG 20010904//EN"
 "http://www.w3.org/TR/2001/REC-SVG-20010904/DTD/svg10.dtd">
<svg version="1.0" xmlns="http://www.w3.org/2000/svg"
 width="664.000000pt" height="664.000000pt" viewBox="0 0 664.000000 664.000000"
 preserveAspectRatio="xMidYMid meet">
<metadata>
Created by potrace 1.14, written by Peter Selinger 2001-2017
</metadata>
<g transform="translate(0.000000,664.000000) scale(0.100000,-0.100000)"
fill="#000000" stroke="none">
<path d="M3312 6552 c-48 -100 -54 -154 -22 -195 11 -14 20 -27 20 -30 0 -2
-25 -7 -55 -9 -44 -4 -62 -11 -85 -33 -29 -28 -59 -99 -47 -111 3 -3 26 -2 50
4 112 24 167 -81 98 -190 -66 -104 -224 -119 -322 -31 -46 41 -48 57 -14 93
71 74 18 200 -85 200 -64 0 -120 -57 -120 -122 0 -36 37 -88 74 -103 77 -32
37 -169 -61 -211 -81 -35 -197 -3 -228 62 -9 20 -15 37 -13 38 1 1 15 7 30 14
96 41 71 177 -33 177 -35 0 -46 -6 -70 -35 l-29 -34 0 37 c0 29 -6 40 -27 54
-41 27 -216 102 -225 97 -12 -8 15 -49 132 -199 67 -85 142 -197 201 -300 l94
-165 42 0 c62 0 401 47 518 71 54 11 123 30 152 41 43 16 53 24 53 43 0 23
-51 86 -80 98 -13 6 -13 8 0 14 19 8 72 61 89 88 10 16 13 17 18 5 8 -19 73
-85 93 -93 12 -6 12 -8 2 -13 -40 -18 -82 -68 -82 -96 0 -37 31 -51 187 -84
137 -29 492 -76 541 -72 34 3 38 7 123 156 90 156 116 195 259 382 44 57 80
110 80 117 0 15 -38 2 -150 -49 -94 -43 -111 -59 -103 -98 6 -34 -12 -42 -22
-10 -7 23 -54 50 -86 50 -30 0 -89 -62 -89 -93 0 -29 41 -83 70 -92 26 -8 25
-36 -2 -70 -61 -77 -227 -71 -285 11 -40 56 -42 154 -3 154 10 0 32 14 49 31
26 26 31 38 31 81 0 44 -4 54 -34 84 -29 29 -41 34 -80 34 -39 0 -51 -5 -81
-35 -28 -29 -35 -43 -35 -76 0 -45 13 -77 42 -99 25 -20 13 -56 -32 -93 -61
-52 -169 -60 -246 -20 -86 44 -125 157 -77 221 19 25 25 27 92 26 79 -2 80 0
52 61 -27 59 -53 78 -116 83 -30 2 -55 9 -55 14 0 5 10 22 21 38 17 22 21 38
16 70 -5 39 -75 199 -88 200 -3 0 -24 -39 -47 -88z"/>
<path d="M2265 5850 c-33 -65 -32 -87 8 -128 l32 -33 -22 -18 c-11 -10 -59
-33 -105 -51 -237 -93 -432 -204 -541 -308 -63 -61 -151 -186 -185 -264 -83
-191 -109 -500 -78 -948 29 -429 75 -738 181 -1210 53 -234 96 -452 91 -458
-2 -2 -57 -19 -122 -38 -183 -55 -509 -211 -613 -295 l-33 -26 17 -33 c9 -18
56 -71 104 -119 100 -100 137 -146 145 -181 5 -23 -3 -29 -106 -80 -430 -213
-918 -541 -918 -619 0 -29 33 -43 83 -36 96 15 342 -27 514 -87 79 -27 92 -35
96 -57 5 -24 -6 -197 -18 -286 -27 -204 -22 -472 9 -504 19 -18 39 -5 135 82
205 188 392 283 879 448 243 82 309 110 319 134 10 29 -9 68 -59 121 -41 44
-62 58 -107 70 -31 9 -62 22 -70 29 -20 19 -7 43 26 50 15 3 75 21 133 40 58
19 145 44 193 55 l88 21 77 -62 c206 -166 419 -265 677 -316 138 -26 427 -24
562 5 231 50 461 165 626 313 l59 52 79 -17 c95 -20 247 -69 302 -97 37 -19
38 -21 22 -39 -9 -10 -39 -24 -67 -30 -29 -7 -65 -26 -86 -44 -41 -36 -92
-112 -92 -138 0 -30 78 -65 326 -147 458 -152 668 -261 899 -466 47 -41 89
-75 94 -75 15 0 28 23 35 63 10 57 8 304 -4 409 -17 144 -28 304 -23 331 4 21
20 29 136 66 164 52 270 71 418 75 64 1 121 6 127 10 45 28 -40 117 -243 257
-227 156 -644 397 -743 430 -30 10 -33 14 -27 38 9 36 38 71 145 181 50 51 98
106 106 122 15 30 15 31 -18 58 -92 78 -389 224 -570 279 -48 15 -90 29 -92
32 -3 3 10 66 28 140 19 74 46 195 60 269 13 74 43 221 65 326 44 209 90 527
117 809 25 255 25 714 1 845 -74 403 -268 607 -770 810 -66 27 -128 56 -136
65 -14 13 -12 18 17 48 36 37 40 63 16 110 -23 44 -44 67 -64 67 -27 0 -232
-334 -214 -349 5 -4 51 -15 102 -25 234 -43 491 -142 634 -245 96 -70 190
-214 237 -366 55 -174 65 -470 31 -908 -33 -420 -79 -706 -177 -1092 -30 -121
-68 -273 -84 -339 -15 -65 -30 -120 -32 -122 -2 -2 -18 -1 -36 2 -23 5 -30 11
-26 21 45 120 170 780 205 1083 18 166 40 497 46 725 14 479 -35 690 -201 864
-93 97 -164 138 -333 194 -174 58 -312 87 -654 136 -366 54 -518 84 -518 102
0 5 -9 9 -20 9 -11 0 -20 -4 -20 -9 0 -17 -126 -43 -427 -86 -462 -67 -576
-91 -783 -164 -137 -48 -203 -88 -283 -168 -77 -78 -130 -165 -161 -263 -47
-149 -51 -187 -50 -520 1 -357 13 -531 54 -775 16 -93 36 -228 45 -300 9 -71
25 -170 35 -220 10 -49 33 -169 50 -265 17 -96 39 -209 49 -250 10 -41 17 -77
16 -78 -2 -2 -19 -7 -39 -12 -35 -8 -36 -7 -46 30 -6 21 -19 83 -31 137 -11
54 -33 150 -49 213 -149 592 -210 1043 -210 1555 0 234 8 336 40 462 23 91 92
237 145 306 101 132 368 263 676 331 64 14 126 26 137 26 12 0 24 5 27 10 9
15 -141 276 -188 328 -32 35 -54 28 -82 -28z m1181 -370 c43 -10 192 -35 329
-55 552 -79 677 -109 887 -209 277 -132 361 -359 344 -931 -17 -603 -116
-1248 -266 -1728 -21 -66 -22 -69 -48 -62 -15 4 -29 8 -31 11 -3 3 37 148 57
203 3 11 -3 8 -20 -7 -17 -15 -24 -31 -22 -45 2 -12 1 -15 -2 -7 -4 8 -58 114
-121 235 -220 421 -216 412 -188 380 14 -16 96 -128 182 -248 87 -119 162
-216 167 -214 12 4 76 222 76 261 0 38 -152 319 -333 615 -34 55 -3 30 203
-168 105 -101 193 -181 195 -179 6 6 55 246 55 269 0 24 -117 174 -222 286
-51 54 -115 122 -142 152 l-51 54 50 -28 c69 -39 269 -166 330 -209 27 -20 53
-32 58 -27 4 4 11 62 14 127 l6 119 -56 51 c-30 28 -125 104 -211 169 -86 65
-154 120 -152 123 9 8 177 -44 291 -90 66 -26 123 -48 126 -48 11 0 18 110 12
201 l-6 90 -101 49 c-56 27 -168 72 -251 100 -82 29 -154 56 -158 59 -14 13
294 32 391 25 50 -4 92 -5 92 -2 0 3 -9 30 -20 62 -28 81 -80 176 -107 193
-53 35 -393 -7 -582 -72 -41 -14 -76 -23 -78 -21 -5 5 99 84 162 122 83 51
163 94 213 113 l47 19 -40 17 c-86 36 -268 77 -325 73 -71 -5 -186 -68 -341
-185 -60 -46 -109 -80 -109 -78 0 17 65 145 110 214 29 45 50 87 47 94 -3 9
-56 21 -149 36 -78 12 -151 23 -160 25 -9 2 -28 -4 -42 -13 -34 -21 -129 -142
-163 -208 -16 -29 -30 -53 -33 -53 -3 0 -17 24 -33 53 -35 68 -137 196 -170
213 -20 11 -40 11 -113 -1 -49 -7 -124 -19 -166 -26 -48 -7 -78 -17 -78 -24 0
-7 13 -30 29 -53 39 -53 84 -133 116 -206 l26 -59 -38 32 c-72 60 -148 115
-233 170 -47 29 -78 51 -70 49 9 -3 38 14 70 43 l55 48 -60 -5 c-101 -7 -49 4
165 36 298 44 453 71 470 81 21 12 27 11 116 -11z m-841 -120 c-16 -4 -41 -8
-55 -8 -22 0 -22 1 5 8 17 4 41 8 55 8 22 0 22 -1 -5 -8z m-88 -16 c-3 -3 -12
-4 -19 -1 -8 3 -5 6 6 6 11 1 17 -2 13 -5z m16 -342 c26 -18 47 -35 47 -37 0
-2 -39 10 -87 26 -130 43 -121 38 -96 59 12 9 19 21 15 25 -11 13 68 -35 121
-73z m-166 32 c-3 -3 -12 -4 -19 -1 -8 3 -5 6 6 6 11 1 17 -2 13 -5z m-156
-244 c22 0 39 -4 39 -8 0 -4 -46 -23 -102 -41 -57 -19 -110 -36 -118 -39 -8
-3 8 15 37 40 41 36 48 48 35 51 -9 3 3 3 27 1 24 -2 61 -4 82 -4z m939 -121
c41 -11 105 -37 142 -57 l67 -37 68 37 c140 76 290 96 434 59 163 -42 265 -97
301 -161 60 -108 -53 -476 -190 -622 -53 -57 -80 -31 -181 175 -67 135 -102
229 -89 242 3 3 44 0 91 -6 105 -16 119 -10 207 75 44 43 58 62 50 70 -15 15
-385 10 -423 -5 -15 -7 -30 -22 -33 -36 -35 -137 162 -633 338 -855 l30 -39
-76 -113 c-84 -125 -93 -131 -182 -115 -50 9 -241 82 -268 102 -12 9 -21 37
-29 88 -17 118 -9 131 98 158 64 17 98 59 103 129 3 47 0 62 -16 82 l-20 25
-212 0 c-210 0 -212 0 -231 -24 -12 -15 -19 -39 -19 -66 0 -89 31 -126 132
-155 49 -15 69 -26 73 -41 9 -26 -3 -144 -17 -175 -18 -39 -240 -125 -327
-127 -61 -2 -55 -7 -152 139 l-60 92 60 83 c146 204 295 561 308 739 7 106 0
113 -119 122 -174 12 -312 9 -334 -6 -18 -14 -16 -18 42 -74 85 -81 106 -88
213 -75 47 6 89 9 93 7 11 -7 -29 -111 -91 -239 -70 -142 -113 -205 -141 -205
-12 0 -36 21 -61 52 -124 158 -224 492 -175 586 36 68 141 129 290 167 115 30
208 31 306 4z m-1409 -214 c3 23 6 -6 7 -67 1 -59 5 -109 10 -111 4 -3 55 14
115 38 143 58 263 97 282 93 10 -2 -33 -40 -108 -95 -68 -50 -158 -124 -201
-164 l-79 -74 6 -123 c3 -68 7 -126 11 -129 3 -3 74 40 159 95 84 55 180 115
213 133 l59 33 -97 -102 c-108 -113 -228 -254 -278 -328 l-33 -47 27 -136 c16
-75 30 -138 32 -140 2 -2 53 46 114 108 114 114 285 271 296 271 3 0 -3 -15
-14 -32 -181 -301 -332 -581 -332 -617 0 -22 68 -253 77 -261 3 -3 10 3 17 14
13 21 182 255 264 364 30 40 56 71 58 69 2 -2 -60 -139 -137 -306 l-140 -302
15 -47 c9 -25 13 -49 9 -53 -5 -3 -24 -9 -44 -13 l-36 -6 -41 142 c-129 448
-201 841 -237 1308 -14 185 -19 637 -5 505 6 -58 6 -59 11 -20z m1783 -1233
c81 -38 166 -106 166 -133 0 -10 -29 -49 -64 -86 l-64 -68 -43 13 c-170 48
-157 48 -318 0 l-43 -13 -64 68 c-35 37 -64 76 -64 86 0 23 77 89 139 121 87
44 113 50 201 47 71 -2 96 -8 154 -35z m800 -502 c69 -91 124 -165 123 -166
-1 -1 -17 1 -34 3 -30 5 -40 17 -115 147 -44 77 -88 152 -97 166 -28 46 -2 14
123 -150z m-1851 83 c-19 -43 -50 -111 -69 -150 -29 -64 -36 -73 -59 -73 -18
0 -24 4 -19 13 23 40 178 287 180 287 2 0 -13 -35 -33 -77z m1252 -238 c541
-38 970 -118 1384 -260 234 -80 481 -198 481 -229 0 -7 -6 -20 -13 -30 -13
-18 -15 -17 -54 7 -58 36 -209 111 -305 151 -356 146 -834 250 -1373 298 -198
17 -881 17 -1070 0 -647 -59 -1165 -191 -1564 -398 -68 -35 -129 -64 -136 -64
-16 0 -29 35 -20 50 19 30 332 169 515 228 171 55 521 142 570 142 14 0 53 7
85 16 33 8 80 17 105 20 25 2 110 13 190 24 168 23 185 25 385 40 83 6 168 12
190 14 114 8 445 4 630 -9z m110 -125 c439 -37 757 -96 1114 -207 173 -53 397
-152 489 -215 38 -26 43 -34 37 -56 -8 -32 -79 -138 -145 -216 -80 -96 -85
-119 -85 -421 0 -240 -1 -260 -18 -263 -9 -2 -68 17 -131 42 -519 208 -999
306 -1621 331 -175 7 -561 -9 -755 -31 -399 -45 -778 -141 -1173 -298 l-138
-54 -11 26 c-7 17 -10 85 -7 187 7 290 4 337 -24 397 -13 29 -51 83 -84 120
-33 37 -74 96 -93 133 -32 63 -32 66 -15 85 24 27 210 121 336 170 223 87 617
185 919 229 492 72 895 84 1405 41z m-2660 -850 c-3 -5 -61 -42 -128 -82 -391
-230 -489 -295 -528 -349 -26 -36 -68 -59 -110 -59 l-32 0 24 26 c66 71 579
392 719 450 65 27 63 27 55 14z m4422 -54 c174 -87 540 -319 626 -397 l42 -38
-33 -1 c-45 0 -66 12 -147 89 -51 48 -126 100 -270 185 -270 160 -343 205
-350 217 -9 13 27 -2 132 -55z m-4328 -78 c6 -29 15 -132 20 -228 14 -237 28
-307 71 -350 26 -26 63 -25 157 5 107 35 190 43 199 21 16 -42 -73 -85 -399
-195 -256 -86 -306 -108 -354 -154 -38 -36 -39 -33 -18 77 24 126 36 258 28
301 -12 59 -57 77 -320 135 -29 7 -53 16 -53 22 0 19 104 109 198 172 172 114
413 244 454 246 4 0 11 -24 17 -52z m4281 -20 c225 -118 415 -246 467 -314 14
-19 24 -36 22 -38 -2 -3 -58 -16 -124 -31 -117 -26 -208 -56 -232 -77 -22 -18
-16 -197 11 -330 12 -65 21 -118 18 -118 -2 0 -20 13 -38 30 -51 45 -90 61
-319 138 -329 110 -447 166 -432 206 10 24 66 20 192 -15 132 -37 157 -35 184
19 26 53 29 69 51 336 11 136 25 245 31 253 16 18 33 12 169 -59z m-1920 -83
c381 -21 559 -46 875 -127 250 -63 675 -216 675 -242 0 -19 -22 -36 -46 -36
-12 0 -73 20 -136 44 -373 144 -793 242 -1223 286 -273 29 -890 15 -1145 -25
-332 -53 -700 -148 -961 -250 -78 -30 -149 -55 -159 -55 -31 0 -50 11 -50 30
0 29 375 167 655 240 395 104 647 136 1160 148 44 1 204 -5 355 -13z m25 -164
l90 -7 -69 -22 c-38 -12 -101 -27 -140 -33 -82 -13 -321 -6 -381 11 -152 43
-151 42 -130 51 24 9 503 10 630 0z m-883 -40 c60 -36 213 -90 319 -112 141
-31 411 -33 539 -5 102 22 202 57 290 101 56 28 72 32 118 28 31 -3 51 -10 49
-16 -6 -20 -200 -116 -295 -146 -158 -52 -248 -65 -442 -65 -240 -1 -389 33
-580 130 -122 62 -166 90 -149 97 34 13 119 6 151 -12z m-864 -313 c33 -33 18
-41 -383 -193 -309 -116 -448 -179 -539 -242 -33 -23 -62 -40 -64 -38 -8 7 38
63 86 106 64 57 189 114 422 194 107 37 247 94 310 126 118 60 147 68 168 47z
m3003 -52 c74 -36 207 -90 296 -120 276 -95 319 -114 413 -184 43 -32 100 -97
100 -114 0 -4 -26 9 -57 31 -111 75 -300 157 -678 296 -71 26 -163 62 -203 81
-67 30 -72 35 -62 54 17 32 48 25 191 -44z"/>
<path d="M2796 2181 c-21 -66 -42 -121 -47 -121 -19 0 -234 -32 -237 -35 -2
-2 42 -34 97 -71 56 -37 101 -73 101 -80 0 -7 -9 -60 -20 -116 -11 -57 -20
-109 -20 -116 0 -7 36 16 80 50 131 103 111 101 234 30 60 -34 109 -62 111
-62 2 0 -15 50 -36 111 -21 60 -39 116 -39 124 0 8 21 34 48 58 26 24 67 62
92 86 l45 42 -130 -3 -130 -3 -55 114 -56 114 -38 -122z"/>
<path d="M3749 2187 l-54 -112 -130 3 -130 3 45 -42 c25 -24 66 -62 93 -86 26
-24 47 -50 47 -58 0 -8 -18 -64 -39 -124 -21 -61 -37 -111 -34 -111 2 0 52 28
111 61 122 71 101 74 232 -29 44 -34 80 -57 80 -50 0 7 -9 59 -20 116 -11 56
-20 109 -20 116 0 7 47 45 106 83 l105 70 -128 17 c-70 10 -129 18 -130 20 -1
1 -18 53 -38 116 -20 63 -37 115 -39 117 -1 2 -27 -48 -57 -110z"/>
<path d="M1856 2113 c-3 -10 -12 -63 -22 -118 -9 -55 -17 -101 -19 -103 -1 -2
-56 -20 -121 -41 l-119 -37 113 -57 112 -57 0 -127 0 -128 89 89 90 89 120
-41 121 -41 -55 109 c-30 60 -55 114 -55 119 0 5 34 53 76 106 l75 96 -48 -7
c-26 -3 -84 -12 -128 -19 -44 -7 -82 -10 -85 -6 -3 4 -33 48 -68 99 -34 51
-64 92 -67 92 -2 0 -6 -8 -9 -17z"/>
<path d="M4715 2031 c-75 -115 -65 -111 -201 -81 -49 11 -97 20 -107 20 -13 0
5 -28 63 -99 l81 -98 -65 -109 c-36 -59 -64 -109 -62 -111 1 -2 51 15 111 37
59 22 115 40 124 39 9 0 50 -40 91 -89 l75 -88 3 126 3 127 114 50 c63 27 113
51 111 53 -2 2 -55 19 -117 37 -62 19 -115 39 -119 45 -4 6 -12 61 -19 123 -7
61 -14 113 -16 115 -2 3 -34 -41 -70 -97z"/>
</g>
</svg>
